<svg width="124" height="40" viewBox="0 0 124 40" fill="none" xmlns="http://www.w3.org/2000/svg">
<path d="M12.1658 26.1955C11.4449 26.07 10.6247 25.8943 9.87895 25.5177C9.87895 25.5177 9.70495 25.4173 9.70495 25.5679V27.0742C9.60552 27.8273 10.1275 28.1788 10.7987 28.2039C11.2958 28.229 10.7489 28.8315 10.5004 29.1578C10.1275 29.6097 10.0529 29.9361 10.2021 30.1369C10.3512 30.3377 10.4755 30.1369 10.9229 30.5637C10.5252 31.0909 10.3264 31.367 10.2518 31.4925C10.2518 31.4925 9.9038 32.0448 10.7489 32.2959C10.5252 32.9486 10.2021 33.0741 10.0032 33.4758C9.80438 33.8774 10.4258 34.254 10.3761 34.2791C9.38181 34.9318 8.66095 35.6598 8.53667 36.1368C8.18867 37.1661 7.98981 38.346 7.7661 39.3502C7.69152 39.6765 7.29381 39.9778 7.04524 39.9778C6.07581 40.028 5.35496 39.9778 4.50982 39.9778C4.23639 39.9778 4.36068 39.7769 4.36068 39.7769C5.23067 38.1452 7.2441 36.8146 6.92096 34.8314C6.05096 29.4591 4.50982 25.9696 3.61496 21.2751C3.29182 19.4676 3.93811 16.7312 4.18668 16.4802C4.36068 16.2793 4.75839 17.1831 5.40467 17.158C5.40467 17.158 6.39896 15.9028 6.99553 15.6015C7.46781 15.5513 9.23266 16.2291 9.23266 16.2291C9.43152 16.1789 9.70495 15.0994 9.80438 14.5471C10.2518 14.6726 10.9727 14.6977 11.4947 14.4718C12.6629 13.9446 12.6132 13.5429 12.7872 13.5681C13.1352 13.6183 13.4832 14.2961 13.5081 14.7229C13.5081 14.7229 13.5081 15.1747 13.7567 15.0994C14.4527 14.9237 14.9498 14.1203 15.2232 14.1203C15.4966 14.1706 15.7949 14.8986 15.8695 15.4509C15.8695 15.4509 15.9192 15.7772 16.3169 15.6266C16.6649 15.5011 16.8638 15.3756 17.4604 14.9237C17.5349 14.8735 17.6592 14.9237 17.6592 14.999C17.9824 15.6517 18.0072 16.2793 18.3801 16.3044C18.7032 16.3295 19.0015 16.0785 19.1258 15.9279C19.2501 15.8023 19.5732 15.476 19.6975 15.5011C19.8218 15.5513 19.9212 16.3295 20.4681 16.6057C20.7166 16.7312 20.9155 16.5555 21.0646 16.1538C21.1641 15.9028 21.4126 15.6266 21.4872 15.6266C21.5866 15.6517 21.7109 16.0785 22.0341 16.2793C22.3075 16.455 22.6306 16.4802 22.6803 16.3044C22.7798 15.8525 23.1278 15.5262 23.1775 15.6768C23.2769 15.8776 23.4261 15.9781 23.6249 16.1538C23.8735 16.3295 24.0475 16.3546 24.3209 16.3295C25.1909 16.2291 25.7626 15.5513 25.6135 15.4509C24.8181 15.0241 24.5198 14.1455 24.4701 13.5429C24.4949 13.1915 24.4949 12.2626 25.34 11.9112C25.7378 11.7354 26.4089 11.7605 26.732 12.0367C27.0303 12.3128 27.2043 12.5639 27.2043 13.0158C27.2043 13.3672 27.1298 13.7438 26.8066 13.9195C26.5829 14.045 26.1852 14.045 25.9366 13.8693C25.7129 13.6936 25.6383 13.3923 25.4643 13.2668H25.4146C25.2406 13.6936 25.514 14.1706 25.7626 14.4718C26.2349 15.0241 27.0055 14.9739 27.254 14.8233C28.1738 14.4718 28.9195 12.589 29.0935 12.1622C29.4415 11.2836 29.7398 10.3045 30.2369 9.40074C30.6843 8.5974 31.778 7.71875 33.518 7.71875C34.9846 7.71875 36.65 9.04928 36.7246 10.9823C36.7992 12.6141 36.2274 13.2166 35.606 13.9446C35.2083 14.3965 35.1586 14.522 35.3077 14.6475C35.78 14.999 35.9043 15.0743 36.2523 15.476C37.7189 17.2835 38.3652 19.3671 39.1854 21.4759C39.3843 21.978 39.4837 22.5805 39.7323 23.0324C40.8509 24.4884 41.9446 24.9403 42.0937 25.1411C42.1931 25.2667 41.9694 25.2918 41.9694 25.6432C41.9694 25.7436 42.1683 25.9445 42.3671 25.9445C42.4666 25.9445 42.9389 26.0198 42.8643 26.1704C42.566 26.6474 42.4169 26.9738 42.4417 27.275C42.4914 27.6265 42.6654 27.275 43.1377 27.3001C43.262 27.3001 43.2869 27.3754 43.2371 27.4758C42.9637 27.9277 42.914 28.1788 42.8643 28.5051C42.7897 28.7059 42.9886 29.2331 43.4857 29.1327C43.5354 29.1327 43.5851 29.1578 43.5851 29.208C43.5354 29.3587 43.262 29.4842 43.1377 29.9361C42.8643 30.89 43.0383 31.4925 43.8337 32.4214C44.1569 32.798 44.3557 32.798 44.6043 33.0992C43.61 34.003 43.7591 35.2833 43.5851 36.0113C43.5354 36.2372 43.3614 36.2623 43.3614 36.2623L40.2792 36.7393C40.0306 36.7895 39.8317 36.6891 40.13 36.3377C40.8757 35.4339 41.87 34.505 42.392 33.5511C42.3174 33.2247 42.1434 32.8733 41.9197 32.4716C40.9254 30.8147 39.9809 29.2833 39.0363 27.6265C38.4894 26.6725 38.2657 26.7227 38.2657 26.7227C35.9789 26.2959 34.562 25.9194 32.8469 24.8148C32.7226 24.7897 32.7226 24.9403 32.7226 24.9403C32.7226 25.3922 32.6729 26.9738 32.8469 27.2499C33.3937 28.0783 34.5123 28.1788 34.5123 28.1788C34.5123 28.1788 34.6863 28.4549 34.1395 28.9068C34.1395 28.9068 34.04 28.9821 34.0649 29.0825C34.1395 29.3085 34.4377 29.3085 34.6615 29.2582C34.7857 29.2331 34.5869 29.6348 34.1643 30.0114C34.0649 30.1118 34.1892 30.4381 34.3383 30.5135C34.388 30.5386 34.388 30.5637 34.3632 30.6139C34.214 30.7896 33.5926 31.2917 33.6175 31.6432L33.7417 33.7017C33.7417 33.7017 33.7417 33.777 33.7169 33.8021C33.6672 33.8523 33.5677 33.8774 33.5677 33.8774L30.56 34.6306C30.4855 34.6557 30.386 34.6306 30.3115 34.5301C30.2369 34.4297 30.3363 34.254 30.3363 34.254L32.2006 31.4172L32.3 31.2666C32.4243 30.6139 31.8526 30.0114 31.4797 29.5344C30.8335 28.7059 29.8392 27.752 29.8392 27.752C29.2923 27.275 28.8946 25.4926 28.7703 25.0156C28.7206 24.8399 28.5218 24.9152 28.3726 25.0658C27.9749 25.4926 27.6269 25.9696 27.4529 26.2708C27.3038 26.547 27.254 27.2499 27.2789 27.3754C27.3286 27.5763 27.4778 27.9277 28.1986 27.9026C28.124 28.3294 27.9998 28.5553 27.776 28.7562C27.776 28.7562 27.6518 28.8064 27.7263 28.9068C27.95 29.1327 28.2235 29.2833 28.2235 29.2833C28.124 29.5846 27.9998 29.8105 27.8258 30.0114C27.3783 30.5888 27.9998 30.4884 27.9998 30.4884C27.8506 30.89 27.7512 31.1411 27.5523 31.4674C27.0303 32.321 27.4032 33.5762 27.3038 34.2038C27.2789 34.3544 27.1049 34.4799 26.8812 34.505L23.7243 34.6306C23.5255 34.6306 23.5503 34.4046 23.6746 34.2791L25.8372 31.5929C26.0112 31.367 25.8372 31.1913 25.7626 31.0909C25.7626 31.0909 24.3706 29.208 23.9232 27.6767C23.7492 27.0742 23.6001 26.2708 23.6001 26.2708C23.1278 26.321 21.8601 26.4968 21.9346 27.1746C21.8352 27.4758 22.2081 28.5553 22.4566 28.5553C22.4566 28.5553 22.4815 28.8817 22.0589 29.0323C21.5618 29.208 21.0398 29.5846 21.1143 29.7854C21.1889 29.9361 21.4126 30.0114 21.5121 30.0114V30.0365C21.0398 30.6892 20.5675 30.5386 20.1698 30.8649C20.0206 30.9904 19.9958 31.2164 20.4681 31.2164C20.0952 31.618 19.8715 31.5678 19.6229 31.6934C19.6229 31.6934 19.2003 31.844 19.2749 31.9946C19.4986 32.3963 19.5483 32.321 19.3992 32.4967C19.2004 32.7477 19.1258 32.798 18.8026 32.8984C18.5292 32.9737 18.3304 33.1494 18.3304 33.1494C18.1066 33.4005 18.1812 33.6013 18.0321 34.003C17.8084 34.6055 17.4355 35.3837 17.0129 35.8858C17.0129 35.8858 16.9384 35.9862 16.8389 35.9109L14.8504 34.2289C14.6764 34.0783 14.7758 33.8523 14.7758 33.8523C14.9746 33.4256 15.3724 33.3 15.7701 33.049C16.3418 32.6975 16.8638 32.3712 17.3609 31.7938C17.4604 31.6683 17.5101 31.3921 17.5101 31.3921C17.7586 29.8356 18.2309 28.0532 18.5789 26.5219C18.6784 26.0449 18.1564 26.1704 18.1564 26.1704C17.4604 26.2959 16.9135 26.4215 16.3666 26.3712C16.1926 26.3461 16.1429 26.4215 16.0186 26.7729C15.8446 27.1997 15.5712 28.1034 15.8198 28.4549C16.2424 29.0323 16.7395 28.8064 16.7395 28.8817C16.5904 29.4591 16.1181 29.7101 15.9441 29.8356C15.7204 30.0114 15.6706 30.1369 15.6458 30.2373C15.6458 30.3377 15.6706 30.6641 16.1678 30.5888V30.639C16.1678 30.639 15.9938 31.0406 15.5464 31.4172C15.3475 31.5678 15.1238 31.7436 15.0244 31.8691C14.9249 31.9946 14.9249 32.2457 15.2978 32.2457V32.3461C15.2978 32.3461 15.0492 32.9486 14.6018 33.1745C14.4526 33.2498 14.1544 33.526 14.0301 33.8021C13.7318 34.4297 13.3838 36.1619 13.1104 35.9611C12.5635 35.5845 11.2461 34.3544 11.2461 34.3544C11.0969 34.2289 11.0721 34.1285 11.0721 34.1285C10.9975 33.8272 11.6935 33.526 11.9421 33.3C12.3398 32.9486 12.8867 32.6724 12.9861 31.9193C13.1104 30.8147 12.7375 29.8105 12.5884 29.1578C12.4392 28.4549 12.1409 27.1244 12.1907 26.4215C12.2652 26.1955 12.1658 26.1955 12.1658 26.1955ZM28.2483 15.3254C28.1986 15.3756 28.1986 15.4258 28.2732 15.4258C28.9195 15.4258 29.6652 15.0743 30.2866 14.6977C30.8335 14.3463 31.2312 14.045 31.8277 13.2417C31.8277 13.2417 32.1509 13.2919 33.344 13.2417C34.562 13.1664 35.3575 12.3882 35.4072 11.2585C35.4817 9.87772 34.214 8.67271 32.7723 9.04928C31.7532 9.32543 31.4549 10.0786 31.0572 10.7313C30.4109 11.8359 29.6652 13.8191 28.3229 15.25C28.3229 15.2249 28.2732 15.2751 28.2483 15.3254ZM19.1506 15.9028C19.2749 15.7772 19.6229 15.4007 19.7223 15.476C19.9212 15.6517 19.9461 16.3044 20.4929 16.5806" fill="url(#paint0_linear_2685_21381)"/>
<path d="M9.97744 6.94056C10.6237 6.38826 11.1706 5.98659 13.3829 4.8569C13.5817 4.75648 13.184 3.35064 12.9603 2.44689C12.8857 2.12053 12.6371 2.04522 12.5129 2.07032C9.67915 2.79835 7.16859 4.15398 6.62173 3.57658L3.78803 1.41761C3.56431 1.24188 3.31574 1.3925 3.3406 1.69376C3.48974 2.82345 3.61403 3.45106 3.71346 4.15398C3.73831 4.3046 3.71346 4.40502 3.58917 4.40502C2.94289 4.40502 2.32146 4.882 1.9486 5.53471C1.4266 6.46357 0.929463 7.34222 0.0594657 7.769C0.00975155 7.7941 -0.0151055 7.86942 0.00975155 7.91962C0.183751 8.27108 0.506893 8.49702 0.830035 8.59744C1.17803 8.72296 1.35203 8.64765 1.62546 8.77317C1.67518 8.79827 1.70003 8.84848 1.67518 8.89869C1.65032 8.974 1.6006 9.02421 1.57575 9.09953C0.854892 10.4301 1.70003 12.112 0.432322 13.1664C0.382608 13.2166 0.382608 13.317 0.482036 13.3422C1.9486 13.5932 2.39603 12.5388 2.57003 12.7397C2.1226 14.0702 2.34632 14.271 2.07289 15.9781C2.02317 16.3547 1.74975 16.8568 1.97346 16.7814C3.8626 16.2291 4.2106 15.4509 4.33488 15.3254C4.48403 15.1748 4.53374 14.7982 4.95631 15.5011C5.05574 15.6517 5.18002 15.8526 5.25459 15.8024C5.30431 15.8024 5.37888 15.6769 5.40374 15.6266C5.77659 15.0995 6.22402 14.7982 6.74602 14.5723C6.77088 14.5723 6.79573 14.5472 6.82059 14.5472C7.46687 14.6225 8.01373 14.8484 8.7843 15.1497C8.83401 15.1748 8.90859 15.1497 8.93344 15.0995C9.25658 13.9949 8.73459 13.0158 8.73459 12.8652C8.75944 12.7145 8.83401 12.7899 9.08258 13.066C9.6543 13.6434 10.574 13.6936 11.096 13.543C11.3694 13.4677 11.7671 13.2668 11.8914 13.0911C11.9411 13.0158 11.8914 12.9405 11.8169 12.9154C10.2012 12.6894 10.1266 11.0075 9.45544 9.90286C9.40573 9.85266 9.38087 9.75224 9.40573 9.72713L9.90287 9.97818C9.90287 9.97818 12.1649 10.4552 12.2643 10.4803C12.488 10.5054 12.5874 10.2543 12.5874 10.2543C12.6123 10.179 12.7366 9.62672 12.7366 9.14973C12.7366 8.9238 12.488 8.79827 12.3886 8.89869C12.3389 8.9489 12.314 8.99911 12.2643 9.02421C12.2146 9.07442 12.14 9.07442 12.0654 9.04932C11.4937 8.89869 11.2949 8.82338 10.6734 8.57234L9.85315 7.26691C9.80344 7.06608 9.92772 6.99076 9.97744 6.94056ZM7.96402 6.26274C7.61602 6.26274 7.31773 5.96149 7.31773 5.53471C7.31773 5.10794 7.61602 4.80669 7.96402 4.80669C8.36173 4.80669 8.66001 5.10794 8.66001 5.53471C8.66001 5.96149 8.36173 6.26274 7.96402 6.26274Z" fill="url(#paint1_linear_2685_21381)"/>
<path d="M19.522 9.80257L22.1072 7.49298C22.1072 7.49298 22.4303 7.14152 22.8032 7.26704C23.0517 7.34235 23.176 7.5934 23.2257 7.71892C23.2755 7.84444 24.2946 10.0787 24.2946 10.0787C24.2946 10.0787 24.4686 10.4553 24.7669 10.4051C24.7669 10.4051 25.1646 10.3298 25.1646 9.90299L25.0403 7.34235C25.0403 7.34235 25.0154 6.91558 25.264 6.79006C25.4132 6.71475 25.612 6.73985 25.786 6.84027C25.96 6.96579 26.9543 7.74402 26.9543 7.74402C27.6752 8.29632 28.1226 7.81933 28.0232 7.44277C27.9237 7.06621 27.3023 6.26287 27.3023 6.26287C27.3023 6.23776 26.656 5.35911 26.5566 5.18338C26.4572 5.00765 26.3577 4.83192 26.4074 4.65619C26.482 4.45536 26.6312 4.40515 26.6312 4.40515C26.6312 4.40515 26.7554 4.35494 26.9792 4.38005C27.2029 4.43025 27.5509 4.27963 27.3023 3.90306C27.3023 3.90306 26.7803 3.14993 25.6369 2.62274C26.134 3.5265 26.1092 4.60598 25.5126 5.40932C24.6674 6.53902 23.002 6.68964 21.784 5.73568C20.566 4.80682 20.2429 3.12483 21.088 1.99514C21.7095 1.16669 22.7535 0.865442 23.7477 1.14159C23.2009 0.614399 22.7286 0.338252 22.7286 0.338252C21.3366 -0.49019 21.4112 0.463774 21.4112 0.463774C21.4112 0.463774 21.436 0.890547 21.3615 1.01607C21.2869 1.11649 21.2123 1.31732 20.3672 1.16669C19.6215 1.04117 19.5469 1.01607 19.522 1.01607C18.0306 0.714817 17.8318 0.689712 17.6578 1.04117C17.4838 1.44284 18.3538 1.97003 18.3538 1.97003L19.6463 2.74827C19.6463 2.74827 19.8203 2.84868 19.7955 3.02441C19.7955 3.17504 19.7457 3.22525 19.5469 3.32566C19.348 3.42608 16.8375 4.45536 16.8126 4.45536C16.8126 4.45536 16.3652 4.65619 16.6138 5.05786C16.6883 5.15828 16.8623 5.20849 17.1109 5.20849C17.4092 5.20849 19.4972 5.18338 19.4972 5.18338C19.4972 5.18338 19.9446 5.13317 20.1435 5.43443C20.3175 5.68547 20.0937 6.13735 20.0937 6.13735L18.652 9.04945C18.652 9.04945 18.3786 9.57664 18.7266 9.85278C19.0995 10.2042 19.522 9.80257 19.522 9.80257Z" fill="url(#paint2_linear_2685_21381)"/>
<path d="M57.9526 23.1832C57.9526 25.7188 56.2126 27.3756 53.8512 27.3756C52.8321 27.3756 51.9124 27.0242 51.2661 26.2711V30.2375H49.377V19.0912H51.1915V20.1707C51.8378 19.3925 52.7575 19.0159 53.8761 19.0159C56.1878 18.9908 57.9526 20.6477 57.9526 23.1832ZM56.0138 23.1832C56.0138 21.6268 54.9947 20.6226 53.6275 20.6226C52.2604 20.6226 51.2164 21.6268 51.2164 23.1832C51.2164 24.7397 52.2604 25.7439 53.6275 25.7439C54.9947 25.7439 56.0138 24.7397 56.0138 23.1832Z" fill="#009E62"/>
<path d="M59.7422 15.9033H61.6313V27.2756H59.7422V15.9033Z" fill="#009E62"/>
<path d="M71.6983 23.7861H65.3598C65.5835 24.9911 66.5778 25.7443 67.9698 25.7443C68.8895 25.7443 69.5855 25.443 70.1572 24.8656L71.1764 26.0455C70.4555 26.9242 69.3121 27.376 67.9201 27.376C65.2107 27.376 63.4458 25.6187 63.4458 23.1836C63.4458 20.7485 65.2107 18.9912 67.6218 18.9912C69.9832 18.9912 71.7232 20.6732 71.7232 23.2087C71.7232 23.3845 71.7232 23.6104 71.6983 23.7861ZM65.3349 22.5058H69.9335C69.7844 21.3259 68.8895 20.5226 67.6466 20.5226C66.4038 20.5226 65.5089 21.3259 65.3349 22.5058Z" fill="#95B849"/>
<path d="M81.5173 22.5811V27.2756H79.6281V22.8322C79.6281 21.3761 78.9073 20.6732 77.7141 20.6732C76.3718 20.6732 75.4521 21.5016 75.4521 23.1334V27.2756H73.563V19.0916H75.3776V20.146C75.999 19.3929 76.9933 18.9912 78.1615 18.9912C80.0755 18.9912 81.5173 20.1209 81.5173 22.5811Z" fill="url(#paint3_linear_2685_21381)"/>
<path d="M83.6782 16.5806C83.6782 15.9279 84.2002 15.4258 84.8962 15.4258C85.5922 15.4258 86.1142 15.9028 86.1142 16.5304C86.1142 17.2082 85.6171 17.7354 84.8962 17.7354C84.2002 17.7354 83.6782 17.2333 83.6782 16.5806ZM83.9268 19.091H85.8159V27.275H83.9268V19.091Z" fill="url(#paint4_linear_2685_21381)"/>
<path d="M93.1737 26.8238C92.7263 27.2004 92.0303 27.3761 91.3592 27.3761C89.5943 27.3761 88.5752 26.4221 88.5752 24.6146V20.6733H87.2329V19.1419H88.5752V17.2842H90.4643V19.1419H92.6269V20.6733H90.4643V24.5644C90.4643 25.3678 90.862 25.7945 91.5829 25.7945C91.9806 25.7945 92.3535 25.6941 92.6517 25.4682L93.1737 26.8238Z" fill="#009E62"/>
<path d="M102.571 19.0908V27.2748H100.781V26.2455C100.184 26.9987 99.2149 27.4003 98.1709 27.4003C96.0829 27.4003 94.6909 26.2455 94.6909 23.7853V19.1159H96.5801V23.5343C96.5801 25.0154 97.2761 25.7184 98.4692 25.7184C99.7866 25.7184 100.681 24.8899 100.681 23.2581V19.1159H102.571V19.0908Z" fill="#009E62"/>
<path d="M123.053 23.7861H116.715C116.938 24.9911 117.933 25.7443 119.325 25.7443C120.244 25.7443 120.94 25.443 121.512 24.8656L122.531 26.0455C121.81 26.9242 120.667 27.376 119.275 27.376C116.566 27.376 114.801 25.6187 114.801 23.1836C114.801 20.7485 116.566 18.9912 118.977 18.9912C121.338 18.9912 123.078 20.6732 123.078 23.2087C123.078 23.3845 123.078 23.6104 123.053 23.7861ZM116.69 22.5058H121.288C121.139 21.3259 120.244 20.5226 119.002 20.5226C117.759 20.5226 116.864 21.3259 116.69 22.5058Z" fill="#009E62"/>
<path d="M112.985 15.9033V27.2756H111.171V26.2212C110.524 26.9994 109.605 27.376 108.486 27.376C106.125 27.376 104.385 25.7191 104.385 23.1836C104.385 20.648 106.125 18.9911 108.486 18.9911C109.53 18.9911 110.45 19.3426 111.096 20.0957V15.9033H112.985ZM111.121 23.1836C111.121 21.6271 110.077 20.6229 108.71 20.6229C107.343 20.6229 106.299 21.6271 106.299 23.1836C106.299 24.74 107.343 25.7442 108.71 25.7442C110.077 25.7442 111.121 24.74 111.121 23.1836Z" fill="#009E62"/>
<defs>
<linearGradient id="paint0_linear_2685_21381" x1="44.3462" y1="45.448" x2="48.3035" y2="8.74555" gradientUnits="userSpaceOnUse">
<stop stop-color="#009E62"/>
<stop offset="0.2346" stop-color="#009E62"/>
<stop offset="0.6763" stop-color="#95B849"/>
<stop offset="0.7477" stop-color="#A7BC3C"/>
<stop offset="0.8908" stop-color="#D7C51B"/>
<stop offset="0.9987" stop-color="#FFCD00"/>
</linearGradient>
<linearGradient id="paint1_linear_2685_21381" x1="1.81216" y1="19.0216" x2="16.6812" y2="14.8854" gradientUnits="userSpaceOnUse">
<stop stop-color="#009E62"/>
<stop offset="0.5762" stop-color="#95B849"/>
<stop offset="0.9954" stop-color="#D5D625"/>
</linearGradient>
<linearGradient id="paint2_linear_2685_21381" x1="24.3949" y1="12.6635" x2="28.7567" y2="3.35409" gradientUnits="userSpaceOnUse">
<stop stop-color="#95B849"/>
<stop offset="0.00917095" stop-color="#97B848"/>
<stop offset="0.2123" stop-color="#BCC02E"/>
<stop offset="0.4152" stop-color="#D9C61A"/>
<stop offset="0.6154" stop-color="#EECA0C"/>
<stop offset="0.8119" stop-color="#FBCC03"/>
<stop offset="1" stop-color="#FFCD00"/>
</linearGradient>
<linearGradient id="paint3_linear_2685_21381" x1="78.9606" y1="30.5718" x2="84.2328" y2="22.0696" gradientUnits="userSpaceOnUse">
<stop offset="0.000535374" stop-color="#95B849"/>
<stop offset="0.2179" stop-color="#98B947"/>
<stop offset="0.4077" stop-color="#A3BB3F"/>
<stop offset="0.5871" stop-color="#B5BE33"/>
<stop offset="0.7602" stop-color="#CEC322"/>
<stop offset="0.9272" stop-color="#EECA0B"/>
<stop offset="1" stop-color="#FFCD00"/>
</linearGradient>
<linearGradient id="paint4_linear_2685_21381" x1="81.3538" y1="35.0575" x2="87.7639" y2="35.2155" gradientUnits="userSpaceOnUse">
<stop stop-color="#FFCD00"/>
<stop offset="0.0728312" stop-color="#EECA0B"/>
<stop offset="0.2399" stop-color="#CEC322"/>
<stop offset="0.4131" stop-color="#B5BE33"/>
<stop offset="0.5926" stop-color="#A3BB3F"/>
<stop offset="0.7825" stop-color="#98B947"/>
<stop offset="1" stop-color="#95B849"/>
</linearGradient>
</defs>
</svg>
