<svg xmlns="http://www.w3.org/2000/svg" width="139" height="60" viewBox="0 0 139 60" fill="none">
    <g clip-path="url(#clip0_984_27247)">
        <mask id="mask0_984_27247" style="mask-type:luminance" maskUnits="userSpaceOnUse" x="0" y="0" width="139" height="55">
            <path d="M138.096 0H0V54.5399H138.096V0Z" fill="white"/>
        </mask>
        <g mask="url(#mask0_984_27247)">
            <path d="M66.6661 6.19836C66.6661 6.19836 66.5578 6.19836 66.5037 6.19836V10.7185C66.5037 10.7185 66.612 10.7185 66.6661 10.7185C69.8329 10.7185 72.4043 13.2899 72.4043 16.4567C72.4043 19.6236 69.8329 22.1949 66.6661 22.1949C63.4993 22.1949 60.9279 19.6236 60.9279 16.4567C60.9279 16.2673 60.9279 16.1049 60.9279 15.9154H56.4077C56.4077 16.1049 56.4077 16.2673 56.4077 16.4567C56.4077 22.1137 61.0091 26.7151 66.6661 26.7151C72.3231 26.7151 76.9245 22.1137 76.9245 16.4567C76.9245 10.7997 72.3231 6.19836 66.6661 6.19836Z" fill="white"/>
            <path d="M61.6046 13.723C61.7941 13.3982 62.0106 13.0734 62.2542 12.7756L58.4919 10.2313C58.2754 10.5291 58.0588 10.8539 57.8423 11.1787L61.6046 13.723Z" fill="white"/>
            <path d="M62.5245 12.4779C62.741 12.2613 62.9846 12.0448 63.2282 11.8553L60.2238 8.44489C59.9802 8.63435 59.7366 8.85089 59.52 9.06743L62.5245 12.4779Z" fill="white"/>
            <path d="M61.5231 13.9124L57.2465 12.3696C57.057 12.7756 56.9217 13.2087 56.7864 13.6418L60.8194 15.0763L56.5428 14.6703C56.4616 15.2117 56.4074 15.753 56.3804 16.3214L60.9006 16.5921C60.9006 16.5921 60.9006 16.4838 60.9006 16.4297C60.9006 15.5094 61.1171 14.6433 61.496 13.8583" fill="white"/>
            <path d="M63.7966 11.5035C63.9861 11.3952 64.1756 11.314 64.365 11.2328L62.3079 7.19983C62.1185 7.28103 61.929 7.3893 61.7666 7.4705L63.8237 11.5035H63.7966Z" fill="white"/>
            <path d="M65.2041 10.908C65.2041 10.908 65.4748 10.8538 65.6101 10.8268L64.6086 6.41486C64.4733 6.44192 64.338 6.46899 64.2026 6.49606L65.2041 10.908Z" fill="white"/>
            <path d="M10.2854 6.17126H0V18.7033H4.52018V10.6914H10.2854C13.4523 10.6914 16.0507 13.2899 16.0507 16.4567C16.0507 19.6235 13.4793 22.222 10.2854 22.222V26.7422C15.9424 26.7422 20.5709 22.1408 20.5709 16.4567C20.5709 10.7726 15.9695 6.17126 10.2854 6.17126Z" fill="white"/>
            <path d="M52.6725 0H48.1523V26.7422H52.6725V0Z" fill="white"/>
            <path d="M34.2395 26.7422C28.5826 26.7422 23.9541 22.1408 23.9541 16.4567C23.9541 10.7726 28.5555 6.17126 34.2395 6.17126C39.9236 6.17126 44.525 10.7726 44.525 16.4567C44.525 22.1408 39.9236 26.7422 34.2395 26.7422ZM34.2395 10.6914C31.0727 10.6914 28.4743 13.2628 28.4743 16.4567C28.4743 19.6506 31.0456 22.222 34.2395 22.222C37.4334 22.222 40.0048 19.6506 40.0048 16.4567C40.0048 13.2628 37.4334 10.6914 34.2395 10.6914Z" fill="white"/>
            <path d="M98.0907 6.17126C96.0878 6.17126 94.2743 6.95621 92.948 8.25542C91.6217 6.95621 89.8082 6.17126 87.8053 6.17126C83.7182 6.17126 80.416 9.5005 80.416 13.5876V26.7422H84.9362V13.5876C84.9362 11.9907 86.2354 10.7185 87.8053 10.7185C89.3752 10.7185 90.6744 12.0177 90.6744 13.5876V26.7422H95.1946V13.5876C95.1946 11.9907 96.4938 10.7185 98.0637 10.7185C99.6336 10.7185 100.933 12.0177 100.933 13.5876V26.7422H105.453V13.5876C105.453 9.5005 102.124 6.17126 98.0637 6.17126" fill="white"/>
            <path d="M114.195 6.17126H109.675V26.7422H114.195V6.17126Z" fill="white"/>
            <path d="M138.095 6.17126H133.575V26.7422H138.095V6.17126Z" fill="white"/>
            <path d="M129.38 10.6914V6.17127H123.588V0H119.067V19.3258C119.067 23.4129 122.397 26.7422 126.457 26.7422H129.353V22.222H126.457C124.86 22.222 123.588 20.9228 123.588 19.3529V10.7185H129.38V10.6914Z" fill="white"/>
            <path d="M114.195 33.9691H109.675V54.5399H114.195V33.9691Z" fill="white"/>
            <path d="M10.2854 38.4892C8.79672 38.4892 7.44337 39.0576 6.44189 39.9779C7.47044 39.0576 8.82379 38.4892 10.2854 38.4892Z" fill="white"/>
            <path d="M13.1274 39.2471C14.2101 39.8696 15.0763 40.844 15.5635 41.9808C15.0763 40.817 14.2101 39.8696 13.1274 39.2471Z" fill="white"/>
            <path d="M20.3273 41.9809C19.2987 37.4066 15.1846 33.9691 10.2854 33.9691C5.38633 33.9691 1.27215 37.4066 0.243603 41.9809C0.0812009 42.7117 0 43.4696 0 44.2545C0 45.0394 0.0812009 45.7973 0.243603 46.5281C1.27215 51.1024 5.38633 54.5399 10.2854 54.5399V50.0198C7.90355 50.0198 5.87353 48.5852 4.98032 46.5281H20.3002C20.4626 45.7973 20.5438 45.0394 20.5438 44.2545C20.5438 43.4696 20.4626 42.7117 20.3002 41.9809M15.5906 41.9809H4.98032C5.19686 41.4666 5.49459 40.9794 5.84646 40.5734C6.03593 40.3569 6.2254 40.1674 6.41487 39.9779C7.44341 39.0576 8.79676 38.4892 10.2584 38.4892C10.8539 38.4892 11.4223 38.5704 11.9636 38.7599C12.3696 38.8952 12.7485 39.0576 13.1004 39.2471C14.1831 39.8697 15.0492 40.817 15.5364 41.9809" fill="white"/>
            <path d="M10.2856 38.4892C10.8811 38.4892 11.4495 38.5704 11.9909 38.7599C11.4495 38.5975 10.8811 38.4892 10.2856 38.4892Z" fill="white"/>
            <path d="M4.98047 41.9808C5.197 41.4666 5.49474 40.9794 5.84661 40.5734C5.49474 41.0064 5.197 41.4666 4.98047 41.9808Z" fill="white"/>
            <path d="M55.7036 39.1659C55.7036 39.1659 55.8119 39.1118 55.866 39.0847C55.8119 39.1118 55.7577 39.1389 55.7036 39.1659Z" fill="white"/>
            <path d="M56.5698 38.814C56.5698 38.814 56.651 38.787 56.7052 38.7599C56.651 38.7599 56.624 38.787 56.5698 38.814Z" fill="white"/>
            <path d="M57.6255 38.5434C57.6255 38.5434 57.815 38.5434 57.9232 38.5163C57.815 38.5163 57.7338 38.5163 57.6255 38.5434Z" fill="white"/>
            <path d="M57.1382 38.6245C57.1382 38.6245 57.3818 38.5704 57.5171 38.5433C57.3818 38.5433 57.2735 38.5975 57.1382 38.6245Z" fill="white"/>
            <path d="M53.5928 41.1147C53.5928 41.1147 53.6469 41.0335 53.674 41.0065C53.6469 41.0335 53.6198 41.0877 53.5928 41.1147Z" fill="white"/>
            <path d="M54.6211 39.9509C54.6211 39.9509 54.7023 39.8697 54.7564 39.8426C54.7023 39.8697 54.6752 39.9238 54.6211 39.9509Z" fill="white"/>
            <path d="M55.3247 39.4095C55.3247 39.4095 55.433 39.3553 55.4871 39.3012C55.433 39.3283 55.3788 39.3553 55.3247 39.4095Z" fill="white"/>
            <path d="M54.2964 40.2486C54.2964 40.2486 54.3776 40.1945 54.4047 40.1403C54.3776 40.1674 54.3235 40.1945 54.2964 40.2486Z" fill="white"/>
            <path d="M56.1099 38.9764C56.1099 38.9764 56.2181 38.9223 56.2723 38.8952C56.2181 38.8952 56.164 38.9493 56.1099 38.9764Z" fill="white"/>
            <path d="M59.8179 38.6516C60.0615 38.7057 60.3051 38.7869 60.5487 38.8681C60.3051 38.7869 60.0885 38.7057 59.8179 38.6516Z" fill="white"/>
            <path d="M61.6317 39.4636C61.3881 39.3012 61.1715 39.1659 60.9009 39.0576C61.3881 39.3012 61.8753 39.626 62.2813 39.9779C62.0648 39.7884 61.8753 39.626 61.6317 39.4636Z" fill="white"/>
            <path d="M62.2812 39.9779C62.4978 40.1674 62.6873 40.3568 62.8497 40.5734C62.6602 40.3568 62.4707 40.1674 62.2812 39.9779Z" fill="white"/>
            <path d="M68.4523 41.9809C67.4237 37.4066 63.3096 33.9691 58.4104 33.9691C53.5113 33.9691 49.4242 37.4066 48.3686 41.9809C48.2062 42.7117 48.125 43.4696 48.125 44.2545C48.125 45.0394 48.2062 45.7973 48.3686 46.5281C49.3971 51.1024 53.5113 54.5399 58.4104 54.5399V50.0198C56.0286 50.0198 53.9985 48.5852 53.1053 46.5281H68.4252C68.5876 45.7973 68.6688 45.0394 68.6688 44.2545C68.6688 43.4696 68.5876 42.7117 68.4252 41.9809M53.1324 41.9809C53.1324 41.9809 53.2407 41.7373 53.3219 41.6019C53.4031 41.4395 53.5113 41.2771 53.5925 41.1147C53.5925 41.0877 53.6467 41.0335 53.6737 41.0065C53.782 40.8441 53.8903 40.7087 53.9985 40.5734C54.0797 40.4651 54.188 40.3569 54.2963 40.2486C54.3233 40.2215 54.3504 40.1945 54.4045 40.1403C54.4857 40.0591 54.5399 40.005 54.6211 39.9238C54.6752 39.8967 54.7023 39.8426 54.7564 39.8155C54.8376 39.7614 54.8917 39.7072 54.9729 39.6531L55.1083 39.5448C55.1083 39.5448 55.2436 39.4366 55.3248 39.3824C55.3789 39.3554 55.4331 39.3283 55.4872 39.2742C55.5684 39.22 55.6496 39.193 55.7308 39.1388C55.7849 39.1118 55.8391 39.0847 55.8932 39.0576C55.9744 39.0306 56.0556 38.9764 56.1368 38.9494C56.191 38.9494 56.2451 38.8952 56.2992 38.8682C56.4075 38.8411 56.4887 38.787 56.597 38.7599C56.6511 38.7599 56.6782 38.7328 56.7323 38.7058C56.8676 38.6516 57.03 38.6246 57.1654 38.5975C57.1654 38.5975 57.409 38.5434 57.5443 38.5163C57.5714 38.5163 57.6255 38.5163 57.6526 38.5163C57.7608 38.5163 57.842 38.5163 57.9503 38.4892C58.0044 38.4892 58.0315 38.4892 58.0586 38.4892C58.1939 38.4892 58.3292 38.4892 58.4646 38.4892C58.5999 38.4892 58.7623 38.4892 58.8976 38.4892C59.2225 38.4892 59.5202 38.5704 59.845 38.6516C60.0886 38.7058 60.3322 38.787 60.5758 38.8682C60.7111 38.9223 60.8465 38.9764 60.9547 39.0306C61.1983 39.1388 61.4419 39.3012 61.6855 39.4366C62.1457 39.7343 62.5517 40.1133 62.9036 40.5463C63.093 40.7629 63.2284 40.9794 63.3908 41.223C63.5261 41.4666 63.6614 41.7102 63.7697 41.9538H53.1865L53.1324 41.9809Z" fill="white"/>
            <path d="M53.6738 41.0064C53.7821 40.844 53.8904 40.7087 53.9986 40.5734C53.8904 40.7087 53.7821 40.8711 53.6738 41.0064Z" fill="white"/>
            <path d="M54.7563 39.8155C54.7563 39.8155 54.8917 39.7072 54.9729 39.6531C54.8917 39.7072 54.8375 39.7613 54.7563 39.8155Z" fill="white"/>
            <path d="M53.3218 41.6019C53.403 41.4395 53.5112 41.2771 53.5924 41.1147C53.4842 41.2771 53.403 41.4395 53.3218 41.6019Z" fill="white"/>
            <path d="M53.9985 40.5734C53.9985 40.5734 54.188 40.3569 54.2963 40.2486C54.188 40.3569 54.1068 40.4651 53.9985 40.5734Z" fill="white"/>
            <path d="M54.4048 40.1403C54.4048 40.1403 54.5401 40.0049 54.6213 39.9508C54.5401 40.0049 54.486 40.0861 54.4048 40.1403Z" fill="white"/>
            <path d="M56.272 38.8952C56.272 38.8952 56.4614 38.814 56.5426 38.7869C56.4344 38.814 56.3532 38.8411 56.272 38.8952Z" fill="white"/>
            <path d="M56.7051 38.7599C56.8404 38.7057 57.0028 38.6787 57.1381 38.6516C57.0028 38.6787 56.8404 38.7328 56.7051 38.7599Z" fill="white"/>
            <path d="M58.8706 38.5163C59.1954 38.5163 59.4931 38.5975 59.818 38.6787C59.5202 38.5975 59.1954 38.5434 58.8706 38.5163Z" fill="white"/>
            <path d="M55.1084 39.5448C55.1084 39.5448 55.2437 39.4366 55.3249 39.4095C55.2437 39.4636 55.1896 39.5178 55.1084 39.5448Z" fill="white"/>
            <path d="M55.4873 39.3012C55.4873 39.3012 55.6497 39.22 55.7309 39.1659C55.6497 39.193 55.5685 39.2471 55.4873 39.3012Z" fill="white"/>
            <path d="M55.8662 39.0847C55.8662 39.0847 56.0286 39.0035 56.1098 38.9764C56.0286 39.0035 55.9474 39.0576 55.8662 39.0847Z" fill="white"/>
            <path d="M62.8496 40.5734C63.0391 40.7899 63.1744 41.0064 63.3368 41.25C63.2015 41.0064 63.0391 40.7899 62.8496 40.5734Z" fill="white"/>
            <path d="M62.8494 40.5734C62.4975 40.1403 62.0915 39.7884 61.6313 39.4636C61.875 39.626 62.0915 39.7884 62.281 39.9779C62.4975 40.1674 62.687 40.3568 62.8494 40.5734Z" fill="white"/>
            <path d="M76.7619 54.5399H72.2417V41.3854C72.2417 37.2983 75.5709 33.9691 79.658 33.9691H82.5271V38.4892H79.658C78.0611 38.4892 76.7889 39.7885 76.7889 41.3583V54.5129L76.7619 54.5399Z" fill="white"/>
            <path d="M105.236 41.9808H95.1946V46.501H100.5C99.6336 48.5581 97.5765 49.9927 95.1946 49.9927C92.0278 49.9927 89.4294 47.4213 89.4294 44.2274C89.4294 41.0335 92.0007 38.4621 95.1946 38.4621V33.942C89.5376 33.942 84.9092 38.5433 84.9092 44.2274C84.9092 49.9115 89.5106 54.5128 95.1946 54.5128C100.094 54.5128 104.181 51.0753 105.236 46.501C105.399 45.7702 105.48 45.0123 105.48 44.2274C105.48 43.4425 105.399 42.7117 105.236 41.9538" fill="white"/>
            <path d="M138.096 44.2545C138.096 38.5704 133.494 33.9691 127.81 33.9691C122.126 33.9691 117.525 38.5704 117.525 44.2545C117.525 49.9386 122.126 54.5399 127.81 54.5399C129.949 54.5399 131.925 53.8903 133.576 52.7806V54.5399H138.096V44.2545ZM127.837 49.9927C124.671 49.9927 122.072 47.4213 122.072 44.2274C122.072 41.0335 124.644 38.4622 127.837 38.4622C131.031 38.4622 133.603 41.0606 133.603 44.2274C133.603 47.3943 131.031 49.9927 127.837 49.9927Z" fill="white"/>
            <path d="M44.525 54.5399H40.0048V44.2545C40.0048 41.0877 37.4334 38.4892 34.2395 38.4892C31.0456 38.4892 28.4743 41.0606 28.4743 44.2545V54.5399H23.9541V44.2545C23.9541 38.5975 28.5555 33.9691 34.2395 33.9691C39.9236 33.9691 44.525 38.5704 44.525 44.2545V54.5399Z" fill="white"/>
            <path d="M10.2854 6.17126H0V18.7033H4.52018V10.6914H10.2854C13.4523 10.6914 16.0507 13.2899 16.0507 16.4567C16.0507 19.6235 13.4793 22.222 10.2854 22.222V26.7422C15.9424 26.7422 20.5709 22.1408 20.5709 16.4567C20.5709 10.7726 15.9695 6.17126 10.2854 6.17126Z" fill="white"/>
            <path d="M52.6725 0H48.1523V26.7422H52.6725V0Z" fill="white"/>
            <path d="M34.2395 26.7422C28.5826 26.7422 23.9541 22.1408 23.9541 16.4567C23.9541 10.7726 28.5555 6.17126 34.2395 6.17126C39.9236 6.17126 44.525 10.7726 44.525 16.4567C44.525 22.1408 39.9236 26.7422 34.2395 26.7422ZM34.2395 10.6914C31.0727 10.6914 28.4743 13.2628 28.4743 16.4567C28.4743 19.6506 31.0456 22.222 34.2395 22.222C37.4334 22.222 40.0048 19.6506 40.0048 16.4567C40.0048 13.2628 37.4334 10.6914 34.2395 10.6914Z" fill="white"/>
            <path d="M98.0907 6.17126C96.0878 6.17126 94.2743 6.95621 92.948 8.25542C91.6217 6.95621 89.8082 6.17126 87.8053 6.17126C83.7182 6.17126 80.416 9.5005 80.416 13.5876V26.7422H84.9362V13.5876C84.9362 11.9907 86.2354 10.7185 87.8053 10.7185C89.3752 10.7185 90.6744 12.0177 90.6744 13.5876V26.7422H95.1946V13.5876C95.1946 11.9907 96.4938 10.7185 98.0637 10.7185C99.6336 10.7185 100.933 12.0177 100.933 13.5876V26.7422H105.453V13.5876C105.453 9.5005 102.124 6.17126 98.0637 6.17126" fill="white"/>
            <path d="M114.195 6.17126H109.675V26.7422H114.195V6.17126Z" fill="white"/>
            <path d="M138.095 6.17126H133.575V26.7422H138.095V6.17126Z" fill="white"/>
            <path d="M129.38 10.6914V6.17127H123.588V0H119.067V19.3258C119.067 23.4129 122.397 26.7422 126.457 26.7422H129.353V22.222H126.457C124.86 22.222 123.588 20.9228 123.588 19.3529V10.7185H129.38V10.6914Z" fill="white"/>
            <path d="M114.195 33.9691H109.675V54.5399H114.195V33.9691Z" fill="white"/>
            <path d="M10.2854 38.4892C8.79672 38.4892 7.44337 39.0576 6.44189 39.9779C7.47044 39.0576 8.82379 38.4892 10.2854 38.4892Z" fill="white"/>
            <path d="M13.1274 39.2471C14.2101 39.8696 15.0763 40.844 15.5635 41.9808C15.0763 40.817 14.2101 39.8696 13.1274 39.2471Z" fill="white"/>
            <path d="M20.3273 41.9809C19.2987 37.4066 15.1846 33.9691 10.2854 33.9691C5.38633 33.9691 1.27215 37.4066 0.243603 41.9809C0.0812009 42.7117 0 43.4696 0 44.2545C0 45.0394 0.0812009 45.7973 0.243603 46.5281C1.27215 51.1024 5.38633 54.5399 10.2854 54.5399V50.0198C7.90355 50.0198 5.87353 48.5852 4.98032 46.5281H20.3002C20.4626 45.7973 20.5438 45.0394 20.5438 44.2545C20.5438 43.4696 20.4626 42.7117 20.3002 41.9809M15.5906 41.9809H4.98032C5.19686 41.4666 5.49459 40.9794 5.84646 40.5734C6.03593 40.3569 6.2254 40.1674 6.41487 39.9779C7.44341 39.0576 8.79676 38.4892 10.2584 38.4892C10.8539 38.4892 11.4223 38.5704 11.9636 38.7599C12.3696 38.8952 12.7485 39.0576 13.1004 39.2471C14.1831 39.8697 15.0492 40.817 15.5364 41.9809" fill="white"/>
            <path d="M10.2856 38.4892C10.8811 38.4892 11.4495 38.5704 11.9909 38.7599C11.4495 38.5975 10.8811 38.4892 10.2856 38.4892Z" fill="white"/>
            <path d="M4.98047 41.9808C5.197 41.4666 5.49474 40.9794 5.84661 40.5734C5.49474 41.0064 5.197 41.4666 4.98047 41.9808Z" fill="white"/>
            <path d="M55.7036 39.1659C55.7036 39.1659 55.8119 39.1118 55.866 39.0847C55.8119 39.1118 55.7577 39.1389 55.7036 39.1659Z" fill="white"/>
            <path d="M56.5698 38.814C56.5698 38.814 56.651 38.787 56.7052 38.7599C56.651 38.7599 56.624 38.787 56.5698 38.814Z" fill="white"/>
            <path d="M57.6255 38.5434C57.6255 38.5434 57.815 38.5434 57.9232 38.5163C57.815 38.5163 57.7338 38.5163 57.6255 38.5434Z" fill="white"/>
            <path d="M57.1382 38.6245C57.1382 38.6245 57.3818 38.5704 57.5171 38.5433C57.3818 38.5433 57.2735 38.5975 57.1382 38.6245Z" fill="white"/>
            <path d="M53.5928 41.1147C53.5928 41.1147 53.6469 41.0335 53.674 41.0065C53.6469 41.0335 53.6198 41.0877 53.5928 41.1147Z" fill="white"/>
            <path d="M54.6211 39.9509C54.6211 39.9509 54.7023 39.8697 54.7564 39.8426C54.7023 39.8697 54.6752 39.9238 54.6211 39.9509Z" fill="white"/>
            <path d="M55.3247 39.4095C55.3247 39.4095 55.433 39.3553 55.4871 39.3012C55.433 39.3283 55.3788 39.3553 55.3247 39.4095Z" fill="white"/>
            <path d="M54.2964 40.2486C54.2964 40.2486 54.3776 40.1945 54.4047 40.1403C54.3776 40.1674 54.3235 40.1945 54.2964 40.2486Z" fill="white"/>
            <path d="M56.1099 38.9764C56.1099 38.9764 56.2181 38.9223 56.2723 38.8952C56.2181 38.8952 56.164 38.9493 56.1099 38.9764Z" fill="white"/>
            <path d="M59.8179 38.6516C60.0615 38.7057 60.3051 38.7869 60.5487 38.8681C60.3051 38.7869 60.0885 38.7057 59.8179 38.6516Z" fill="white"/>
            <path d="M61.6317 39.4636C61.3881 39.3012 61.1715 39.1659 60.9009 39.0576C61.3881 39.3012 61.8753 39.626 62.2813 39.9779C62.0648 39.7884 61.8753 39.626 61.6317 39.4636Z" fill="white"/>
            <path d="M62.2812 39.9779C62.4978 40.1674 62.6873 40.3568 62.8497 40.5734C62.6602 40.3568 62.4707 40.1674 62.2812 39.9779Z" fill="white"/>
            <path d="M68.4523 41.9809C67.4237 37.4066 63.3096 33.9691 58.4104 33.9691C53.5113 33.9691 49.4242 37.4066 48.3686 41.9809C48.2062 42.7117 48.125 43.4696 48.125 44.2545C48.125 45.0394 48.2062 45.7973 48.3686 46.5281C49.3971 51.1024 53.5113 54.5399 58.4104 54.5399V50.0198C56.0286 50.0198 53.9985 48.5852 53.1053 46.5281H68.4252C68.5876 45.7973 68.6688 45.0394 68.6688 44.2545C68.6688 43.4696 68.5876 42.7117 68.4252 41.9809M53.1324 41.9809C53.1324 41.9809 53.2407 41.7373 53.3219 41.6019C53.4031 41.4395 53.5113 41.2771 53.5925 41.1147C53.5925 41.0877 53.6467 41.0335 53.6737 41.0065C53.782 40.8441 53.8903 40.7087 53.9985 40.5734C54.0797 40.4651 54.188 40.3569 54.2963 40.2486C54.3233 40.2215 54.3504 40.1945 54.4045 40.1403C54.4857 40.0591 54.5399 40.005 54.6211 39.9238C54.6752 39.8967 54.7023 39.8426 54.7564 39.8155C54.8376 39.7614 54.8917 39.7072 54.9729 39.6531L55.1083 39.5448C55.1083 39.5448 55.2436 39.4366 55.3248 39.3824C55.3789 39.3554 55.4331 39.3283 55.4872 39.2742C55.5684 39.22 55.6496 39.193 55.7308 39.1388C55.7849 39.1118 55.8391 39.0847 55.8932 39.0576C55.9744 39.0306 56.0556 38.9764 56.1368 38.9494C56.191 38.9494 56.2451 38.8952 56.2992 38.8682C56.4075 38.8411 56.4887 38.787 56.597 38.7599C56.6511 38.7599 56.6782 38.7328 56.7323 38.7058C56.8676 38.6516 57.03 38.6246 57.1654 38.5975C57.1654 38.5975 57.409 38.5434 57.5443 38.5163C57.5714 38.5163 57.6255 38.5163 57.6526 38.5163C57.7608 38.5163 57.842 38.5163 57.9503 38.4892C58.0044 38.4892 58.0315 38.4892 58.0586 38.4892C58.1939 38.4892 58.3292 38.4892 58.4646 38.4892C58.5999 38.4892 58.7623 38.4892 58.8976 38.4892C59.2225 38.4892 59.5202 38.5704 59.845 38.6516C60.0886 38.7058 60.3322 38.787 60.5758 38.8682C60.7111 38.9223 60.8465 38.9764 60.9547 39.0306C61.1983 39.1388 61.4419 39.3012 61.6855 39.4366C62.1457 39.7343 62.5517 40.1133 62.9036 40.5463C63.093 40.7629 63.2284 40.9794 63.3908 41.223C63.5261 41.4666 63.6614 41.7102 63.7697 41.9538H53.1865L53.1324 41.9809Z" fill="white"/>
            <path d="M53.6738 41.0064C53.7821 40.844 53.8904 40.7087 53.9986 40.5734C53.8904 40.7087 53.7821 40.8711 53.6738 41.0064Z" fill="white"/>
            <path d="M54.7563 39.8155C54.7563 39.8155 54.8917 39.7072 54.9729 39.6531C54.8917 39.7072 54.8375 39.7613 54.7563 39.8155Z" fill="white"/>
            <path d="M53.3218 41.6019C53.403 41.4395 53.5112 41.2771 53.5924 41.1147C53.4842 41.2771 53.403 41.4395 53.3218 41.6019Z" fill="white"/>
            <path d="M53.9985 40.5734C53.9985 40.5734 54.188 40.3569 54.2963 40.2486C54.188 40.3569 54.1068 40.4651 53.9985 40.5734Z" fill="white"/>
            <path d="M54.4048 40.1403C54.4048 40.1403 54.5401 40.0049 54.6213 39.9508C54.5401 40.0049 54.486 40.0861 54.4048 40.1403Z" fill="white"/>
            <path d="M56.272 38.8952C56.272 38.8952 56.4614 38.814 56.5426 38.7869C56.4344 38.814 56.3532 38.8411 56.272 38.8952Z" fill="white"/>
            <path d="M56.7051 38.7599C56.8404 38.7057 57.0028 38.6787 57.1381 38.6516C57.0028 38.6787 56.8404 38.7328 56.7051 38.7599Z" fill="white"/>
            <path d="M58.8706 38.5163C59.1954 38.5163 59.4931 38.5975 59.818 38.6787C59.5202 38.5975 59.1954 38.5434 58.8706 38.5163Z" fill="white"/>
            <path d="M55.1084 39.5448C55.1084 39.5448 55.2437 39.4366 55.3249 39.4095C55.2437 39.4636 55.1896 39.5178 55.1084 39.5448Z" fill="white"/>
            <path d="M55.4873 39.3012C55.4873 39.3012 55.6497 39.22 55.7309 39.1659C55.6497 39.193 55.5685 39.2471 55.4873 39.3012Z" fill="white"/>
            <path d="M55.8662 39.0847C55.8662 39.0847 56.0286 39.0035 56.1098 38.9764C56.0286 39.0035 55.9474 39.0576 55.8662 39.0847Z" fill="white"/>
            <path d="M62.8496 40.5734C63.0391 40.7899 63.1744 41.0064 63.3368 41.25C63.2015 41.0064 63.0391 40.7899 62.8496 40.5734Z" fill="white"/>
            <path d="M62.8494 40.5734C62.4975 40.1403 62.0915 39.7884 61.6313 39.4636C61.875 39.626 62.0915 39.7884 62.281 39.9779C62.4975 40.1674 62.687 40.3568 62.8494 40.5734Z" fill="white"/>
            <path d="M76.7619 54.5399H72.2417V41.3854C72.2417 37.2983 75.5709 33.9691 79.658 33.9691H82.5271V38.4892H79.658C78.0611 38.4892 76.7889 39.7885 76.7889 41.3583V54.5129L76.7619 54.5399Z" fill="white"/>
            <path d="M105.236 41.9808H95.1946V46.501H100.5C99.6336 48.5581 97.5765 49.9927 95.1946 49.9927C92.0278 49.9927 89.4294 47.4213 89.4294 44.2274C89.4294 41.0335 92.0007 38.4621 95.1946 38.4621V33.942C89.5376 33.942 84.9092 38.5433 84.9092 44.2274C84.9092 49.9115 89.5106 54.5128 95.1946 54.5128C100.094 54.5128 104.181 51.0753 105.236 46.501C105.399 45.7702 105.48 45.0123 105.48 44.2274C105.48 43.4425 105.399 42.7117 105.236 41.9538" fill="white"/>
            <path d="M138.096 44.2545C138.096 38.5704 133.494 33.9691 127.81 33.9691C122.126 33.9691 117.525 38.5704 117.525 44.2545C117.525 49.9386 122.126 54.5399 127.81 54.5399C129.949 54.5399 131.925 53.8903 133.576 52.7806V54.5399H138.096V44.2545ZM127.837 49.9927C124.671 49.9927 122.072 47.4213 122.072 44.2274C122.072 41.0335 124.644 38.4622 127.837 38.4622C131.031 38.4622 133.603 41.0606 133.603 44.2274C133.603 47.3943 131.031 49.9927 127.837 49.9927Z" fill="white"/>
            <path d="M44.525 54.5399H40.0048V44.2545C40.0048 41.0877 37.4334 38.4892 34.2395 38.4892C31.0456 38.4892 28.4743 41.0606 28.4743 44.2545V54.5399H23.9541V44.2545C23.9541 38.5975 28.5555 33.9691 34.2395 33.9691C39.9236 33.9691 44.525 38.5704 44.525 44.2545V54.5399Z" fill="white"/>
        </g>
    </g>
    <defs>
        <clipPath id="clip0_984_27247">
            <rect width="138.042" height="59.5473" fill="white"/>
        </clipPath>
    </defs>
</svg>