<svg xmlns="http://www.w3.org/2000/svg" width="176" height="40" viewBox="0 0 176 40">
    <g fill="none" fill-rule="evenodd">
        <g fill="#FFF" fill-rule="nonzero">
            <g>
                <path d="M162.572.232c7.336 0 13.286 6.175 13.32 13.806.002.01 0 .021 0 .033l.002.033c-.036 7.63-5.986 13.804-13.322 13.804-7.104 0-12.907-5.789-13.3-13.083-.392 7.294-6.195 13.083-13.298 13.083-7.221 0-13.095-5.982-13.31-13.446v25.442h-6.505V4.228h6.505v9.452c.215-7.464 6.089-13.448 13.31-13.448 7.103 0 12.907 5.79 13.299 13.084.392-7.294 6.195-13.084 13.299-13.084zM95.4 18.677c1.032 0 1.464.614 1.464.614h.02v-.072c0-.144.157-.42.54-.42h1.534v1.484h-.354c-.128 0-.216.072-.216.195v3.111c0 1.924-1.475 2.63-2.86 2.63-.679 0-1.426-.205-1.917-.47l.491-1.382s.62.338 1.416.338c.61 0 1.17-.236 1.17-1.013v-.082c0-.062.01-.195.01-.195h-.02c-.295.338-.679.502-1.268.502-1.524 0-2.28-1.3-2.28-2.651 0-1.34.736-2.59 2.27-2.59zm-20.883 0c.707 0 1.867.286 1.867 1.238v.726h-1.474v-.276c0-.164-.187-.225-.393-.225-.718 0-1.15.563-1.15 1.27 0 .9.648 1.258 1.278 1.258s1.216-.515 1.361-.653l.034-.033.679 1.187s-.797 1.024-2.241 1.024c-1.809 0-2.821-1.31-2.821-2.764 0-1.392.943-2.752 2.86-2.752zm5.051 0c1.494 0 2.34 1.084 2.34 2.548 0 .174-.04.532-.04.532h-3.195c.128.665.64.962 1.18.962.727 0 1.347-.553 1.347-.553l.678 1.188s-.816.839-2.162.839c-1.81 0-2.782-1.362-2.782-2.764 0-1.545 1.002-2.752 2.634-2.752zm8.098 0c1.494 0 2.339 1.084 2.339 2.548 0 .174-.04.532-.04.532h-3.194c.128.665.639.962 1.18.962.727 0 1.346-.553 1.346-.553l.679 1.188s-.816.839-2.163.839c-1.808 0-2.781-1.362-2.781-2.764 0-1.545 1.002-2.752 2.634-2.752zm14.023 0c1.77 0 2.35.941 2.35 2.149v1.535c0 .143.078.225.216.225h.373v1.484h-1.474c-.491 0-.668-.317-.668-.553v-.092h-.02s-.354.768-1.415.768c-.944 0-1.72-.655-1.72-1.699 0-1.566 2.152-1.74 2.938-1.74h.07v-.062c0-.501-.227-.685-.65-.685-.216 0-.442.05-.442.256v.235h-1.572v-.583c0-1.177 1.435-1.238 2.014-1.238zm5.475 0c.825 0 1.965.245 1.965 1.197v.624h-1.474v-.256c0-.143-.217-.246-.462-.246-.236 0-.452.083-.452.246 0 .543 2.565.47 2.565 2.242 0 1.064-.894 1.709-2.074 1.709-1.454 0-2.24-.962-2.24-.962l.756-1.136s.708.757 1.484.757c.246 0 .384-.072.384-.256 0-.44-2.536-.584-2.536-2.292 0-1.136 1.012-1.627 2.084-1.627zm-40.46.122c.502 0 .718.225.718.747v2.344c0 .49.186.696.54.696.727 0 1.071-.666 1.071-1.454V18.8h1.7v3.561c0 .143.08.226.217.226h.373v1.484h-1.503c-.462 0-.718-.236-.718-.594v-.072c0-.051.01-.123.01-.123h-.02c-.275.563-.894.911-1.572.911-1.003 0-1.799-.49-1.799-1.975v-1.709c0-.143-.078-.225-.216-.225h-.373v-1.484h1.572zm-3.115-2.047c.501 0 .717.226.717.748v4.86c0 .144.079.226.216.226h.374v1.484h-1.573c-.5 0-.717-.225-.717-.747v-4.861c0-.144-.079-.226-.216-.226h-.374v-1.484h1.573zm38.769 5.076h-.158c-.54 0-1.16.154-1.16.573 0 .246.148.441.482.441.443 0 .836-.502.836-.931v-.083zm-6.614-1.678c-.6 0-.904.45-.904 1.054 0 .655.294 1.238.973 1.238.442 0 .914-.235.914-1.156 0-.931-.472-1.136-.983-1.136zm40.229-13.145c-3.755 0-6.8 3.16-6.817 7.066.017 3.905 3.062 7.065 6.816 7.065l.235-.004c3.646-.128 6.566-3.237 6.583-7.061-.017-3.905-3.062-7.066-6.817-7.066zm26.598 0c-3.755 0-6.8 3.16-6.817 7.066.017 3.905 3.062 7.065 6.816 7.065l.235-.004c3.646-.128 6.566-3.237 6.583-7.061-.017-3.905-3.062-7.066-6.817-7.066zM87.667 20.007c-.492 0-.738.287-.846.675h1.445c0-.327-.245-.675-.6-.675zm-8.098 0c-.492 0-.737.287-.845.675h1.444c0-.327-.245-.675-.599-.675zM5.816 3.862c2.19 0 3.628 1.79 3.628 4.396 0 2.653-1.61 4.38-3.753 4.38-1.313 0-2.048-.717-2.048-.717h-.031s.031.293.031.716v3.06H.938v-8.92c0-.229-.125-.359-.344-.359H0v-2.36h2.33c.781 0 1.047.374 1.047.732v.146h.032s.703-1.074 2.407-1.074zm30.566 0c2.814 0 3.737 1.498 3.737 3.419v2.442c0 .228.125.358.344.358h.594v2.361h-2.345c-.782 0-1.063-.505-1.063-.879v-.146h-.032s-.562 1.22-2.251 1.22c-1.501 0-2.736-1.041-2.736-2.702 0-2.491 3.423-2.768 4.674-2.768h.11v-.098c0-.798-.36-1.09-1.032-1.09-.344 0-.704.08-.704.406v.375h-2.502v-.928c0-1.872 2.283-1.97 3.206-1.97zm-21.794 0c2.548 0 4.565 1.775 4.565 4.412 0 2.621-2.017 4.363-4.55 4.363s-4.55-1.742-4.55-4.363c0-2.637 2.017-4.412 4.535-4.412zm90.944 0c2.377 0 3.721 1.726 3.721 4.054 0 .276-.062.846-.062.846h-5.082c.203 1.059 1.016 1.53 1.876 1.53 1.157 0 2.142-.878 2.142-.878l1.08 1.888s-1.299 1.335-3.44 1.335c-2.878 0-4.426-2.165-4.426-4.396 0-2.458 1.595-4.38 4.19-4.38zm-21.481 0c2.376 0 3.721 1.726 3.721 4.054 0 .276-.063.846-.063.846h-5.081c.203 1.059 1.016 1.53 1.876 1.53 1.157 0 2.142-.878 2.142-.878l1.08 1.888s-1.299 1.335-3.44 1.335c-2.878 0-4.426-2.165-4.426-4.396 0-2.458 1.595-4.38 4.19-4.38zm-20.466 0c2.55 0 4.566 1.774 4.566 4.412 0 2.621-2.017 4.363-4.55 4.363s-4.55-1.742-4.55-4.363c0-2.638 2.017-4.412 4.534-4.412zm-13.226 0c2.376 0 3.721 1.726 3.721 4.054 0 .276-.062.846-.062.846h-5.082c.203 1.059 1.016 1.531 1.876 1.531 1.158 0 2.143-.88 2.143-.88l1.079 1.89s-1.298 1.334-3.44 1.334c-2.877 0-4.425-2.165-4.425-4.396 0-2.458 1.594-4.38 4.19-4.38zm48.59-2.068v2.263h1.69v2.198h-1.69v2.72c0 .943.924 1.074 1.44 1.074.218 0 .359-.017.359-.017v2.442s-.297.05-.735.05c-1.282 0-3.768-.359-3.768-3.175V6.255h-1.032V4.057h1.11V1.794h2.627zm-68.805 0v2.263h1.689v2.198h-1.69v2.719c0 .944.923 1.074 1.44 1.074.218 0 .359-.016.359-.016v2.443s-.298.048-.735.048c-1.282 0-3.769-.358-3.769-3.175V6.255h-1.032V4.057h1.11V1.794h2.628zM43.652.801c.797 0 1.14.358 1.14 1.189v7.733c0 .227.126.358.345.358h.594v2.36H43.23c-.797 0-1.141-.357-1.141-1.187V3.52c0-.228-.125-.358-.344-.358h-.594V.802h2.502zM78.939.736c.485 0 .813.049.813.049v2.377s-.188-.033-.438-.033c-.531 0-1.36.114-1.36.88v.048h1.485v2.198h-1.485v6.187h-2.705V6.255h-3.034v6.187H69.51V6.255h-.985V4.057h.985v-.195c0-2.752 2.392-3.126 3.69-3.126.485 0 .813.049.813.049v2.377s-.187-.033-.437-.033c-.532 0-1.36.114-1.36.88v.048h3.033v-.195c0-2.752 2.392-3.126 3.69-3.126zM25.64 3.911c.156 0 .313.032.313.032v2.768s-.22-.049-.547-.049c-.642 0-1.69.212-2.08 1.465-.094.31-.14.684-.14 1.14v3.175H20.48V6.776c0-.228-.125-.358-.344-.358h-.594v-2.36h2.392c.735 0 1.142.308 1.142 1.074v.44c0 .26-.031.423-.031.423h.03c.345-1.14 1.361-2.084 2.565-2.084zm68.807 0c.156 0 .312.032.312.032v2.768s-.219-.049-.547-.049c-.641 0-1.689.212-2.08 1.465-.094.31-.14.684-.14 1.14v3.175h-2.705V6.776c0-.228-.125-.358-.344-.358h-.595v-2.36h2.393c.735 0 1.141.309 1.141 1.074v.44c0 .26-.031.423-.031.423h.031c.344-1.14 1.36-2.084 2.565-2.084zM37.445 8.876h-.25c-.86 0-1.845.244-1.845.912 0 .39.234.7.766.7.703 0 1.329-.798 1.329-1.481v-.13zM5.145 6.24c-.814 0-1.58.618-1.58 2.068 0 1.009.516 2.002 1.58 2.002.844 0 1.579-.717 1.579-2.002 0-1.254-.641-2.068-1.58-2.068zm9.458-.033c-.985 0-1.829.798-1.829 2.068 0 1.254.844 2.019 1.83 2.019.985 0 1.829-.765 1.829-2.02 0-1.269-.844-2.067-1.83-2.067zm48.998 0c-.985 0-1.83.798-1.83 2.068 0 1.254.845 2.019 1.83 2.019.985 0 1.83-.765 1.83-2.02 0-1.269-.845-2.067-1.83-2.067zm-13.242-.228c-.782 0-1.173.456-1.345 1.075h2.299c0-.52-.391-1.075-.954-1.075zm33.691 0c-.781 0-1.172.456-1.344 1.075h2.298c0-.52-.39-1.075-.954-1.075zm21.481 0c-.781 0-1.172.456-1.344 1.075h2.298c0-.52-.39-1.075-.954-1.075z" transform="translate(-129 -709) translate(129 709)"/>
            </g>
        </g>
    </g>
</svg>
