<?xml version="1.0" encoding="UTF-8"?>
<svg id="Livello_2" xmlns="http://www.w3.org/2000/svg" version="1.1" viewBox="0 0 1800 500">
  <!-- Generator: Adobe Illustrator 30.1.0, SVG Export Plug-In . SVG Version: 2.1.1 Build 136)  -->
  <defs>
    <style>
      .st0 {
        fill: #1d4289;
      }

      .st1 {
        fill: #35a8e0;
      }

      .st2 {
        fill: #c8102e;
      }
    </style>
  </defs>
  <path class="st2" d="M267.9,96.4c1.2-2.5,2.4-4.9,3.6-7,13.8-25.6,29-42.4,40.2-43,.3,0,.7-.1,1-.2-11.5-9.6-26.5-14.4-45.2-14.4h-54.4c-36.3,0-58.9,18.1-68,54.4,0,0-51.5,209.3-96.6,325.3-6.7,17.1-18.7,28.8-28.9,34.5-3,1.6-6,2.7-9,3.1,11.5,9.6,26.5,14.4,45.2,14.4h54.4c36.3,0,58.9-18.1,68-54.4l42.7-170.8s13.9-53.3,29.9-99.1c1.2-4,2.6-8,4.1-12.1,4-11,8.4-21.3,13-30.7Z"/>
  <path class="st2" d="M583.4,96.4c1.2-2.5,2.4-4.9,3.6-7,13.8-25.6,29-42.4,40.2-43,.3,0,.7-.1,1-.2-11.5-9.6-26.5-14.4-45.2-14.4h-54.4c-36.3,0-58.9,18.1-68,54.4,0,0-51.5,209.3-96.6,325.3-6.7,17.1-18.7,28.8-28.9,34.5-3,1.6-6,2.7-9,3.1,11.5,9.6,26.5,14.4,45.2,14.4h54.4c36.3,0,58.9-18.1,68-54.4l42.7-170.8s13.9-53.3,29.9-99.1c1.2-4,2.6-8,4.1-12.1,4-11,8.4-21.3,13-30.7Z"/>
  <path class="st0" d="M320.1,414.5c20.9,2.4,32.5-38.3,38.3-55.3,7.7-22.4,23.6-67.6,28-84.9,0,0-33.8-121.7-44.4-162.3-3.4-12.9-4.9-27.7-14.8-31.8-4.3-1.4-8.6-.9-13.2,1.6-26.5,14.5-48.9,82.3-61.5,125.8l48.3,186.6c2.7,7.3,6.7,17.2,19.3,20.3Z"/>
  <path class="st0" d="M785.8,449c-3-.4-6-1.5-9-3.1-10.3-5.6-20-18.4-28.9-34.5-5.7-10.5-21-40.5-73.6-226.9,0,0-14.6-54.1-19.3-72.2-3.3-12.9-6.5-29.7-14.9-31.8-4.3-1.4-8.6-.9-13.3,1.6-26.6,14.6-47.4,85.3-60,128.9l36.2,136.9,15.3,61.1c9.1,36.3,31.7,54.4,68,54.4h55.9,0c18-.3,32.6-5.1,43.7-14.4Z"/>
  <rect class="st2" x="1545.3" y="68.2" width="50.2" height="212.5"/>
  <path class="st2" d="M1433.1,160v36.6h29.8v39.2c-8.3,6.7-18.9,10.1-31.5,10.1-19.9,0-35.8-6.7-47.3-19.8-11.6-13.2-17.4-31.2-17.4-53.5s6-42.3,17.8-56.2c11.7-13.8,28-20.8,48.4-20.8s14.3,1.9,23.4,5.8c9.1,3.8,15.9,7.7,20.2,11.6l2,1.7,18-34.4-1.2-1.1c-16.8-14.3-37.5-21.6-61.4-21.6s-60.8,10.7-80.8,31.7c-19.9,21-30,48.7-30,82.2s9.3,60.9,27.6,81.3c18.3,20.5,43.5,31,74.7,31s28.9-2.1,43.3-6.3c14.5-4.2,26.6-10.2,35.8-17.7l.8-.6v-99.2h-72Z"/>
  <path class="st2" d="M1636.5,263.3l17.7-39.5c14.8,11.8,31.5,17.7,50.2,17.7s29-6.9,29-20.6-2.9-14.7-8.7-19.8c-5.8-5.2-17.1-11.2-33.9-18.3-36.6-15.2-55-36.5-55-63.9s7-32.7,21-43c14-10.2,31.9-15.4,53.8-15.4s42.9,5,62.3,14.9l-14.3,38.5c-10.8-9.2-25.9-13.9-45.2-13.9s-26,6.9-26,20.6,2.8,10.3,8.5,14.7c5.7,4.4,17.9,10.2,36.5,17.6,18.6,7.3,32.1,16.2,40.3,26.7,8.2,10.4,12.3,23.1,12.3,37.9s-7.3,35.2-21.9,46.5c-14.6,11.3-34.5,17-59.6,17s-25.5-1.2-34-3.5c-8.5-2.3-19.5-7-32.8-14.2"/>
  <path class="st0" d="M1241.9,177c-8.5-1.7-14.8-2.6-19-2.6-39.1,0-58.7,12.8-58.7,38.5s11,28.6,33.1,28.6,44.6-14.9,44.6-44.6v-19.8ZM1246.7,255.8c-4.5,7.4-12.3,13.5-23.5,18.2-11.2,4.7-22.8,7-35,7-22.9,0-40.9-5.7-54-17.2-13.1-11.4-19.6-27.7-19.6-48.7s9.2-43.8,27.7-57.7c18.4-13.9,44.7-20.8,78.7-20.8s12.7,1,20.6,3c0-25-15.8-37.5-47.4-37.5s-34.3,3.1-46.8,9.3l-10.7-38.5c17.1-8.2,37.4-12.3,60.9-12.3s56.1,7.4,71.2,22.1c15.1,14.7,22.6,42.7,22.6,83.8v45.4c0,28.3,5.7,46.1,17.1,53.4-4.1,7.1-8.7,11.5-13.7,13.2-5,1.7-10.8,2.5-17.3,2.5s-13.6-2.6-19.2-7.9c-5.7-5.3-9.5-11-11.5-17.3"/>
  <path class="st0" d="M1038.1,275.5v-133.1c0-27.9-12.5-41.9-37.5-41.9s-14.6,2.2-21.4,6.5c-6.9,4.4-11.7,9.4-14.5,15.1v153.4h-49.6v-140.9c0-10.4-3.2-18.7-9.7-24.9-6.5-6.2-15.6-9.2-27.4-9.2s-13,2.3-20.3,6.9c-7.3,4.6-12.7,9.7-16,15.3v152.8h-49.6V63h34.1l10.1,18.6c13.8-15.1,31.5-22.6,53.4-22.6s49.4,7.7,63.7,23c6.2-7,14.9-12.6,26-16.8,11.1-4.2,22.2-6.2,33.3-6.2,23.7,0,42.1,6.8,55.3,20.3,13.2,13.6,19.7,32.2,19.7,55.8v140.3h-49.6Z"/>
  <g>
    <path class="st1" d="M792.1,411.9v-99.8h64.1v15.4h-45.9v24.6h40.9v15.1h-40.9v29.2h49.4v15.4h-67.6Z"/>
    <path class="st1" d="M875.6,339c3.4-1,7.7-1.9,13.1-2.7,5.4-.9,11.3-1.3,17.9-1.3s11.3.8,15.4,2.5c4.1,1.7,7.4,4,9.9,7.1,2.4,3,4.2,6.7,5.2,10.9,1,4.3,1.5,9,1.5,14v42.3h-17.4v-39.6c0-4-.3-7.5-.8-10.3-.5-2.8-1.4-5.1-2.6-6.9-1.2-1.8-2.8-3.1-4.9-3.9-2.1-.8-4.6-1.2-7.6-1.2s-4.5.1-6.9.4c-2.4.3-4.2.5-5.3.7v60.8h-17.4v-72.9Z"/>
    <path class="st1" d="M955.7,374.6c0-6.6,1-12.4,3-17.4,2-5,4.6-9.1,7.9-12.5,3.3-3.3,7-5.8,11.2-7.5,4.2-1.7,8.5-2.5,13-2.5,10.4,0,18.5,3.2,24.3,9.6,5.8,6.4,8.7,16,8.7,28.8s0,2,0,3.2c0,1.2-.1,2.3-.2,3.2h-49.7c.5,6,2.6,10.7,6.4,14,3.8,3.3,9.3,5,16.5,5s8.1-.4,11.6-1.2c3.5-.8,6.3-1.6,8.3-2.4l2.3,14.3c-1,.5-2.3,1-4,1.5-1.7.5-3.6,1-5.8,1.4-2.2.4-4.5.8-7,1.1-2.5.3-5,.4-7.6.4-6.6,0-12.4-1-17.3-3-4.9-2-8.9-4.7-12.1-8.2-3.2-3.5-5.5-7.6-7.1-12.4-1.5-4.8-2.3-10-2.3-15.6ZM1006.2,366.8c0-2.4-.3-4.7-1-6.8-.7-2.2-1.7-4-3-5.6-1.3-1.6-2.9-2.8-4.8-3.7-1.9-.9-4.1-1.4-6.7-1.4s-5,.5-7.1,1.5c-2,1-3.7,2.3-5.1,4-1.4,1.6-2.5,3.5-3.2,5.6-.8,2.1-1.3,4.3-1.6,6.5h32.4Z"/>
    <path class="st1" d="M1085,352.3c-1.4-.5-3.4-1-6-1.5-2.5-.5-5.5-.8-8.9-.8s-4,.2-6.1.6c-2.2.4-3.7.7-4.5,1v60.3h-17.4v-71.7c3.4-1.2,7.6-2.4,12.6-3.5,5-1.1,10.6-1.7,16.8-1.7s2.5,0,4,.2c1.5.1,3.1.3,4.6.6,1.5.2,3,.5,4.5.9,1.4.3,2.6.6,3.5.9l-3,14.7Z"/>
    <path class="st1" d="M1162.4,404.2c0,12-3,20.8-9.1,26.4-6.1,5.6-15.4,8.4-28,8.4s-9.1-.4-13.5-1.2c-4.4-.8-8.3-1.8-11.9-3l3.2-14.8c3,1.2,6.4,2.3,10.2,3,3.8.8,7.9,1.2,12.3,1.2,7,0,12-1.4,15-4.3,3-2.9,4.5-7.2,4.5-12.8v-2.9c-1.7.9-4,1.7-6.8,2.6-2.8.9-6.1,1.3-9.7,1.3s-9.2-.8-13.2-2.3c-4-1.5-7.4-3.8-10.2-6.8-2.8-3-5-6.7-6.6-11.2-1.6-4.5-2.4-9.6-2.4-15.5s.8-10.5,2.5-15.1c1.7-4.6,4.1-8.5,7.3-11.8,3.2-3.3,7.1-5.8,11.7-7.6,4.6-1.8,9.8-2.7,15.7-2.7s11,.4,16.1,1.3c5.1.9,9.4,1.8,13,2.7v65.2ZM1113.8,372.3c0,7.4,1.6,12.8,4.8,16.2,3.2,3.4,7.4,5.1,12.5,5.1s5.4-.4,7.8-1.2c2.4-.8,4.4-1.7,6-2.7v-39c-1.2-.3-2.8-.6-4.6-.8-1.8-.2-4.1-.4-6.9-.4-6.3,0-11.2,2.1-14.5,6.3-3.4,4.2-5,9.7-5,16.5Z"/>
    <path class="st1" d="M1204,314.5c0,3.3-1.1,5.9-3.2,7.8-2.1,1.9-4.6,2.9-7.5,2.9s-5.5-1-7.6-2.9c-2.1-1.9-3.2-4.5-3.2-7.8s1.1-6,3.2-7.9c2.1-1.9,4.7-2.9,7.6-2.9s5.4,1,7.5,2.9c2.1,1.9,3.2,4.6,3.2,7.9ZM1202.1,411.9h-17.4v-75.3h17.4v75.3Z"/>
    <path class="st1" d="M1249.4,334.7c5.8,0,10.6.7,14.5,2.2,3.9,1.4,7.1,3.5,9.4,6,2.4,2.6,4,5.7,5,9.4,1,3.7,1.5,7.8,1.5,12.2v45.7c-2.7.6-6.7,1.3-12.2,2.1-5.4.8-11.5,1.2-18.4,1.2s-8.6-.4-12.4-1.3c-3.7-.9-6.9-2.3-9.6-4.2-2.6-1.9-4.7-4.4-6.2-7.5-1.5-3.1-2.2-6.9-2.2-11.4s.8-8,2.5-10.9c1.7-3,4-5.4,6.8-7.3,2.9-1.9,6.2-3.2,10-4,3.8-.8,7.8-1.2,11.9-1.2s3.9.1,6,.4c2.1.2,4.4.6,6.8,1.2v-2.9c0-2-.2-3.9-.7-5.8-.5-1.8-1.3-3.4-2.5-4.8-1.2-1.4-2.8-2.5-4.8-3.2-2-.8-4.4-1.2-7.4-1.2s-7.7.3-11.1.9c-3.4.6-6.1,1.2-8.2,2l-2.2-14.1c2.2-.8,5.4-1.5,9.7-2.3,4.2-.8,8.7-1.2,13.5-1.2ZM1250.8,399.6c5.4,0,9.5-.3,12.2-.9v-19.3c-1-.3-2.4-.6-4.2-.9-1.8-.3-3.8-.4-6-.4s-3.9.1-5.8.4c-2,.3-3.7.8-5.3,1.6-1.6.8-2.9,1.8-3.8,3.2-1,1.4-1.4,3.1-1.4,5.3,0,4.1,1.3,7,3.9,8.6,2.6,1.6,6.1,2.4,10.5,2.4Z"/>
  </g>
</svg>