<?xml version="1.0" encoding="UTF-8"?>
<svg width="300px" height="65px" viewBox="0 0 300 65" version="1.1" xmlns="http://www.w3.org/2000/svg" xmlns:xlink="http://www.w3.org/1999/xlink">
    <title>Portale-offerte-w@2x</title>
    <g id="Portale-offerte-w" stroke="none" stroke-width="1" fill="none" fill-rule="evenodd">
        <g id="Group-46" transform="translate(-0.000000, 0.222716)">
            <path d="M8.76890863,16.6536929 C6.95672589,16.6536929 6.07728426,15.0280584 6.07728426,13.3757741 C6.07728426,11.0031853 7.38312183,9.99049492 8.76890863,9.99049492 C10.3682741,9.99049492 11.4609137,11.3229822 11.4609137,13.3757741 C11.4609137,15.4807234 10.2083756,16.6536929 8.76890863,16.6536929 M9.91446701,6.09887056 C7.00926396,6.09887056 5.81002538,7.85813452 5.81002538,7.85813452 L5.75672589,7.85813452 L5.75672589,7.61866751 C5.75672589,7.0323731 5.3036802,6.41904822 3.97119289,6.41904822 L0,6.41904822 L0,10.2840228 L1.01269036,10.2840228 C1.38616751,10.2840228 1.59936548,10.4972208 1.59936548,10.870698 L1.59936548,25.4751396 L6.20977157,25.4751396 L6.20977157,20.4649873 C6.20977157,19.7717132 6.15647208,19.2923985 6.15647208,19.2923985 L6.20977157,19.2923985 C6.20977157,19.2923985 7.46230964,20.4649873 9.70126904,20.4649873 C13.352665,20.4649873 16.0979695,17.6393528 16.0979695,13.2954442 C16.0979695,9.03110406 13.6458122,6.09887056 9.91446701,6.09887056 M24.8920431,16.6272716 C23.2127284,16.6272716 21.7736421,15.3747335 21.7740228,13.3219416 C21.7740228,11.2432614 23.2131091,9.93742386 24.8920431,9.93742386 C26.5713579,9.93742386 28.0104442,11.2432614 28.0104442,13.3219416 C28.0104442,15.3747335 26.5713579,16.6272716 24.8920431,16.6272716 M24.8653934,6.0994797 C20.5744036,6.0994797 17.1362056,9.00468274 17.1358249,13.3219416 C17.1358249,17.6133122 20.5740228,20.4652157 24.8916624,20.4652157 C29.2096827,20.4652157 32.6478807,17.6133122 32.6478807,13.3219416 C32.6478807,9.00468274 29.2096827,6.0994797 24.8653934,6.0994797 M39.3354442,9.59082487 L39.2821447,9.59082487 C39.2821447,9.59082487 39.3354442,9.32432741 39.3354442,8.89793147 L39.3354442,8.17838832 C39.3354442,6.92546954 38.6425508,6.41912437 37.389632,6.41912437 L33.3118401,6.41912437 L33.3118401,10.2837183 L34.3245305,10.2837183 C34.6980076,10.2837183 34.9112056,10.497297 34.9112056,10.8703934 L34.9112056,20.1448858 L39.5219924,20.1448858 L39.5219924,14.9478046 C39.5219924,14.2016117 39.6019416,13.5886675 39.7618401,13.0823223 C40.4280838,11.0299112 42.2136168,10.6834645 43.3066371,10.6834645 C43.8662817,10.6834645 44.2393782,10.7634137 44.2393782,10.7634137 L44.2393782,6.23257614 C44.2393782,6.23257614 43.9728807,6.17927665 43.7063832,6.17927665 C41.6539721,6.17927665 39.9217386,7.72534264 39.3354442,9.59082487 M51.3810152,14.4682995 L51.3810152,10.0174112 L54.2599492,10.0174112 L54.2599492,6.41893401 L51.3810152,6.41893401 L51.3810152,2.71461929 L46.9034772,2.71461929 L46.9034772,6.41893401 L45.0109645,6.41893401 L45.0109645,10.0174112 L46.7698477,10.0174112 L46.7698477,15.0812437 C46.7698477,19.6924112 51.0079188,20.2787056 53.193198,20.2787056 C53.9393909,20.2787056 54.4461168,20.1987563 54.4461168,20.1987563 L54.4461168,16.2009137 C54.4461168,16.2009137 54.206269,16.2271827 53.8331726,16.2271827 C52.953731,16.2271827 51.3810152,16.0143655 51.3810152,14.4682995 M63.826599,14.5214848 C63.826599,15.6411548 62.7602284,16.9469924 61.5609898,16.9469924 C60.6548985,16.9469924 60.2551523,16.4406472 60.2551523,15.8006726 C60.2551523,14.708033 61.9340863,14.3079061 63.400203,14.3079061 L63.826599,14.3079061 L63.826599,14.5214848 Z M68.384467,15.6944543 L68.384467,11.6966117 C68.384467,8.55156091 66.812132,6.09940355 62.014797,6.09940355 C60.4420812,6.09940355 56.5508376,6.25930203 56.5508376,9.32440355 L56.5508376,10.8434391 L60.8151777,10.8434391 L60.8151777,10.2304949 C60.8151777,9.6975 61.4277411,9.56425127 62.0144162,9.56425127 C63.1603553,9.56425127 63.7732995,10.0439467 63.7732995,11.3497843 L63.7732995,11.5096827 L63.5867513,11.5096827 C61.4543909,11.5096827 55.6177157,11.9631091 55.6184772,16.0412817 C55.6184772,18.7599365 57.7238071,20.4655203 60.2825635,20.4655203 C63.1611168,20.4655203 64.1205076,18.4667893 64.1205076,18.4667893 L64.1738071,18.4667893 L64.1738071,18.7066371 C64.1738071,19.3195812 64.6535025,20.1457234 65.9859898,20.1457234 L69.9838325,20.1457234 L69.9838325,16.2811294 L68.9707614,16.2811294 C68.597665,16.2811294 68.384467,16.0675508 68.384467,15.6944543 L68.384467,15.6944543 Z M76.3515609,15.6940736 L76.3515609,3.03430203 C76.3515609,1.67516497 75.7652665,1.08887056 74.4061294,1.08887056 L70.1417893,1.08887056 L70.1417893,4.95346447 L71.1544797,4.95346447 C71.5275761,4.95346447 71.7407741,5.16666244 71.7407741,5.53975888 L71.7407741,18.1999112 C71.7407741,19.5590482 72.3270685,20.1449619 73.6865863,20.1449619 L77.9509264,20.1449619 L77.9509264,16.2807487 L76.9378553,16.2807487 C76.5647589,16.2807487 76.3515609,16.0667893 76.3515609,15.6940736 M83.546231,11.3233629 C83.8397589,10.3106726 84.5060025,9.56409898 85.8384898,9.56409898 C86.7982614,9.56409898 87.4645051,10.4709518 87.4645051,11.3233629 L83.546231,11.3233629 Z M92.1822716,12.7357995 C92.1822716,8.92450508 89.8900127,6.09925127 85.8388706,6.09925127 C81.4142513,6.09925127 78.6955964,9.24430203 78.6963577,13.2687944 C78.6963577,16.9201904 81.3350635,20.465368 86.2389975,20.465368 C89.8903934,20.465368 92.102703,18.2797081 92.102703,18.2797081 L90.2634898,15.1879569 C90.2634898,15.1879569 88.5845558,16.6274239 86.6120939,16.6274239 C85.1459772,16.6274239 83.7601904,15.8542005 83.4137437,14.121967 L92.0756726,14.121967 C92.0756726,14.121967 92.1822716,13.1888452 92.1822716,12.7357995 L92.1822716,12.7357995 Z M105.292843,13.3220939 C105.292843,11.2434137 106.731929,9.93719543 108.410863,9.93719543 C110.090178,9.93719543 111.529264,11.2434137 111.529264,13.3220939 C111.529264,15.3748858 110.090178,16.6274239 108.410863,16.6274239 C106.731548,16.6274239 105.292462,15.3748858 105.292843,13.3220939 M116.166701,13.3220939 C116.166701,9.00445431 112.728503,6.09925127 108.384213,6.09925127 C104.093223,6.09925127 100.655025,9.00445431 100.654645,13.3220939 C100.654645,17.6130838 104.092843,20.465368 108.410482,20.465368 C112.728503,20.465368 116.166701,17.6130838 116.166701,13.3220939 M118.483287,20.1451523 L123.094074,20.1451523 L123.094074,10.0171066 L128.264886,10.0171066 L128.264886,20.1451523 L132.875673,20.1451523 L132.875673,10.0171066 L135.407779,10.0171066 L135.407779,6.41901015 L132.875673,6.41901015 L132.875673,6.33906091 C132.875673,5.08652284 134.28849,4.89997462 135.194581,4.89997462 C135.620977,4.89997462 135.940774,4.95365482 135.940774,4.95365482 L135.940774,1.06203046 C135.940774,1.06203046 135.381129,0.982081218 134.554987,0.982081218 C132.342678,0.982081218 128.264886,1.59502538 128.264886,6.0992132 L128.264886,6.41901015 L123.094074,6.41901015 L123.094074,6.33906091 C123.094074,5.08652284 124.506891,4.89997462 125.412982,4.89997462 C125.839378,4.89997462 126.159175,4.95365482 126.159175,4.95365482 L126.159175,1.06203046 C126.159175,1.06203046 125.59915,0.982081218 124.773008,0.982081218 C122.561079,0.982081218 118.483287,1.59502538 118.483287,6.0992132 L118.483287,6.41901015 L116.803972,6.41901015 L116.803972,10.0171066 L118.483287,10.0171066 L118.483287,20.1451523 Z M143.267589,9.56406091 C144.22736,9.56406091 144.893604,10.4709137 144.893604,11.3233249 L140.97533,11.3233249 C141.268858,10.3106345 141.935102,9.56406091 143.267589,9.56406091 L143.267589,9.56406091 Z M147.692208,15.1879188 C147.692208,15.1879188 146.012893,16.6273858 144.040812,16.6273858 C142.574695,16.6273858 141.188909,15.8541624 140.842462,14.1219289 L149.504772,14.1219289 C149.504772,14.1219289 149.611371,13.1888071 149.611371,12.7357614 C149.611371,8.92446701 147.319112,6.0992132 143.26797,6.0992132 C138.843731,6.0992132 136.124695,9.24426396 136.125076,13.2687563 C136.125076,16.9201523 138.763782,20.4653299 143.668096,20.4653299 C147.319112,20.4653299 149.531421,18.2800508 149.531421,18.2800508 L147.692208,15.1879188 Z M161.523122,10.7634518 L161.523122,6.23261421 C161.523122,6.23261421 161.256624,6.17931472 160.990127,6.17931472 C158.937716,6.17931472 157.205102,7.72538071 156.618807,9.59086294 L156.565888,9.59086294 C156.565888,9.59086294 156.618807,9.32436548 156.618807,8.89796954 L156.618807,8.1784264 C156.618807,6.92550761 155.926294,6.41916244 154.673376,6.41916244 L150.595584,6.41916244 L150.595584,10.2837563 L151.608274,10.2837563 C151.981751,10.2837563 152.194949,10.497335 152.194949,10.8704315 L152.194949,20.1449239 L156.805355,20.1449239 L156.805355,14.9478426 C156.805355,14.2016497 156.885305,13.5887056 157.045203,13.0823604 C157.711447,11.0299492 159.49736,10.6835025 160.590381,10.6835025 C161.150025,10.6835025 161.523122,10.7634518 161.523122,10.7634518 M164.053515,15.0813959 C164.053515,19.6921827 168.291586,20.2784772 170.476865,20.2784772 C171.223058,20.2784772 171.729404,20.1985279 171.729404,20.1985279 L171.729404,16.2006853 C171.729404,16.2006853 171.489556,16.227335 171.116459,16.227335 C170.237398,16.227335 168.664683,16.0141371 168.664683,14.4684518 L168.664683,10.0171827 L171.543617,10.0171827 L171.543617,6.41908629 L168.664683,6.41908629 L168.664683,2.71477157 L164.187525,2.71477157 L164.187525,6.41908629 L162.294632,6.41908629 L162.294632,10.0171827 L164.053515,10.0171827 L164.053515,15.0813959 Z M179.883122,9.56406091 C180.842893,9.56406091 181.509137,10.4709137 181.509137,11.3233249 L177.590863,11.3233249 C177.884391,10.3106345 178.550635,9.56406091 179.883122,9.56406091 M180.283629,20.4653299 C183.934645,20.4653299 186.146954,18.2800508 186.146954,18.2800508 L184.308122,15.1879188 C184.308122,15.1879188 182.628807,16.6273858 180.656345,16.6273858 C179.19099,16.6273858 177.804822,15.8541624 177.458376,14.1219289 L186.120305,14.1219289 C186.120305,14.1219289 186.226904,13.1888071 186.226904,12.7357614 C186.226904,8.92446701 183.935025,6.0992132 179.883503,6.0992132 C175.459264,6.0992132 172.740609,9.24426396 172.740609,13.2687563 C172.740609,16.9201523 175.379315,20.4653299 180.283629,20.4653299 M109.61467,36.3829569 L109.61467,28.4249619 C109.61467,27.5710279 109.246142,27.2017386 108.391827,27.2017386 L105.711244,27.2017386 L105.711244,29.6310533 L106.347792,29.6310533 C106.58231,29.6310533 106.71632,29.7654442 106.71632,29.9999619 L106.71632,37.9575761 C106.71632,38.8122716 107.084848,39.1807995 107.939162,39.1807995 L110.619746,39.1807995 L110.619746,36.7514848 L109.983198,36.7514848 C109.74868,36.7514848 109.61467,36.6170939 109.61467,36.3829569 M120.570685,36.3825761 L120.570685,30.5527538 L117.672335,30.5527538 L117.672335,34.3720431 C117.672335,35.6622716 117.08566,36.7511041 115.846066,36.7511041 C115.24302,36.7511041 114.924746,36.4160787 114.924746,35.6123985 L114.924746,31.7752157 C114.924746,30.920901 114.556599,30.5527538 113.701904,30.5527538 L111.02132,30.5527538 L111.02132,32.9816878 L111.657868,32.9816878 C111.892386,32.9816878 112.026396,33.115698 112.026396,33.3502157 L112.026396,36.1480584 C112.026396,38.5773731 113.383249,39.381434 115.092259,39.381434 C116.248096,39.381434 117.303807,38.8118909 117.772843,37.8901904 L117.806345,37.8901904 C117.806345,37.8901904 117.789594,38.0074492 117.789594,38.0912056 L117.789594,38.2084645 C117.789594,38.7951396 118.225127,39.1804188 119.012437,39.1804188 L121.575761,39.1804188 L121.575761,36.7511041 L120.939213,36.7511041 C120.704695,36.7511041 120.570685,36.6167132 120.570685,36.3825761 M127.236853,36.8856091 C126.164391,36.8856091 125.058807,36.2993147 125.058807,34.825203 C125.058807,33.6689848 125.795863,32.747665 127.019086,32.747665 C127.370863,32.747665 127.689137,32.8481726 127.689137,33.1161929 L127.689137,33.5684772 L130.202208,33.5684772 L130.202208,32.3791371 C130.202208,30.8205076 128.225178,30.3518528 127.019086,30.3518528 C123.751827,30.3518528 122.143325,32.5793909 122.143706,34.8583249 C122.143706,37.2373858 123.869467,39.3819289 126.952081,39.3819289 C129.414898,39.3819289 130.772132,37.706802 130.772132,37.706802 L129.615914,35.7632741 C129.615914,35.7632741 128.476447,36.8856091 127.236853,36.8856091 M134.187982,33.6354442 C134.372246,32.9988959 134.791028,32.5298604 135.628972,32.5298604 C136.232018,32.5298604 136.650799,33.0994036 136.650799,33.6354442 L134.187982,33.6354442 Z M139.616155,34.5236421 C139.616155,32.1278299 138.175546,30.3518147 135.628972,30.3518147 C132.847881,30.3518147 131.138871,32.3284645 131.139251,34.8582868 C131.139251,37.1532107 132.797627,39.3818909 135.880622,39.3818909 C138.175926,39.3818909 139.566282,38.0082868 139.566282,38.0082868 L138.410063,36.0647589 C138.410063,36.0647589 137.354353,36.9697081 136.114759,36.9697081 C135.193058,36.9697081 134.321992,36.4831599 134.104226,35.3947081 L139.54915,35.3947081 C139.54915,35.3947081 139.616155,34.8084137 139.616155,34.5236421 L139.616155,34.5236421 Z M147.99099,33.6354442 C148.175254,32.9988959 148.594036,32.5298604 149.43198,32.5298604 C150.035025,32.5298604 150.453807,33.0994036 150.453807,33.6354442 L147.99099,33.6354442 Z M153.419162,34.5236421 C153.419162,32.1278299 151.978553,30.3518147 149.43198,30.3518147 C146.650508,30.3518147 144.941878,32.3284645 144.942259,34.8582868 C144.942259,37.1532107 146.600635,39.3818909 149.683629,39.3818909 C151.978934,39.3818909 153.369289,38.0082868 153.369289,38.0082868 L152.213071,36.0647589 C152.213071,36.0647589 151.15736,36.9697081 149.917766,36.9697081 C148.996066,36.9697081 148.125,36.4831599 147.907234,35.3947081 L153.352538,35.3947081 C153.352538,35.3947081 153.419162,34.8084137 153.419162,34.5236421 L153.419162,34.5236421 Z M163.318477,36.5164351 C162.16264,36.5164351 161.660102,35.5616117 161.660102,34.4899112 C161.660102,33.5012056 162.179391,32.7641497 163.201218,32.7641497 C164.072284,32.7641497 164.876726,33.0987944 164.876726,34.6235406 C164.876726,36.1315355 164.072284,36.5171954 163.318477,36.5164351 M165.145127,31.2397843 L165.145127,31.3570431 L165.111624,31.3570431 C165.111624,31.3570431 164.373807,30.351967 162.614924,30.351967 C160.001345,30.351967 158.744619,32.3960025 158.744619,34.5907995 C158.744619,36.801967 160.034848,38.9301396 162.631675,38.9301396 C163.636751,38.9301396 164.290431,38.6621193 164.79297,38.1093274 L164.826472,38.1093274 C164.826472,38.1093274 164.809721,38.3270939 164.809721,38.4276015 L164.809721,38.5616117 C164.809721,39.8347081 163.854898,40.220368 162.815939,40.220368 C161.458706,40.220368 160.403376,39.6671954 160.403376,39.6671954 L159.565812,41.9289975 C160.403376,42.3641497 161.676853,42.6991751 162.83269,42.6991751 C165.195,42.6991751 167.708071,41.5429569 167.708071,38.3937183 L167.708071,33.3005711 C167.708071,33.0991751 167.859213,32.982297 168.07698,32.982297 L168.680025,32.982297 L168.680025,30.5529822 L166.066447,30.5529822 C165.413147,30.5529822 165.145127,31.0048858 165.145127,31.2397843 M174.475089,35.6460914 C174.475089,36.3496447 173.805038,37.1708376 173.051231,37.1708376 C172.481688,37.1708376 172.230419,36.8521827 172.230419,36.4497716 C172.230419,35.7629695 173.285749,35.5113198 174.207069,35.5113198 L174.475089,35.5113198 L174.475089,35.6460914 Z M177.340317,36.3835279 L177.340317,33.8700761 C177.340317,31.8934264 176.351612,30.3519289 173.336003,30.3519289 C172.347678,30.3519289 169.901612,30.4516751 169.901612,32.3792132 L169.901612,33.3340355 L172.582195,33.3340355 L172.582195,32.9487563 C172.582195,32.6129695 172.967094,32.5292132 173.336003,32.5292132 C174.055926,32.5292132 174.441586,32.830736 174.441586,33.6519289 L174.441586,33.7524365 L174.324327,33.7524365 C172.983845,33.7524365 169.314937,34.0372081 169.315317,36.6012944 C169.315317,38.3106853 170.638668,39.3823858 172.24717,39.3823858 C174.056307,39.3823858 174.659734,38.1260406 174.659734,38.1260406 L174.693236,38.1260406 L174.693236,38.2764213 C174.693236,38.6620812 174.994759,39.1813706 175.832322,39.1813706 L178.345393,39.1813706 L178.345393,36.7516751 L177.708845,36.7516751 C177.474327,36.7516751 177.340317,36.617665 177.340317,36.3835279 L177.340317,36.3835279 Z M181.946155,32.9152919 C181.946155,32.6472716 182.314683,32.5125 182.716713,32.5125 C183.135495,32.5125 183.504023,32.6807741 183.504023,32.9152919 L183.504023,33.3340736 L186.017475,33.3340736 L186.017475,32.3114848 C186.017475,30.7539975 184.073566,30.351967 182.66684,30.351967 C180.84019,30.351967 179.11481,31.1560279 179.11481,33.0157995 C179.11481,35.8128807 183.437398,36.0477792 183.437398,36.7680838 C183.437398,37.0696066 183.202881,37.1876269 182.784099,37.1876269 C181.460368,37.1876269 180.253896,35.9476523 180.253896,35.9476523 L178.964048,37.8074239 C178.964048,37.8074239 180.30453,39.3820431 182.784099,39.3820431 C184.794251,39.3820431 186.318997,38.3267132 186.318997,36.5842005 C186.318997,33.6850888 181.946155,33.8027284 181.946155,32.9152919 M277.11118,34.3786675 L277.110419,34.3786675 C270.710292,34.3786675 265.520825,29.2048096 265.491129,22.812297 C265.520444,16.4190228 270.710673,11.2447843 277.110799,11.2444036 C283.511307,11.2444036 288.701536,16.4190228 288.73085,22.812297 C288.701536,29.2051904 283.511307,34.3786675 277.11118,34.3786675 M231.77349,34.3786675 L231.772728,34.3786675 C225.372602,34.3786675 220.183135,29.2048096 220.153439,22.812297 C220.182754,16.4190228 225.372982,11.2447843 231.773109,11.2444036 C238.173617,11.2444036 243.364226,16.4190228 243.393541,22.812297 C243.364226,29.2051904 238.173617,34.3786675 231.77349,34.3786675 M299.819048,22.7574746 L299.816383,22.7574746 C299.757754,10.2659772 289.616003,0.157728426 277.11118,0.157728426 C265.002297,0.157728426 255.110673,9.63513959 254.442145,21.5768909 C253.773997,9.63513959 243.881612,0.157728426 231.77349,0.157728426 C219.464734,0.157728426 209.453566,9.95265228 209.085799,22.1723223 L209.085799,6.69909898 L197.999124,6.69909898 L197.999124,65.1016371 L209.085799,65.1016371 L209.085799,23.4522716 C209.453566,35.6707995 219.465114,45.4649619 231.77349,45.4649619 C243.881612,45.4649619 253.773236,35.9875508 254.442145,24.0469416 C255.110292,35.9879315 265.002678,45.4649619 277.11118,45.4649619 C289.616003,45.4649619 299.757373,35.3563325 299.816383,22.8663579 L299.819048,22.8663579 C299.819048,22.8480838 299.817525,22.8298096 299.817525,22.8119162 C299.817525,22.7932614 299.819048,22.775368 299.819048,22.7574746" id="Combined-Shape" fill="#FFFFFF"></path>
            <g id="Group-45" transform="translate(197.969543, -0.000000)"></g>
        </g>
    </g>
</svg>