<?xml version="1.0" encoding="utf-8"?>
<!-- Generator: Adobe Illustrator 26.3.1, SVG Export Plug-In . SVG Version: 6.00 Build 0)  -->
<svg version="1.1" id="Layer_1" xmlns="http://www.w3.org/2000/svg" xmlns:xlink="http://www.w3.org/1999/xlink" x="0px" y="0px"
	 viewBox="0 0 350 92" style="enable-background:new 0 0 350 92;" xml:space="preserve">
<g>
	<path d="M8.2,22.1c0-0.4-0.2-0.7-0.7-0.7H6.4v-4.4h4.5c1.5,0,2,0.7,2,1.4c0,0.2,0,0.3,0,0.3H13c0,0,1.4-2,4.6-2c4.2,0,7,3.3,7,8.1
		c0,4.9-3.1,8.1-7.2,8.1c-2.5,0-3.9-1.3-3.9-1.3h-0.1c0,0,0.1,0.5,0.1,1.3v5.6H8.2V22.1z M16.3,28.6c1.6,0,3-1.3,3-3.7
		c0-2.3-1.2-3.8-3-3.8c-1.6,0-3,1.1-3,3.8C13.3,26.8,14.3,28.6,16.3,28.6z"/>
	<path d="M34.4,16.8c4.9,0,8.8,3.3,8.8,8.1c0,4.8-3.9,8-8.7,8c-4.9,0-8.7-3.2-8.7-8C25.7,20,29.6,16.8,34.4,16.8z M34.5,28.6
		c1.9,0,3.5-1.4,3.5-3.7c0-2.3-1.6-3.8-3.5-3.8c-1.9,0-3.5,1.5-3.5,3.8C31,27.2,32.6,28.6,34.5,28.6z"/>
	<path d="M45.7,22.1c0-0.4-0.2-0.7-0.7-0.7h-1.1v-4.4h4.6c1.4,0,2.2,0.6,2.2,2v0.8c0,0.5-0.1,0.8-0.1,0.8h0.1
		c0.7-2.1,2.6-3.8,4.9-3.8c0.3,0,0.6,0.1,0.6,0.1V22c0,0-0.4-0.1-1-0.1c-1.2,0-3.2,0.4-4,2.7c-0.2,0.6-0.3,1.3-0.3,2.1v5.9h-5.2
		L45.7,22.1L45.7,22.1z"/>
	<path d="M59.1,21.2h-2v-4.1h2.1v-4.2h5v4.2h3.2v4.1h-3.2v5c0,1.7,1.8,2,2.8,2c0.4,0,0.7,0,0.7,0v4.5c0,0-0.6,0.1-1.4,0.1
		c-2.5,0-7.2-0.7-7.2-5.9L59.1,21.2L59.1,21.2z"/>
	<path d="M78,22.9h0.2v-0.2c0-1.5-0.7-2-2-2c-0.7,0-1.3,0.1-1.3,0.8v0.7h-4.8v-1.7c0-3.5,4.4-3.6,6.2-3.6c5.4,0,7.2,2.8,7.2,6.3v4.5
		c0,0.4,0.2,0.7,0.7,0.7h1.1v4.4h-4.5c-1.5,0-2-0.9-2-1.6c0-0.1,0-0.3,0-0.3h-0.1c0,0-1.1,2.2-4.3,2.2c-2.9,0-5.3-1.9-5.3-5
		C69.1,23.4,75.6,22.9,78,22.9z M75.8,29c1.4,0,2.6-1.5,2.6-2.7V26h-0.5c-1.7,0-3.5,0.5-3.5,1.7C74.3,28.4,74.7,29,75.8,29z"/>
	<path d="M87.2,16.1c0-0.4-0.2-0.7-0.7-0.7h-1.1v-4.4h4.8c1.5,0,2.2,0.7,2.2,2.2v14.3c0,0.4,0.2,0.7,0.7,0.7h1.1v4.4h-4.8
		c-1.5,0-2.2-0.7-2.2-2.2V16.1z"/>
	<path d="M103.1,16.8c4.6,0,7.1,3.2,7.1,7.5c0,0.5-0.1,1.6-0.1,1.6h-9.8c0.4,2,1.9,2.8,3.6,2.8c2.2,0,4.1-1.6,4.1-1.6l2.1,3.5
		c0,0-2.5,2.5-6.6,2.5c-5.5,0-8.5-4-8.5-8.1C95,20.3,98.1,16.8,103.1,16.8z M104.9,22.6c0-1-0.8-2-1.8-2c-1.5,0-2.2,0.8-2.6,2
		C100.5,22.6,104.9,22.6,104.9,22.6z"/>
	<path d="M128.5,16.8c4.9,0,8.8,3.3,8.8,8.1c0,4.8-3.9,8-8.7,8c-4.9,0-8.7-3.2-8.7-8C119.8,20,123.6,16.8,128.5,16.8z M128.5,28.6
		c1.9,0,3.5-1.4,3.5-3.7c0-2.3-1.6-3.8-3.5-3.8c-1.9,0-3.5,1.5-3.5,3.8C125,27.2,126.6,28.6,128.5,28.6z"/>
	<path d="M139.8,21.2h-1.9v-4.1h1.9v-0.4c0-5.1,4.6-5.8,7.1-5.8c0.9,0,1.6,0.1,1.6,0.1v4.4c0,0-0.4-0.1-0.8-0.1
		c-1,0-2.6,0.2-2.6,1.6v0.1h5.8v-0.4c0-5.1,4.6-5.8,7.1-5.8c0.9,0,1.6,0.1,1.6,0.1v4.4c0,0-0.4-0.1-0.8-0.1c-1,0-2.6,0.2-2.6,1.6
		v0.1h2.9v4.1H156v11.4h-5.2V21.2H145v11.4h-5.2L139.8,21.2L139.8,21.2z"/>
	<path d="M167.7,16.8c4.6,0,7.1,3.2,7.1,7.5c0,0.5-0.1,1.6-0.1,1.6H165c0.4,2,1.9,2.8,3.6,2.8c2.2,0,4.1-1.6,4.1-1.6l2.1,3.5
		c0,0-2.5,2.5-6.6,2.5c-5.5,0-8.5-4-8.5-8.1C159.7,20.3,162.8,16.8,167.7,16.8z M169.6,22.6c0-1-0.8-2-1.8-2c-1.5,0-2.2,0.8-2.6,2
		C165.2,22.6,169.6,22.6,169.6,22.6z"/>
	<path d="M177.8,22.1c0-0.4-0.2-0.7-0.7-0.7H176v-4.4h4.6c1.4,0,2.2,0.6,2.2,2v0.8c0,0.5-0.1,0.8-0.1,0.8h0.1
		c0.7-2.1,2.6-3.8,4.9-3.8c0.3,0,0.6,0.1,0.6,0.1V22c0,0-0.4-0.1-1.1-0.1c-1.2,0-3.2,0.4-4,2.7c-0.2,0.6-0.3,1.3-0.3,2.1v5.9h-5.2
		L177.8,22.1L177.8,22.1z"/>
	<path d="M191.1,21.2h-2v-4.1h2.1v-4.2h5v4.2h3.2v4.1h-3.2v5c0,1.7,1.8,2,2.8,2c0.4,0,0.7,0,0.7,0v4.5c0,0-0.6,0.1-1.4,0.1
		c-2.5,0-7.2-0.7-7.2-5.9L191.1,21.2L191.1,21.2z"/>
	<path d="M209,16.8c4.6,0,7.1,3.2,7.1,7.5c0,0.5-0.1,1.6-0.1,1.6h-9.8c0.4,2,1.9,2.8,3.6,2.8c2.2,0,4.1-1.6,4.1-1.6l2.1,3.5
		c0,0-2.5,2.5-6.6,2.5c-5.5,0-8.5-4-8.5-8.1C200.9,20.3,204,16.8,209,16.8z M210.8,22.6c0-1-0.7-2-1.8-2c-1.5,0-2.3,0.8-2.6,2
		C206.4,22.6,210.8,22.6,210.8,22.6z"/>
</g>
<g>
	<path d="M126.6,43.7c0-0.3-0.2-0.4-0.4-0.4h-0.7v-2.7h3c1,0,1.4,0.4,1.4,1.4v9c0,0.3,0.1,0.4,0.4,0.4h0.7V54h-3
		c-1,0-1.4-0.4-1.4-1.4C126.6,52.6,126.6,43.7,126.6,43.7z"/>
	<path d="M132.6,47.4c0-0.3-0.2-0.4-0.4-0.4h-0.7v-2.7h3c1,0,1.4,0.4,1.4,1.4V50c0,0.9,0.4,1.3,1,1.3c1.4,0,2.1-1.2,2.1-2.7v-4.3
		h3.3v6.6c0,0.3,0.1,0.4,0.4,0.4h0.7V54h-2.9c-0.9,0-1.4-0.4-1.4-1.1v-0.1c0-0.1,0-0.2,0-0.2h0c-0.5,1-1.7,1.7-3,1.7
		c-1.9,0-3.5-0.9-3.5-3.6L132.6,47.4L132.6,47.4z"/>
	<path d="M149.4,44.1c1.4,0,3.6,0.5,3.6,2.3v1.3h-2.8v-0.5c0-0.3-0.4-0.4-0.8-0.4c-1.4,0-2.2,1-2.2,2.3c0,1.7,1.2,2.3,2.5,2.3
		c1.4,0,2.7-1.3,2.7-1.3l1.3,2.2c0,0-1.5,1.9-4.3,1.9c-3.5,0-5.4-2.4-5.4-5.1C144,46.6,145.8,44.1,149.4,44.1z"/>
	<path d="M159.1,44.1c2.9,0,4.5,2,4.5,4.7c0,0.3-0.1,1-0.1,1h-6.1c0.2,1.2,1.2,1.8,2.3,1.8c1.4,0,2.6-1,2.6-1l1.3,2.2
		c0,0-1.6,1.5-4.1,1.5c-3.5,0-5.3-2.5-5.3-5.1C154.1,46.3,156,44.1,159.1,44.1z M160.3,47.8c0-0.6-0.5-1.2-1.2-1.2
		c-0.9,0-1.4,0.5-1.6,1.2H160.3z"/>
	<path d="M174.7,44.1c2.9,0,4.5,2,4.5,4.7c0,0.3-0.1,1-0.1,1H173c0.2,1.2,1.2,1.8,2.3,1.8c1.4,0,2.6-1,2.6-1l1.3,2.2
		c0,0-1.6,1.5-4.1,1.5c-3.5,0-5.3-2.5-5.3-5.1C169.6,46.3,171.6,44.1,174.7,44.1z M175.8,47.8c0-0.6-0.5-1.2-1.1-1.2
		c-0.9,0-1.4,0.5-1.6,1.2H175.8z"/>
	<path d="M189.5,44.1c2,0,2.8,1.1,2.8,1.1h0c0,0,0-0.1,0-0.1c0-0.3,0.3-0.8,1-0.8h2.9V47h-0.7c-0.2,0-0.4,0.1-0.4,0.4v5.7
		c0,3.5-2.8,4.8-5.5,4.8c-1.3,0-2.7-0.4-3.7-0.9l0.9-2.5c0,0,1.2,0.6,2.7,0.6c1.2,0,2.2-0.4,2.2-1.9v-0.2c0-0.1,0-0.4,0-0.4h0
		c-0.6,0.6-1.3,0.9-2.4,0.9c-2.9,0-4.4-2.4-4.4-4.9C185.2,46.4,186.6,44.1,189.5,44.1z M192.1,48.9c0-1.7-0.9-2.1-1.9-2.1
		c-1.1,0-1.7,0.8-1.7,1.9c0,1.2,0.6,2.3,1.9,2.3C191.2,51,192.1,50.6,192.1,48.9z"/>
	<path d="M202.7,47.9h0.1v-0.1c0-0.9-0.4-1.3-1.2-1.3c-0.4,0-0.8,0.1-0.8,0.5v0.4h-3v-1.1c0-2.2,2.8-2.3,3.9-2.3
		c3.4,0,4.5,1.7,4.5,4v2.8c0,0.3,0.2,0.4,0.4,0.4h0.7V54h-2.8c-0.9,0-1.3-0.6-1.3-1c0-0.1,0-0.2,0-0.2h0c0,0-0.7,1.4-2.7,1.4
		c-1.8,0-3.3-1.2-3.3-3.1C197.1,48.2,201.2,47.9,202.7,47.9z M201.3,51.7c0.8,0,1.6-0.9,1.6-1.7v-0.2h-0.3c-1,0-2.2,0.3-2.2,1.1
		C200.4,51.4,200.6,51.7,201.3,51.7z"/>
	<path d="M209.4,50.4c0,0,1.4,1.4,2.8,1.4c0.5,0,0.7-0.1,0.7-0.5c0-0.8-4.9-1.1-4.9-4.2c0-2.1,1.9-3,4-3c1.6,0,3.8,0.5,3.8,2.2v1.2
		H213V47c0-0.3-0.4-0.5-0.9-0.5c-0.5,0-0.9,0.2-0.9,0.5c0,1,4.9,0.9,4.9,4.1c0,2-1.7,3.2-4,3.2c-2.8,0-4.3-1.8-4.3-1.8L209.4,50.4z"
		/>
</g>
<rect x="229.4" y="17.4" width="12.5" height="65.8"/>
<g>
	<path d="M280.5,35.6c0,7.2-5.9,13-13.1,13h0c-7.2,0-13-5.8-13.1-13c0-7.2,5.9-13,13.1-13C274.6,22.6,280.4,28.4,280.5,35.6
		 M293,35.5L293,35.5c-0.1-14.1-11.5-25.4-25.6-25.4c-14.1,0-25.5,11.4-25.6,25.4h0c0,0,0,0,0,0.1c0,0,0,0,0,0.1h0
		c0.1,14.1,11.5,25.4,25.6,25.4c14.1,0,25.5-11.4,25.6-25.4h0C293,35.6,293,35.6,293,35.5C293,35.6,293,35.5,293,35.5"/>
	<path d="M331.5,35.6c0,7.2-5.9,13-13.1,13h0c-7.2,0-13-5.8-13.1-13c0-7.2,5.9-13,13.1-13C325.6,22.6,331.5,28.4,331.5,35.6
		 M344,35.5L344,35.5c-0.1-14.1-11.5-25.4-25.6-25.4s-25.5,11.4-25.6,25.4h0c0,0,0,0,0,0.1c0,0,0,0,0,0.1h0
		c0.1,14.1,11.5,25.4,25.6,25.4s25.5-11.4,25.6-25.4h0C344,35.6,344,35.6,344,35.5C344,35.6,344,35.5,344,35.5"/>
</g>
</svg>
