<?xml version="1.0" encoding="utf-8"?>
<!-- Generator: Adobe Illustrator 25.0.1, SVG Export Plug-In . SVG Version: 6.00 Build 0)  -->
<svg version="1.1" id="Livello_1" xmlns="http://www.w3.org/2000/svg" xmlns:xlink="http://www.w3.org/1999/xlink" x="0px" y="0px"
	 viewBox="0 0 156 56" style="enable-background:new 0 0 156 56;" xml:space="preserve">
<style type="text/css">
	.st0{fill:#FF3366;}
	.st1{fill:#99CC33;}
	.st2{fill:#FABC00;}
	.st3{fill:#009933;}
	.st4{fill:#F39200;}
	.st5{fill:#00B9E2;}
	.st6{fill:#9E005D;}
</style>
<g>
	<g>
		<path class="st0" d="M30.7,17.9c-2.6,2.8-6.2,4.2-9.5,12C20.7,31,20.3,32,20,33C29.1,27.4,30.6,18.4,30.7,17.9z"/>
		<path class="st1" d="M19.1,13.3c3.4,0,6.9,1.4,9.4,4.6c0.1,0.1,0.2,0.2,0.3,0.4c-0.1-0.2-0.1-0.5-0.2-0.7
			C26.5,9.2,20.1,4.3,13.1,2.7c0.1,0.2,0.1,0.5,0.2,0.7C14.3,7.5,16.4,10.9,19.1,13.3z"/>
		<polygon class="st1" points="28.7,18.3 28.7,18.3 28.7,18.3 		"/>
		<path class="st2" d="M24.8,20.5c0.2,0,0.3,0,0.4,0l0,0c-0.2-0.1-0.4-0.2-0.7-0.4C17,16.2,9,17.8,3.2,21.9c0.2,0.1,0.4,0.2,0.7,0.3
			c3.8,2,7.6,2.6,11.3,2.2C17.5,22,20.8,20.3,24.8,20.5z"/>
		<path class="st3" d="M28.7,18.3C28.7,18.3,28.7,18.3,28.7,18.3L28.7,18.3c-0.1-0.1-0.2-0.2-0.3-0.4c-2.5-3.2-6-4.6-9.4-4.6
			C21.8,15.8,25.2,17.5,28.7,18.3z"/>
		<path class="st4" d="M25.3,20.6c-0.1,0-0.3,0-0.4,0c-4.1-0.2-7.4,1.4-9.7,4C18.9,24.1,22.3,22.7,25.3,20.6z"/>
		<path class="st5" d="M40.1,17.4c-0.3,0-0.6,0-0.9,0c0,0,0,0,0,0c-0.7-1.1-2-1.8-3.9-1.9c-2-0.1-3.6,0.9-4.6,2.3
			c0,0,0.2,4.5-2.5,8.7C26.7,29,24.1,31.1,20,33c0,0,6.4,0,10.1-4.9c0.4-0.5,1.6-2.5,1.8-2.8c2.2-4,6.3-7.1,11.8-6.9
			c2.7,0.1,4.8,0.7,6.5,1.7v-0.3C47.5,18.4,44.2,17.5,40.1,17.4z"/>
		<path class="st6" d="M28.3,26.6c2.7-4.2,2.5-8.7,2.5-8.7C30.6,18.4,29.1,27.4,20,33C24.1,31.1,26.7,29,28.3,26.6z"/>
		<polygon class="st5" points="28.7,18.3 28.7,18.3 28.7,18.3 		"/>
		<path class="st5" d="M19.1,13.3c-0.9,0-1.9,0.1-2.8,0.3c0.1,0.1,0.2,0.2,0.3,0.4c3.2,4.1,7.9,5.2,12.2,4.4
			C25.2,17.5,21.8,15.8,19.1,13.3z"/>
		<path class="st0" d="M15.2,24.5c-0.6,0.7-1.2,1.5-1.7,2.3c0.1,0,0.3,0,0.4,0c5.2,0.3,9.2-2.5,11.3-6.2l0,0
			C22.3,22.7,18.9,24.1,15.2,24.5z"/>
	</g>
	<g>
		<polygon class="st5" points="111.6,21.5 106,29.8 103.3,21.5 98.2,21.5 95.7,40.4 100.8,40.4 102.1,30.7 104.8,38.9 110.4,30.7 
			109.1,40.4 114.1,40.4 116.6,21.5 		"/>
		<path class="st5" d="M51.4,29.2c0.3-2.1-0.2-3.9-1.4-5.3c-1.4-1.6-3.7-2.5-6.4-2.5c-4.2,0-9.1,2.4-9.8,7.8l-0.5,3.7
			c-0.3,2.1,0.2,3.9,1.4,5.3c1.4,1.6,3.7,2.5,6.3,2.5c4.4,0,9.1-2.4,9.8-7.8L51.4,29.2z M46.3,29.3l-0.5,3.5c-0.3,2-2.3,2.9-4.2,2.9
			c-1.2,0-2.2-0.4-2.8-1.1c-0.4-0.5-0.6-1.1-0.5-1.7l0.5-3.7c0.2-1.4,1.7-2.8,4.2-2.8c1.2,0,2.2,0.4,2.8,1
			C46.2,27.9,46.4,28.5,46.3,29.3"/>
		<polygon class="st5" points="89.9,21.5 87.4,40.4 92.9,40.4 95.4,21.5 		"/>
		<path class="st5" d="M129.9,40.4h5.1l-5-18.9h-0.4H125h-0.4l-8.9,18.9h5.1l1.8-3.8h6.5L129.9,40.4z M124.4,32.6l2.2-4.8l1.3,4.8
			H124.4z"/>
		<polygon class="st5" points="87.1,21.5 71.9,21.5 71.2,26.6 76.2,26.6 74.4,40.4 79.5,40.4 81.4,26.6 86.4,26.6 86.5,25.6 
			86.5,25.6 		"/>
		<path class="st5" d="M68.2,23.5c-1.2-1.3-2.9-2-5-2h-8.5l-2.4,18.9h5.1l0.5-3.8h3.7c4.7,0,8.1-2.9,8.4-6.9c0-0.3,0-0.5,0-0.7
			C70,26.8,69.4,24.9,68.2,23.5 M65,29.6c-0.1,1.3-1.1,2.4-2.9,2.4L62,32h-3.3h-0.3l0-0.3l0.6-5l0-0.2h0.2h3.3
			c0.8,0,1.4,0.3,1.8,0.7c0.4,0.5,0.6,1.2,0.6,2C65,29.4,65,29.5,65,29.6"/>
	</g>
</g>
</svg>
