<?xml version="1.0" encoding="utf-8"?>
<!-- Generator: Adobe Illustrator 25.0.1, SVG Export Plug-In . SVG Version: 6.00 Build 0)  -->
<svg version="1.1" id="Livello_1" xmlns="http://www.w3.org/2000/svg" xmlns:xlink="http://www.w3.org/1999/xlink" x="0px" y="0px"
	 viewBox="0 0 156 56" style="enable-background:new 0 0 156 56;" xml:space="preserve">
<style type="text/css">
	.st0{fill:#FFFFFF;}
</style>
<g>
	<g>
		<g>
			<g>
				<g>
					<path class="st0" d="M18.3,12.6c3.7,0,7,1.4,9.4,4c-2.3-7.8-8.5-12.4-15.2-14c0.1,0.2,0.1,0.5,0.2,0.7c0.9,3.8,2.7,6.8,5.1,9.2
						C17.9,12.6,18.1,12.6,18.3,12.6z"/>
					<path class="st0" d="M25.5,18.6c0.2,0,0.4,0,0.6,0c-3.4-1.1-6.3-2.9-8.7-5.2c-0.6,0-1.2,0.1-1.7,0.2c0.1,0.1,0.2,0.2,0.3,0.4
						C18.5,17.2,22,18.6,25.5,18.6z"/>
					<path class="st0" d="M26.7,18c0.4,0.1,0.8,0.2,1.3,0.3c0,0,0,0,0,0c0,0,0,0,0.1,0l0,0c0,0-0.1-0.1-0.1-0.1
						C28,18.1,27.9,18,27.9,18c0,0,0-0.1-0.1-0.1c-0.1-0.2-0.3-0.3-0.4-0.5c-0.1-0.1-0.2-0.2-0.3-0.3C27.1,17,27,17,26.9,16.9
						c-0.1-0.1-0.2-0.2-0.3-0.3c-0.1-0.1-0.1-0.1-0.2-0.2c-0.1-0.1-0.3-0.2-0.4-0.3c0,0-0.1-0.1-0.1-0.1c-0.1-0.1-0.3-0.2-0.4-0.3
						c0,0-0.1-0.1-0.1-0.1c-0.1-0.1-0.3-0.2-0.4-0.3c0,0-0.1-0.1-0.1-0.1c-0.1-0.1-0.3-0.2-0.4-0.3c0,0-0.1-0.1-0.1-0.1
						c-0.1-0.1-0.3-0.2-0.4-0.2c-0.1,0-0.1-0.1-0.2-0.1c-0.1-0.1-0.3-0.1-0.4-0.2c-0.1,0-0.2-0.1-0.2-0.1c-0.1-0.1-0.2-0.1-0.4-0.1
						c-0.1,0-0.2-0.1-0.3-0.1c-0.1,0-0.2-0.1-0.3-0.1c-0.1,0-0.2-0.1-0.3-0.1c-0.1,0-0.2-0.1-0.3-0.1c-0.1,0-0.2-0.1-0.3-0.1
						c-0.1,0-0.2,0-0.3-0.1c-0.1,0-0.2,0-0.4-0.1c-0.1,0-0.2,0-0.3,0c-0.1,0-0.2,0-0.3,0c-0.1,0-0.2,0-0.3,0c-0.1,0-0.2,0-0.3,0
						c-0.1,0-0.3,0-0.4,0c-0.1,0-0.1,0-0.2,0c1.6,1.5,3.5,2.7,5.6,3.7c0,0,0,0,0.1,0c0.4,0.2,0.8,0.3,1.2,0.5c0,0,0.1,0,0.1,0
						c0.4,0.1,0.8,0.3,1.2,0.4C26.7,18,26.7,18,26.7,18z"/>
				</g>
				<g>
					<path class="st0" d="M23.1,19.8c-2.8-1.3-5.6-1.9-8.3-1.9c-4.5,0-8.7,1.6-12.2,4c0.2,0.1,0.4,0.2,0.7,0.3
						c3.1,1.6,6.2,2.3,9.3,2.3c0.3,0,0.7,0,1,0C15.8,21.6,19.2,19.9,23.1,19.8z"/>
					<path class="st0" d="M13.8,25.3c-0.4,0.5-0.7,0.9-1,1.4c0.1,0,0.3,0,0.4,0c0.3,0,0.5,0,0.8,0c4,0,7.2-1.9,9.4-4.6
						C20.4,24.1,17.1,25.1,13.8,25.3z"/>
					<path class="st0" d="M24.6,20.6C24.6,20.6,24.6,20.6,24.6,20.6c-0.2,0-0.3,0-0.4,0c-0.3,0-0.5,0-0.8,0c-3.7,0-6.8,1.6-8.9,4
						C18.2,24.2,21.6,22.7,24.6,20.6C24.6,20.6,24.6,20.6,24.6,20.6z"/>
				</g>
				<path class="st0" d="M27.6,26.6c-1.6,2.5-4.2,4.5-8.3,6.4h0l0,0c0,0,0,0,0,0c0,0,0,0,0,0c0,0,0,0,0,0c0,0,0,0,0,0l0,0
					c9.1-5.7,10.6-14.6,10.7-15.1c0,0,0,0,0,0C30.1,18.2,30.2,22.5,27.6,26.6z"/>
				<path class="st0" d="M20.6,29.9c3-6.9,6.1-8.8,8.6-11.1c-0.6,2.4-2.8,8.6-9.4,13C20,31.2,20.3,30.6,20.6,29.9z"/>
				<path class="st0" d="M49.5,20.2c-1.7-1-3.8-1.7-6.5-1.7c-0.2,0-0.3,0-0.5,0c-5.3,0-9.2,3-11.4,6.9c-0.2,0.4-1.4,2.4-1.8,2.8
					c-1.9,2.5-4.8,4.3-8.3,4.8c3.4-1.8,5.6-3.7,7.1-5.9c2.8-4.4,2.6-9,2.6-9.2l0-0.7c0.9-0.9,2.2-1.5,3.7-1.5c0.1,0,0.1,0,0.2,0
					c1.9,0,3.2,0.8,3.9,1.9c0,0,0,0,0,0c0.1,0,0.1,0,0.2,0c0.2,0,0.5,0,0.7,0c4.1,0.1,7.4,1,10.1,2.4V20.2z"/>
			</g>
		</g>
	</g>
	<g>
		<polygon class="st0" points="111.4,21.5 105.8,29.8 103.1,21.5 98,21.5 95.5,40.4 100.6,40.4 101.9,30.7 104.6,38.9 110.1,30.7 
			108.9,40.4 113.9,40.4 116.4,21.5 		"/>
		<path class="st0" d="M51.2,29.2c0.3-2.1-0.2-3.9-1.4-5.3c-1.4-1.6-3.7-2.5-6.4-2.5c-4.2,0-9.1,2.4-9.8,7.8l-0.5,3.7
			c-0.3,2.1,0.2,3.9,1.4,5.3c1.4,1.6,3.7,2.5,6.3,2.5c4.4,0,9.1-2.4,9.8-7.8L51.2,29.2z M46.1,29.3l-0.5,3.5c-0.3,2-2.3,2.9-4.2,2.9
			c-1.2,0-2.2-0.4-2.8-1.1c-0.4-0.5-0.6-1.1-0.5-1.7l0.5-3.7c0.2-1.4,1.7-2.8,4.2-2.8c1.2,0,2.2,0.4,2.8,1
			C46,27.9,46.2,28.5,46.1,29.3"/>
		<polygon class="st0" points="89.7,21.5 87.2,40.4 92.6,40.4 95.1,21.5 		"/>
		<path class="st0" d="M129.7,40.4h5.1l-5-18.9h-0.4h-4.6h-0.4l-8.9,18.9h5.1l1.8-3.8h6.5L129.7,40.4z M124.2,32.6l2.2-4.8l1.3,4.8
			H124.2z"/>
		<polygon class="st0" points="86.9,21.5 71.6,21.5 71,26.6 76,26.6 74.2,40.4 79.3,40.4 81.1,26.6 86.2,26.6 86.3,25.6 86.3,25.6 
					"/>
		<path class="st0" d="M68,23.5c-1.2-1.3-2.9-2-5-2h-8.5l-2.4,18.9h5.1l0.5-3.8h3.7c4.7,0,8.1-2.9,8.4-6.9c0-0.3,0-0.5,0-0.7
			C69.8,26.8,69.2,24.9,68,23.5 M64.8,29.6c-0.1,1.3-1.1,2.4-2.9,2.4l-0.1,0h-3.3h-0.3l0-0.3l0.6-5l0-0.2h0.2h3.3
			c0.8,0,1.4,0.3,1.8,0.7c0.4,0.5,0.6,1.2,0.6,2C64.8,29.4,64.8,29.5,64.8,29.6"/>
	</g>
</g>
</svg>
