<svg width="128" height="33" viewBox="0 0 128 33" fill="none" xmlns="http://www.w3.org/2000/svg">
<g id="Frame" clip-path="url(#clip0_16491_8117)">
<g id="Group">
<path id="Vector" d="M33.6329 11.8086H46.591V14.2631H41.4959V28.0609H38.6941V14.2631H33.6216V11.8086H33.6329ZM46.0375 16.2932H48.4325V18.5641H48.4777C48.5568 18.243 48.7037 17.9333 48.9183 17.6351C49.133 17.3369 49.3928 17.0502 49.6978 16.8093C50.0029 16.557 50.3418 16.362 50.7146 16.2014C51.0874 16.0523 51.4715 15.972 51.8557 15.972C52.1494 15.972 52.364 15.9835 52.477 15.995C52.59 16.0064 52.703 16.0294 52.8272 16.0409V18.5412C52.6465 18.5068 52.4657 18.4839 52.2737 18.4609C52.0816 18.438 51.9008 18.4265 51.7201 18.4265C51.2908 18.4265 50.8841 18.5183 50.5 18.6903C50.1158 18.8624 49.7882 19.1262 49.5058 19.4588C49.2233 19.8029 48.9974 20.2158 48.8279 20.7204C48.6585 21.2251 48.5794 21.7986 48.5794 22.4523V28.0495H46.0262V16.2932H46.0375ZM64.5653 28.0609H62.0572V26.4208H62.0121C61.6957 27.0172 61.2325 27.4874 60.6112 27.843C59.9898 28.1986 59.3572 28.3821 58.7132 28.3821C57.188 28.3821 56.0809 28.0036 55.4031 27.2351C54.7252 26.4667 54.3863 25.3082 54.3863 23.7598V16.2932H56.9395V23.5075C56.9395 24.5398 57.1316 25.2738 57.527 25.6982C57.9111 26.1226 58.4647 26.3405 59.1651 26.3405C59.7074 26.3405 60.148 26.2602 60.5095 26.0882C60.871 25.9161 61.1647 25.6982 61.3794 25.4115C61.6053 25.1362 61.7635 24.7921 61.8652 24.4021C61.9669 24.0122 62.0121 23.5878 62.0121 23.129V16.3047H64.5653V28.0609ZM68.9148 24.2874C68.9939 25.0444 69.2763 25.572 69.7621 25.8817C70.2592 26.1799 70.8467 26.3405 71.5358 26.3405C71.773 26.3405 72.0442 26.3176 72.3492 26.2831C72.6542 26.2487 72.948 26.1685 73.2078 26.0652C73.479 25.962 73.6936 25.8014 73.8744 25.595C74.0438 25.3885 74.1229 25.1247 74.1116 24.7921C74.1003 24.4595 73.976 24.1842 73.7501 23.9778C73.5241 23.7598 73.2417 23.5993 72.8915 23.4616C72.5413 23.3355 72.1459 23.2208 71.694 23.129C71.2421 23.0373 70.7902 22.934 70.327 22.8308C69.8525 22.7276 69.3893 22.59 68.9487 22.4409C68.5081 22.2917 68.1127 22.0853 67.7624 21.8215C67.4122 21.5692 67.1298 21.2366 66.9264 20.8351C66.7118 20.4337 66.6101 19.9405 66.6101 19.3441C66.6101 18.7018 66.7683 18.1742 67.0733 17.7383C67.3783 17.3025 67.7737 16.9584 68.2369 16.6946C68.7114 16.4308 69.2311 16.2473 69.8073 16.1326C70.3835 16.0294 70.937 15.972 71.4567 15.972C72.0555 15.972 72.6316 16.0409 73.1739 16.167C73.7162 16.2932 74.2133 16.4996 74.6539 16.7978C75.0945 17.0846 75.456 17.4631 75.7497 17.9219C76.0435 18.3806 76.2242 18.9426 76.3033 19.5964H73.6371C73.5128 18.9771 73.2417 18.5527 72.8011 18.3462C72.3605 18.1283 71.8521 18.0251 71.2873 18.0251C71.1065 18.0251 70.8918 18.0366 70.6433 18.071C70.3948 18.1054 70.1688 18.1627 69.9429 18.243C69.7282 18.3233 69.5474 18.4495 69.3893 18.61C69.2424 18.7706 69.1633 18.9771 69.1633 19.2409C69.1633 19.562 69.2763 19.8143 69.491 20.0093C69.7056 20.2043 69.988 20.3649 70.3383 20.5025C70.6885 20.6287 71.0839 20.7434 71.5358 20.8351C71.9877 20.9269 72.4509 21.0301 72.9254 21.1333C73.3886 21.2366 73.8405 21.3742 74.2924 21.5233C74.7443 21.6724 75.1397 21.8788 75.4899 22.1426C75.8401 22.4064 76.1226 22.7276 76.3372 23.1176C76.5519 23.5075 76.6648 24.0007 76.6648 24.5742C76.6648 25.2738 76.5067 25.8588 76.1903 26.352C75.874 26.8337 75.4673 27.2351 74.9702 27.5333C74.4731 27.8315 73.9083 28.0609 73.2982 28.1986C72.6881 28.3362 72.0781 28.405 71.4793 28.405C70.745 28.405 70.0671 28.3247 69.4458 28.1527C68.8244 27.9806 68.2821 27.7283 67.8302 27.3957C67.3783 27.0516 67.0168 26.6272 66.757 26.1226C66.4971 25.6179 66.3616 25.01 66.339 24.3104H68.9148V24.2874ZM77.3427 16.2932H79.2745V12.7606H81.8278V16.2932H84.1324V18.2315H81.8278V24.5168C81.8278 24.7921 81.8391 25.0215 81.8617 25.2279C81.8843 25.4229 81.9407 25.595 82.0198 25.7326C82.0989 25.8702 82.2232 25.9735 82.3926 26.0423C82.5621 26.1111 82.7768 26.1455 83.0705 26.1455C83.2512 26.1455 83.432 26.1455 83.6128 26.134C83.7935 26.1226 83.9743 26.0996 84.155 26.0538V28.0609C83.8726 28.0953 83.5902 28.1183 83.3303 28.1527C83.0592 28.1871 82.788 28.1986 82.5056 28.1986C81.8278 28.1986 81.2855 28.1297 80.8788 28.0036C80.4721 27.8774 80.1444 27.6824 79.9185 27.4301C79.6813 27.1778 79.5344 26.8681 79.444 26.4896C79.3649 26.1111 79.3084 25.6753 79.2971 25.1935V18.2545H77.3653V16.2932H77.3427ZM85.94 16.2932H88.3577V17.8874H88.4029C88.7644 17.1993 89.2615 16.7176 89.9054 16.4193C90.5494 16.1211 91.2385 15.972 91.9955 15.972C92.9106 15.972 93.7014 16.1326 94.3792 16.4652C95.0571 16.7864 95.6219 17.2337 96.0738 17.8072C96.5257 18.3806 96.8534 19.0459 97.0793 19.8029C97.3053 20.5598 97.4182 21.3742 97.4182 22.2344C97.4182 23.0258 97.3166 23.7943 97.1132 24.5283C96.9099 25.2738 96.6048 25.9276 96.1981 26.5011C95.7914 27.0745 95.2717 27.5219 94.6391 27.8659C94.0064 28.21 93.2721 28.3821 92.4135 28.3821C92.0407 28.3821 91.6678 28.3477 91.295 28.2788C90.9222 28.21 90.5607 28.0953 90.2218 27.9462C89.8828 27.7971 89.5552 27.6021 89.2728 27.3613C88.979 27.1204 88.7418 26.8452 88.5384 26.5355H88.4933V32.4079H85.94V16.2932ZM94.865 22.1885C94.865 21.6609 94.7972 21.1448 94.6617 20.6401C94.5261 20.1355 94.3227 19.6996 94.0516 19.3097C93.7805 18.9197 93.4415 18.61 93.0461 18.3806C92.6394 18.1512 92.1762 18.0251 91.6565 18.0251C90.5833 18.0251 89.7699 18.4036 89.2276 19.1606C88.6853 19.9176 88.4142 20.9269 88.4142 22.1885C88.4142 22.7849 88.482 23.3355 88.6288 23.8401C88.7757 24.3448 88.979 24.7806 89.2728 25.1477C89.5552 25.5147 89.8941 25.8014 90.2895 26.0079C90.685 26.2258 91.1482 26.329 91.6678 26.329C92.2553 26.329 92.7411 26.2029 93.1478 25.962C93.5545 25.7211 93.8821 25.4 94.142 25.0215C94.4018 24.6315 94.5939 24.1957 94.7069 23.7025C94.8085 23.2093 94.865 22.7047 94.865 22.1885ZM99.3727 11.8086H101.926V14.2631H99.3727V11.8086ZM99.3727 16.2932H101.926V28.0609H99.3727V16.2932ZM104.208 11.8086H106.761V28.0609H104.208V11.8086ZM114.59 28.3821C113.664 28.3821 112.839 28.2215 112.116 27.9118C111.393 27.6021 110.783 27.1663 110.275 26.6272C109.778 26.0767 109.394 25.4229 109.134 24.6659C108.874 23.909 108.738 23.0717 108.738 22.1656C108.738 21.271 108.874 20.4452 109.134 19.6882C109.394 18.9312 109.778 18.2774 110.275 17.7269C110.772 17.1763 111.393 16.752 112.116 16.4423C112.839 16.1326 113.664 15.972 114.59 15.972C115.517 15.972 116.341 16.1326 117.064 16.4423C117.788 16.752 118.398 17.1878 118.906 17.7269C119.403 18.2774 119.787 18.9312 120.047 19.6882C120.307 20.4452 120.442 21.271 120.442 22.1656C120.442 23.0717 120.307 23.909 120.047 24.6659C119.787 25.4229 119.403 26.0767 118.906 26.6272C118.409 27.1778 117.788 27.6021 117.064 27.9118C116.341 28.2215 115.517 28.3821 114.59 28.3821ZM114.59 26.329C115.155 26.329 115.652 26.2029 116.07 25.962C116.488 25.7211 116.827 25.4 117.098 25.01C117.37 24.6201 117.562 24.1728 117.697 23.6796C117.821 23.1864 117.889 22.6817 117.889 22.1656C117.889 21.6609 117.821 21.1677 117.697 20.6631C117.573 20.1584 117.37 19.7226 117.098 19.3326C116.827 18.9426 116.488 18.633 116.07 18.3921C115.652 18.1512 115.155 18.0251 114.59 18.0251C114.025 18.0251 113.528 18.1512 113.11 18.3921C112.692 18.633 112.353 18.9541 112.082 19.3326C111.811 19.7226 111.619 20.1584 111.484 20.6631C111.359 21.1677 111.291 21.6609 111.291 22.1656C111.291 22.6817 111.359 23.1864 111.484 23.6796C111.608 24.1728 111.811 24.6201 112.082 25.01C112.353 25.4 112.692 25.7211 113.11 25.962C113.528 26.2143 114.025 26.329 114.59 26.329ZM121.188 16.2932H123.12V12.7606H125.673V16.2932H127.978V18.2315H125.673V24.5168C125.673 24.7921 125.684 25.0215 125.707 25.2279C125.73 25.4229 125.786 25.595 125.865 25.7326C125.944 25.8702 126.069 25.9735 126.238 26.0423C126.407 26.1111 126.622 26.1455 126.916 26.1455C127.097 26.1455 127.277 26.1455 127.458 26.134C127.639 26.1226 127.82 26.0996 128 26.0538V28.0609C127.718 28.0953 127.436 28.1183 127.176 28.1527C126.905 28.1871 126.633 28.1986 126.351 28.1986C125.673 28.1986 125.131 28.1297 124.724 28.0036C124.317 27.8774 123.99 27.6824 123.764 27.4301C123.527 27.1778 123.38 26.8681 123.289 26.4896C123.21 26.1111 123.154 25.6753 123.143 25.1935V18.2545H121.211V16.2932H121.188Z" fill="white"/>
<path id="Vector_2" d="M30.6498 11.8093H18.9458L15.3307 0.5L11.704 11.8093L0 11.7978L9.47822 18.7942L5.85244 30.0911L15.3307 23.1062L24.7982 30.0911L21.1831 18.7942L30.6498 11.8093Z" fill="#00B67A"/>
<path id="Vector_3" d="M21.9965 21.3518L21.1831 18.7944L15.3307 23.1064L21.9965 21.3518Z" fill="#005128"/>
</g>
</g>
<defs>
<clipPath id="clip0_16491_8117">
<rect width="128" height="32" fill="white" transform="translate(0 0.5)"/>
</clipPath>
</defs>
</svg>
