<svg width="402" height="96" viewBox="0 0 402 96" fill="none" xmlns="http://www.w3.org/2000/svg">
<g clip-path="url(#clip0_7690_5002)">
<path d="M29.723 86.9031H4.23479C1.8872 86.9031 0.000732422 88.8315 0.000732422 91.263C0.000732422 93.6525 1.8872 95.6228 4.23479 95.6228H29.7649C32.1125 95.6228 33.999 93.6944 33.999 91.263C33.999 88.8315 32.0706 86.9031 29.723 86.9031Z" fill="url(#paint0_linear_7690_5002)"/>
<path d="M4.23473 43.4726H46.743C49.0906 43.4726 50.9771 41.5442 50.9771 39.1127C50.9771 36.7232 49.0906 34.7529 46.743 34.7529H4.23473C1.88713 34.7529 0.000670837 36.6813 0.000670837 39.1127C-0.0412506 41.5442 1.88713 43.4726 4.23473 43.4726Z" fill="url(#paint1_linear_7690_5002)"/>
<path d="M46.7431 0.0419922H4.23479C1.8872 0.0419922 0.000732422 1.97037 0.000732422 4.40181C0.000732422 6.83326 1.8872 8.76165 4.23479 8.76165H46.7431C63.1344 8.76165 76.5073 22.3861 76.5073 39.1547C76.5073 55.9232 63.1763 69.5477 46.7431 69.5477H4.23479C1.8872 69.5477 0.000732422 71.476 0.000732422 73.9075C0.000732422 76.297 1.8872 78.2673 4.23479 78.2673H46.7431C67.8296 78.2673 85.0173 60.7442 85.0173 39.1966C85.0173 17.6071 67.8296 0.0419922 46.7431 0.0419922Z" fill="url(#paint2_linear_7690_5002)"/>
<path d="M4.23479 60.828H46.7431C58.4811 60.828 67.9972 51.1023 67.9972 39.1127C67.9972 27.1651 58.4811 17.3975 46.7431 17.3975H4.23479C1.8872 17.3975 0.000732422 19.3259 0.000732422 21.7573C0.000732422 24.1468 1.8872 26.1171 4.23479 26.1171H46.7431C53.7859 26.1171 59.4872 31.9442 59.4872 39.1547C59.4872 46.3232 53.7859 52.1922 46.7431 52.1922H4.23479C1.8872 52.1922 0.000732422 54.1206 0.000732422 56.5521C0.000732422 58.9835 1.8872 60.828 4.23479 60.828Z" fill="url(#paint3_linear_7690_5002)"/>
<path d="M182.401 74.9975C185.419 74.9975 187.599 75.8357 189.276 77.2611C189.653 77.5545 190.198 78.2254 190.198 79.2314C190.198 80.6567 189.024 81.7888 187.599 81.7889C186.844 81.7889 186.299 81.4951 185.964 81.2436C184.958 80.4471 183.91 79.9859 182.401 79.9859C179.55 79.986 177.538 82.5015 177.538 85.4779V85.5618C177.538 88.622 179.508 91.0951 182.652 91.0951C184.161 91.0951 185.335 90.5502 186.425 89.7118C186.719 89.5022 187.305 89.1669 187.976 89.1669C189.317 89.1669 190.366 90.2568 190.366 91.5983C190.366 92.3528 190.03 92.9397 189.527 93.4008C187.85 94.9519 185.712 96 182.401 96C176.28 95.958 171.836 91.305 171.836 85.5618V85.4779C171.836 79.7347 176.238 74.9976 182.401 74.9975Z" fill="white"/>
<path fill-rule="evenodd" clip-rule="evenodd" d="M202.355 74.9975C209.063 74.9976 212.039 80.5311 212.039 84.6812C212.039 86.3162 210.865 87.4061 209.356 87.4061H198.079C198.624 90.0052 200.427 91.3469 202.984 91.3469C204.577 91.3469 205.877 90.8437 207.05 90.0053C207.469 89.7119 207.847 89.5444 208.434 89.5444C209.692 89.5444 210.656 90.5084 210.656 91.8079C210.656 92.5624 210.32 93.1074 209.901 93.4847C208.182 95.0358 205.877 95.9582 202.942 95.9582C196.905 95.9582 192.42 91.7242 192.42 85.5618V85.4779C192.42 79.7347 196.528 74.9975 202.355 74.9975ZM202.397 79.6089C200.05 79.6089 198.498 81.2858 198.037 83.885H206.631C206.296 81.3278 204.787 79.6089 202.397 79.6089Z" fill="white"/>
<path fill-rule="evenodd" clip-rule="evenodd" d="M236.102 74.9975C242.809 74.9976 245.786 80.531 245.786 84.6812C245.786 86.3162 244.612 87.4061 243.103 87.4061H231.826C232.371 90.0052 234.174 91.3469 236.731 91.3469C238.324 91.3469 239.623 90.8437 240.797 90.0053C241.216 89.7119 241.594 89.5444 242.181 89.5444C243.438 89.5444 244.402 90.5084 244.402 91.8079C244.402 92.5624 244.067 93.1074 243.648 93.4847C241.887 95.0358 239.623 95.9582 236.689 95.9582C230.652 95.9582 226.167 91.7242 226.167 85.5618V85.4779C226.167 79.7347 230.275 74.9975 236.102 74.9975ZM236.144 79.6089C233.796 79.6089 232.245 81.2858 231.784 83.885H240.378C240.042 81.3278 238.533 79.6089 236.144 79.6089Z" fill="white"/>
<path d="M274.083 68.7933C278.065 68.7933 280.706 69.7154 283.054 71.3503C283.599 71.7695 284.27 72.5661 284.27 73.656C284.27 75.249 283.012 76.5066 281.419 76.5066C280.581 76.5066 280.077 76.2133 279.658 75.9199C278.065 74.788 276.388 74.1169 273.915 74.1169C269.723 74.117 266.369 77.8481 266.369 82.2916V82.3755C266.369 87.1965 269.681 90.718 274.334 90.7181C276.43 90.7181 278.317 90.1731 279.784 89.1251V85.3522H275.885C274.502 85.3522 273.37 84.2621 273.37 82.8787C273.37 81.4953 274.502 80.3634 275.885 80.3634H282.467C284.06 80.3634 285.36 81.6212 285.36 83.2561V89.6279C285.36 91.3047 284.731 92.4788 283.347 93.3173C281.209 94.6168 278.107 95.9582 274.167 95.9582C265.95 95.9582 260.333 90.2149 260.333 82.4595V82.3755C260.333 74.9136 266.16 68.7933 274.083 68.7933Z" fill="white"/>
<path d="M165.087 75.2072C166.68 75.2072 167.938 76.4647 167.938 78.0577V92.8981H167.98C167.98 94.491 166.722 95.7486 165.129 95.7486C163.536 95.7485 162.278 94.4909 162.278 92.8981V92.6885C160.979 94.3652 159.26 95.9161 156.368 95.9161C152.05 95.9161 149.534 93.0655 149.534 88.4541V78.0577C149.534 76.4647 150.792 75.2072 152.385 75.2072C153.978 75.2072 155.236 76.4647 155.236 78.0577V86.6516C155.236 89.3346 156.493 90.7598 158.673 90.7598C160.853 90.7598 162.237 89.3765 162.237 86.6516V78.0577C162.237 76.4647 163.494 75.2072 165.087 75.2072Z" fill="white"/>
<path fill-rule="evenodd" clip-rule="evenodd" d="M298.732 75.2072C301.835 75.2072 304.098 76.0454 305.524 77.4707C307.033 78.9798 307.704 81.202 307.704 83.885V93.0237C307.704 94.5748 306.446 95.7486 304.937 95.7486C303.302 95.7486 302.212 94.5746 302.212 93.4008V93.359C300.828 94.9101 298.9 95.9161 296.133 95.9161C292.319 95.916 289.216 93.7363 289.216 89.754V89.67C289.216 85.2683 292.57 83.2561 297.307 83.2561C299.319 83.2562 300.787 83.5915 302.212 84.0946V83.7589C302.212 81.4114 300.745 80.0699 297.894 80.0699C296.301 80.0699 295.044 80.2794 293.954 80.6148C293.618 80.7405 293.409 80.7826 293.115 80.7826C291.816 80.7826 290.767 79.7765 290.767 78.4769C290.767 77.4708 291.396 76.5906 292.319 76.2552C294.121 75.5845 296.091 75.2072 298.732 75.2072ZM298.649 86.6516C296.217 86.6517 294.708 87.6158 294.708 89.4183V89.5022C294.708 91.0532 295.966 91.9335 297.81 91.9335C300.493 91.9755 302.296 90.5084 302.296 88.4124V87.4061C301.332 86.945 300.032 86.6516 298.649 86.6516Z" fill="white"/>
<path d="M319.19 75.0815C321.286 75.0815 323.466 75.6261 325.436 76.6322C326.275 77.0514 326.778 77.8063 326.778 78.7705C326.778 80.0281 325.772 81.0339 324.472 81.034C324.053 81.034 323.802 80.9503 323.424 80.7826C321.831 79.9861 320.28 79.525 319.064 79.525C317.681 79.525 316.968 80.1118 316.968 80.9083V80.9922C316.968 82.1241 318.897 82.6273 321.076 83.3818C323.885 84.3041 327.155 85.6876 327.155 89.3347V89.4183C327.155 93.9038 323.801 95.9161 319.484 95.9161C316.926 95.9161 314.285 95.2034 311.854 93.6104C311.267 93.2331 310.764 92.5625 310.764 91.6404C310.764 90.3828 311.728 89.3765 313.028 89.3765C313.447 89.3765 313.866 89.5024 314.159 89.67C316.088 90.8857 317.974 91.4725 319.609 91.4726C321.244 91.4726 321.999 90.8857 321.999 89.9636V89.8796C321.999 88.622 320.029 88.2447 317.849 87.574C315.04 86.7355 311.854 85.4358 311.854 81.5371V81.4532C311.854 77.345 315.166 75.0815 319.19 75.0815Z" fill="white"/>
<path d="M130.251 69.0446C131.844 69.0447 133.143 70.3025 133.143 71.9374V90.2989H143.833C145.3 90.2989 146.474 91.4726 146.474 92.9398C146.474 94.4071 145.3 95.5808 143.833 95.5808H130.251C128.658 95.5808 127.358 94.3233 127.358 92.6885V71.9374C127.358 70.3444 128.616 69.0446 130.251 69.0446Z" fill="white"/>
<path d="M233.629 0.754503C236.018 0.754516 237.737 2.51546 237.737 4.98881V35.885H255.637C255.973 35.885 256.308 35.8848 256.308 36.262C258.362 36.5974 260.123 38.7355 259.746 40.8316C259.368 42.9276 257.314 44.6881 255.26 44.3528H233.251C230.862 44.0173 229.143 42.2568 229.143 39.7836V4.98881C229.52 2.51545 231.239 0.754503 233.629 0.754503Z" fill="white"/>
<path d="M207.134 0.419214C209.524 0.419214 211.578 2.17994 211.242 4.61135V24.9854C211.242 37.2683 204.703 44.311 193.007 44.311C181.311 44.311 174.771 37.6454 174.771 25.3624V4.65352C175.148 2.18018 176.867 0.419239 179.256 0.419214C181.646 0.419214 183.365 2.18016 183.365 4.65352V25.0272C183.365 32.4053 186.802 36.262 193.007 36.262C199.211 36.262 202.649 32.4052 202.649 25.3624V4.65352C203.026 2.18018 204.745 0.419239 207.134 0.419214Z" fill="white"/>
<path d="M288.252 0C293.073 0 297.559 1.42557 301.667 4.23431C303.05 4.94696 303.721 6.33017 303.721 7.75546C303.721 10.2288 302.002 11.9897 299.613 11.9898C298.607 11.9898 297.894 11.6124 297.223 11.277C294.834 9.18099 291.396 8.13296 288.294 8.13291C284.815 8.13291 282.425 9.89349 282.425 12.3668C282.425 14.7982 283.473 16.2237 291.731 18.3197C298.649 20.0804 305.188 22.8892 304.727 30.8962C304.727 38.9451 298.9 44.2271 289.594 44.2271C283.725 44.2271 278.233 42.4665 273.747 38.9451C272.699 38.2325 272.028 36.8489 272.028 35.4236C272.028 34.7529 272.364 34.0401 272.699 33.3275C274.083 31.5669 276.514 30.8542 278.568 32.2795C281.671 35.0882 285.485 36.5138 289.594 36.5138C293.367 36.5138 296.133 34.7529 296.133 31.9442C296.133 29.8481 295.462 28.0873 287.539 26.3266C278.61 23.8951 273.454 21.0864 273.454 12.9956C273.454 5.28215 279.658 2.09686e-05 288.252 0Z" fill="white"/>
<path d="M350.254 0.754503C352.308 0.754562 354.027 2.51535 354.027 4.61135C354.027 6.70739 352.308 8.46815 350.254 8.4682H330.635V17.9423H347.487C349.876 17.9423 351.596 20.0805 351.596 22.1766C351.26 24.2726 349.541 26.0334 347.487 26.0334H330.635V35.885H350.254C352.643 35.885 354.362 37.6455 353.943 40.1189C353.943 42.2149 352.224 43.9757 350.17 43.9757H326.107C323.718 43.6403 321.999 41.8794 321.999 39.4061V4.98881C321.999 2.51545 324.095 0.754503 326.484 0.754503H350.254Z" fill="white"/>
<path d="M398.086 0.754503C400.14 0.754503 401.859 2.51532 401.859 4.61135C401.859 6.70742 400.14 8.4682 398.086 8.4682H378.467V17.9423H395.32C397.709 17.9423 399.428 20.0805 399.428 22.1766C399.092 24.2726 397.374 26.0334 395.32 26.0334H378.467V35.885H398.421C400.476 35.885 402.195 37.6455 401.817 40.1189C401.817 42.2149 400.099 43.9757 398.044 43.9757H373.981C371.592 43.6403 369.873 41.8795 369.873 39.4061V4.98881C370.25 2.51545 371.969 0.754503 374.359 0.754503H398.086Z" fill="white"/>
<path fill-rule="evenodd" clip-rule="evenodd" d="M144.504 0.419214C154.146 0.754651 160.685 6.37215 160.266 14.8821C160.266 24.021 153.391 29.9738 143.078 29.9738H135.491V39.4483C135.491 41.9216 133.772 43.6822 131.382 43.6822C129.328 43.6821 127.274 41.9215 127.274 39.4483V4.65352C127.274 2.51553 129.37 0.419214 131.76 0.419214H144.504ZM136.245 22.1766H143.833C148.612 22.1766 152.091 19.3678 152.091 15.1339C152.091 10.9417 148.989 8.4682 143.833 8.4682H136.245V22.1766Z" fill="white"/>
</g>
<defs>
<linearGradient id="paint0_linear_7690_5002" x1="-0.465392" y1="91.2263" x2="84.5723" y2="91.2263" gradientUnits="userSpaceOnUse">
<stop stop-color="#FF7900"/>
<stop offset="1" stop-color="#FF007E"/>
</linearGradient>
<linearGradient id="paint1_linear_7690_5002" x1="-0.465453" y1="39.1329" x2="84.5722" y2="39.1329" gradientUnits="userSpaceOnUse">
<stop stop-color="#FF7900"/>
<stop offset="1" stop-color="#FF007E"/>
</linearGradient>
<linearGradient id="paint2_linear_7690_5002" x1="-0.465392" y1="39.1329" x2="84.5693" y2="39.1329" gradientUnits="userSpaceOnUse">
<stop stop-color="#FF7900"/>
<stop offset="1" stop-color="#FF007E"/>
</linearGradient>
<linearGradient id="paint3_linear_7690_5002" x1="-0.465392" y1="39.1329" x2="84.5722" y2="39.1329" gradientUnits="userSpaceOnUse">
<stop stop-color="#FF7900"/>
<stop offset="1" stop-color="#FF007E"/>
</linearGradient>
<clipPath id="clip0_7690_5002">
<rect width="402" height="96" fill="white"/>
</clipPath>
</defs>
</svg>
