<svg xmlns="http://www.w3.org/2000/svg" xmlns:xlink="http://www.w3.org/1999/xlink" id="Layer_1" x="0px" y="0px" width="350px" height="92px" viewBox="0 0 350 92" xml:space="preserve"> <g> <path fill="#3D2877" d="M8.242,22.13c0-0.42-0.239-0.66-0.661-0.66h-1.14v-4.352h4.471c1.5,0,2.01,0.689,2.01,1.351 c0,0.18,0,0.27,0,0.27h0.061c0,0,1.35-1.981,4.621-1.981c4.201,0,6.961,3.301,6.961,8.102c0,4.891-3.09,8.073-7.202,8.073 c-2.521,0-3.93-1.321-3.93-1.321h-0.061c0,0,0.061,0.54,0.061,1.321v5.64H8.242V22.13z M16.314,28.643 c1.621,0,3.031-1.321,3.031-3.691c0-2.311-1.229-3.812-3.031-3.812c-1.56,0-3.03,1.14-3.03,3.812 C13.284,26.811,14.274,28.643,16.314,28.643z"></path> <path fill="#3D2877" d="M34.437,16.759c4.892,0,8.763,3.271,8.763,8.131c0,4.832-3.871,8.042-8.732,8.042 c-4.862,0-8.732-3.211-8.732-8.042C25.735,20.03,29.606,16.759,34.437,16.759z M34.468,28.612c1.89,0,3.51-1.41,3.51-3.721 c0-2.34-1.62-3.811-3.51-3.811c-1.891,0-3.511,1.471-3.511,3.811C30.957,27.202,32.577,28.612,34.468,28.612z"></path> <path fill="#3D2877" d="M45.748,22.13c0-0.42-0.24-0.66-0.661-0.66h-1.14v-4.352h4.591c1.41,0,2.191,0.57,2.191,1.98v0.811 c0,0.479-0.06,0.78-0.06,0.78h0.06c0.66-2.101,2.61-3.841,4.921-3.841c0.299,0,0.599,0.061,0.599,0.061v5.102 c0,0-0.418-0.091-1.049-0.091c-1.231,0-3.24,0.391-3.991,2.702c-0.18,0.57-0.271,1.26-0.271,2.1v5.852h-5.191V22.13L45.748,22.13z"></path> <path fill="#3D2877" d="M59.1,21.17h-1.982v-4.051h2.131v-4.171h5.04v4.171h3.242v4.051H64.29v5.011 c0,1.74,1.772,1.981,2.762,1.981c0.419,0,0.69-0.031,0.69-0.031v4.501c0,0-0.57,0.089-1.411,0.089c-2.46,0-7.232-0.66-7.232-5.85 V21.17H59.1z"></path> <path fill="#3D2877" d="M78.033,22.85h0.209v-0.18c0-1.47-0.689-2.011-1.98-2.011c-0.661,0-1.35,0.15-1.35,0.75V22.1h-4.801v-1.71 c0-3.451,4.38-3.63,6.151-3.63c5.402,0,7.172,2.76,7.172,6.301v4.501c0,0.421,0.24,0.661,0.66,0.661h1.141v4.35h-4.501 c-1.501,0-2.041-0.93-2.041-1.618c0-0.121,0-0.27,0-0.27h-0.06c0,0-1.08,2.249-4.321,2.249c-2.882,0-5.251-1.919-5.251-4.981 C69.06,23.36,75.632,22.85,78.033,22.85z M75.752,28.972c1.351,0,2.551-1.47,2.551-2.73v-0.24h-0.479 c-1.651,0-3.542,0.451-3.542,1.68C74.281,28.401,74.731,28.972,75.752,28.972z"></path> <path fill="#3D2877" d="M87.213,16.129c0-0.42-0.24-0.661-0.66-0.661h-1.141v-4.351h4.8c1.531,0,2.191,0.66,2.191,2.19v14.253 c0,0.42,0.24,0.66,0.66,0.66h1.141v4.351h-4.801c-1.531,0-2.19-0.659-2.19-2.189V16.129z"></path> <path fill="#3D2877" d="M103.085,16.759c4.561,0,7.143,3.181,7.143,7.471c0,0.511-0.12,1.561-0.12,1.561h-9.752 c0.389,1.95,1.95,2.82,3.6,2.82c2.222,0,4.112-1.619,4.112-1.619l2.071,3.48c0,0-2.491,2.46-6.603,2.46 c-5.521,0-8.493-3.992-8.493-8.103C95.043,20.299,98.105,16.759,103.085,16.759z M104.917,22.641c0-0.96-0.751-1.981-1.832-1.981 c-1.5,0-2.25,0.84-2.581,1.981H104.917z"></path> <path fill="#3D2877" d="M128.469,16.759c4.891,0,8.761,3.271,8.761,8.131c0,4.832-3.87,8.042-8.732,8.042 c-4.86,0-8.731-3.211-8.731-8.042C119.767,20.03,123.638,16.759,128.469,16.759z M128.498,28.612c1.892,0,3.512-1.41,3.512-3.721 c0-2.34-1.62-3.811-3.512-3.811c-1.888,0-3.509,1.471-3.509,3.811C124.988,27.202,126.608,28.612,128.498,28.612z"></path> <path fill="#3D2877" d="M139.839,21.17h-1.891v-4.051h1.891v-0.36c0-5.073,4.592-5.762,7.082-5.762c0.93,0,1.561,0.09,1.561,0.09 v4.381c0,0-0.36-0.06-0.84-0.06c-1.02,0-2.611,0.211-2.611,1.62v0.091h5.822v-0.36c0-5.073,4.589-5.762,7.083-5.762 c0.928,0,1.559,0.09,1.559,0.09v4.381c0,0-0.359-0.06-0.839-0.06c-1.02,0-2.611,0.211-2.611,1.62v0.091h2.851v4.051h-2.851v11.402 h-5.191V21.17h-5.822v11.402h-5.191V21.17z"></path> <path fill="#3D2877" d="M167.744,16.759c4.561,0,7.142,3.181,7.142,7.471c0,0.511-0.119,1.561-0.119,1.561h-9.754 c0.392,1.95,1.95,2.82,3.601,2.82c2.222,0,4.111-1.619,4.111-1.619l2.071,3.48c0,0-2.491,2.46-6.602,2.46 c-5.521,0-8.492-3.992-8.492-8.103C159.702,20.299,162.763,16.759,167.744,16.759z M169.574,22.641c0-0.96-0.75-1.981-1.831-1.981 c-1.5,0-2.25,0.84-2.582,1.981H169.574z"></path> <path fill="#3D2877" d="M177.794,22.13c0-0.42-0.239-0.66-0.66-0.66h-1.14v-4.352h4.59c1.412,0,2.191,0.57,2.191,1.98v0.811 c0,0.479-0.06,0.78-0.06,0.78h0.06c0.66-2.101,2.611-3.841,4.92-3.841c0.301,0,0.602,0.061,0.602,0.061v5.102 c0,0-0.421-0.091-1.05-0.091c-1.231,0-3.241,0.391-3.991,2.702c-0.18,0.57-0.271,1.26-0.271,2.1v5.852h-5.19V22.13L177.794,22.13z"></path> <path fill="#3D2877" d="M191.146,21.17h-1.98v-4.051h2.132v-4.171h5.04v4.171h3.241v4.051h-3.241v5.011 c0,1.74,1.771,1.981,2.761,1.981c0.42,0,0.689-0.031,0.689-0.031v4.501c0,0-0.569,0.089-1.41,0.089c-2.46,0-7.231-0.66-7.231-5.85 V21.17z"></path> <path fill="#3D2877" d="M208.969,16.759c4.562,0,7.143,3.181,7.143,7.471c0,0.511-0.121,1.561-0.121,1.561h-9.751 c0.388,1.95,1.949,2.82,3.6,2.82c2.22,0,4.112-1.619,4.112-1.619l2.069,3.48c0,0-2.491,2.46-6.602,2.46 c-5.522,0-8.492-3.992-8.492-8.103C200.927,20.299,203.985,16.759,208.969,16.759z M210.798,22.641c0-0.96-0.749-1.981-1.829-1.981 c-1.502,0-2.252,0.84-2.582,1.981H210.798z"></path> </g> <g> <path fill="#A0237F" d="M126.592,43.668c0-0.263-0.151-0.415-0.415-0.415h-0.717v-2.735h3.018c0.962,0,1.377,0.415,1.377,1.377 v8.96c0,0.263,0.15,0.414,0.415,0.414h0.716v2.734h-3.018c-0.962,0-1.376-0.415-1.376-1.377V43.668z"></path> <path fill="#A0237F" d="M132.57,47.439c0-0.263-0.152-0.414-0.415-0.414h-0.716V44.29h3.018c0.961,0,1.375,0.415,1.375,1.376v4.319 c0,0.906,0.359,1.283,1.039,1.283c1.395,0,2.056-1.225,2.056-2.678V44.29h3.264v6.563c0,0.264,0.149,0.415,0.414,0.415h0.716v2.735 h-2.885c-0.887,0-1.377-0.433-1.377-1.094v-0.132c0-0.095,0.019-0.226,0.019-0.226h-0.038c-0.528,1.036-1.717,1.679-3.018,1.679 c-1.925,0-3.452-0.906-3.452-3.641V47.439L132.57,47.439z"></path> <path fill="#A0237F" d="M149.449,44.064c1.358,0,3.583,0.528,3.583,2.281v1.342h-2.828v-0.511c0-0.304-0.358-0.415-0.755-0.415 c-1.377,0-2.207,1.036-2.207,2.337c0,1.66,1.246,2.321,2.453,2.321c1.396,0,2.678-1.265,2.678-1.265l1.302,2.189 c0,0-1.527,1.886-4.301,1.886c-3.47,0-5.412-2.415-5.412-5.095C143.96,46.572,145.771,44.064,149.449,44.064z"></path> <path fill="#A0237F" d="M159.142,44.064c2.868,0,4.49,2,4.49,4.695c0,0.321-0.076,0.982-0.076,0.982h-6.13 c0.246,1.225,1.227,1.772,2.264,1.772c1.395,0,2.584-1.018,2.584-1.018l1.302,2.187c0,0-1.566,1.548-4.149,1.548 c-3.471,0-5.338-2.51-5.338-5.095C154.087,46.29,156.012,44.064,159.142,44.064z M160.293,47.761c0-0.604-0.471-1.245-1.151-1.245 c-0.943,0-1.414,0.529-1.622,1.245H160.293z"></path> <path fill="#A0237F" d="M174.684,44.064c2.867,0,4.489,2,4.489,4.695c0,0.321-0.076,0.982-0.076,0.982h-6.13 c0.246,1.225,1.225,1.772,2.264,1.772c1.395,0,2.584-1.018,2.584-1.018l1.303,2.187c0,0-1.565,1.548-4.15,1.548 c-3.471,0-5.338-2.51-5.338-5.095C169.628,46.29,171.553,44.064,174.684,44.064z M175.833,47.761c0-0.604-0.472-1.245-1.149-1.245 c-0.943,0-1.415,0.529-1.623,1.245H175.833z"></path> <path fill="#A0237F" d="M189.526,44.064c1.98,0,2.811,1.132,2.811,1.132h0.038c0,0,0-0.057,0-0.133 c0-0.264,0.301-0.773,1.036-0.773h2.943v2.735h-0.679c-0.246,0-0.416,0.132-0.416,0.359v5.733c0,3.545-2.829,4.848-5.488,4.848 c-1.303,0-2.736-0.377-3.678-0.867l0.941-2.546c0,0,1.189,0.62,2.718,0.62c1.17,0,2.244-0.432,2.244-1.865v-0.152 c0-0.112,0.019-0.356,0.019-0.356h-0.037c-0.564,0.622-1.303,0.922-2.434,0.922c-2.924,0-4.377-2.395-4.377-4.884 C185.169,46.366,186.585,44.064,189.526,44.064z M192.073,48.873c0-1.716-0.906-2.093-1.888-2.093c-1.15,0-1.734,0.83-1.734,1.942 c0,1.207,0.563,2.282,1.866,2.282C191.167,51.006,192.073,50.571,192.073,48.873z"></path> <path fill="#A0237F" d="M202.709,47.893h0.132v-0.113c0-0.924-0.435-1.265-1.244-1.265c-0.416,0-0.849,0.096-0.849,0.473v0.434 h-3.018v-1.075c0-2.168,2.754-2.281,3.866-2.281c3.395,0,4.509,1.734,4.509,3.959v2.832c0,0.263,0.151,0.414,0.414,0.414h0.719 v2.734h-2.831c-0.942,0-1.282-0.583-1.282-1.018c0-0.075,0-0.17,0-0.17h-0.038c0,0-0.678,1.416-2.717,1.416 c-1.811,0-3.302-1.208-3.302-3.133C197.068,48.214,201.2,47.893,202.709,47.893z M201.276,51.741c0.849,0,1.602-0.924,1.602-1.717 v-0.151h-0.3c-1.039,0-2.226,0.283-2.226,1.058C200.351,51.383,200.636,51.741,201.276,51.741z"></path> <path fill="#A0237F" d="M209.386,50.363c0,0,1.358,1.397,2.848,1.397c0.473,0,0.735-0.133,0.735-0.474 c0-0.81-4.866-1.074-4.866-4.223c0-2.094,1.943-3,4-3c1.583,0,3.771,0.453,3.771,2.207v1.15h-2.828V46.95 c0-0.265-0.415-0.453-0.886-0.453c-0.454,0-0.869,0.15-0.869,0.453c0,1,4.924,0.867,4.924,4.131c0,1.962-1.716,3.15-3.98,3.15 c-2.791,0-4.3-1.773-4.3-1.773L209.386,50.363z"></path> </g> <rect x="229.363" y="17.435" fill="#3D2877" width="12.483" height="65.753"></rect> <g> <path fill="#3D2877" d="M280.473,35.576c-0.033,7.197-5.878,13.022-13.082,13.022h-0.002c-7.205,0-13.048-5.825-13.083-13.022 c0.035-7.198,5.878-13.023,13.085-13.024C274.595,22.552,280.439,28.378,280.473,35.576 M292.956,35.515h-0.003 c-0.066-14.065-11.486-25.445-25.563-25.445c-14.081,0-25.499,11.38-25.563,25.445h-0.003c0,0.02,0.001,0.04,0.001,0.061 c0,0.02-0.001,0.04-0.001,0.061h0.003c0.064,14.063,11.482,25.443,25.563,25.443c14.076,0,25.496-11.381,25.563-25.443h0.003 c0-0.021-0.001-0.042-0.002-0.061C292.955,35.554,292.956,35.534,292.956,35.515"></path> <path fill="#A0237F" d="M331.519,35.576c-0.034,7.197-5.879,13.022-13.084,13.022h-0.001c-7.207,0-13.048-5.825-13.082-13.022 c0.032-7.198,5.875-13.023,13.082-13.024C325.64,22.552,331.484,28.378,331.519,35.576 M344,35.515h-0.002 c-0.065-14.065-11.484-25.445-25.563-25.445s-25.496,11.38-25.563,25.445h-0.005c0,0.02,0.003,0.04,0.003,0.061 c0,0.02-0.003,0.04-0.003,0.061h0.005c0.066,14.063,11.484,25.443,25.563,25.443s25.498-11.381,25.563-25.443H344 c0-0.021-0.001-0.042-0.001-0.061C343.999,35.554,344,35.534,344,35.515"></path> </g> </svg>