<?xml version="1.0" encoding="utf-8"?>
<!-- Generator: Adobe Illustrator 16.0.0, SVG Export Plug-In . SVG Version: 6.00 Build 0)  -->
<!DOCTYPE svg PUBLIC "-//W3C//DTD SVG 1.1//EN" "http://www.w3.org/Graphics/SVG/1.1/DTD/svg11.dtd">
<svg version="1.1" id="Livello_1" xmlns="http://www.w3.org/2000/svg" xmlns:xlink="http://www.w3.org/1999/xlink" x="0px" y="0px"
	 width="300px" height="115px" viewBox="0 0 300 115" style="enable-background:new 0 0 300 115;" xml:space="preserve">
<style type="text/css">
<![CDATA[
	.st0{fill:#FFFFFF;}
]]>
</style>
<g>
	<path class="st0" d="M298.8,29.1c0.3-1.2,0.3-2.1-0.2-2.7c-0.5-0.6-1.1-0.9-1.8-0.9h-8.1c-1.7,0-2.8,0.9-3.1,2.7l-7.5,34.4
		c-0.3,1.7-0.6,3.1-0.8,4.3c-0.2,1.2-0.4,2.4-0.6,3.6c0-1.5-0.1-2.9-0.3-4s-0.5-2.5-0.7-3.9l-6.5-34.4c-0.3-1.8-1.4-2.7-3.1-2.7
		h-9.1c-0.8,0-1.3,0.3-1.8,0.9c-0.4,0.6-0.5,1.4-0.2,2.5l11.8,46.4c0.4,1.8,1.5,2.7,3.3,2.7h4.2c-0.6,1.9-1.6,3.9-3.2,5.9
		c-1.6,2.1-3.7,3.8-6.3,5.1c-0.8,0.4-1.3,0.9-1.6,1.6c-0.3,0.7-0.2,1.4,0.1,2.2l2.9,5.9c0.3,0.8,0.8,1.3,1.5,1.6
		c0.7,0.3,1.4,0.3,2.1-0.1l2.3-1.1c3-1.5,5.6-3.6,7.9-6.4c2.3-2.8,4.2-6.8,5.6-12L298.8,29.1z M232.4,46.3c-1.1,1.4-2.9,2.1-5.3,2.1
		c-2.4,0-4.2-0.7-5.3-2c-1.1-1.3-1.7-3.3-1.7-5.8c0-2.7,0.6-4.6,1.7-5.9c1.1-1.2,2.9-1.9,5.3-1.9c4.7,0,7.1,2.6,7.1,7.8
		C234.1,43,233.6,44.9,232.4,46.3 M246.7,63.1c-3-1.9-7.1-2.9-12.2-2.9h-9.8c-0.8,0-1.6-0.1-2.3-0.3c-0.7-0.2-1-0.7-1-1.5
		c0-0.4,0.1-0.7,0.2-0.9c0.1-0.2,0.3-0.5,0.5-0.8c1.7,0.3,3.4,0.5,4.9,0.5c6.3,0,11.2-1.5,14.8-4.4c3.6-3,5.3-7,5.3-12.1
		c0-1.5-0.3-2.8-0.8-3.9c-0.6-1.2-1.3-2.2-2.3-3.2l5-0.5c0.8-0.1,1.3-0.3,1.6-0.6c0.3-0.3,0.4-1,0.4-2v-2.9c0-0.9-0.2-1.5-0.7-1.9
		c-0.5-0.4-1.3-0.6-2.5-0.6h-11.3c-1.1,0-2.6-0.1-4.4-0.4c-1.8-0.3-3.5-0.4-5.2-0.4c-6.2,0-11.1,1.4-14.7,4.3
		c-3.6,2.9-5.3,7-5.3,12.3c0,2.9,0.6,5.4,1.8,7.5c1.2,2.2,2.9,3.9,5,5.3c-1.2,1-2.2,2.1-3,3.2c-0.8,1.2-1.2,2.5-1.2,4
		c0,1.7,0.4,3.1,1.1,4.2c0.8,1.1,1.7,2,3,2.6c1.2,0.6,2.5,1,4,1.2c1.5,0.2,2.9,0.3,4.3,0.3h10.8c2.6,0,4.3,0.3,5.1,1
		c0.9,0.7,1.3,1.7,1.3,3.2c0,1.5-0.8,2.8-2.4,3.7c-1.6,0.9-4.1,1.4-7.5,1.4c-2.1,0-4.1-0.3-6-1c-1.8-0.6-3-1.9-3.6-3.7
		c-0.2-0.7-0.5-1.2-0.8-1.6c-0.3-0.4-0.9-0.6-1.8-0.7l-7.5-0.3c-0.8-0.1-1.4,0.2-2,0.7c-0.6,0.5-0.8,1.2-0.8,1.8
		c0,2.6,0.6,4.8,1.8,6.6c1.2,1.8,2.8,3.2,4.8,4.2c2,1.1,4.4,1.8,7.1,2.3c2.7,0.5,5.5,0.7,8.5,0.7c2.8,0,5.5-0.2,8.1-0.7
		c2.7-0.5,5-1.3,7.1-2.5c2.1-1.2,3.8-2.7,5-4.7c1.3-1.9,1.9-4.3,1.9-7.3C251.2,68.1,249.7,65,246.7,63.1 M204.6,29.4
		c0.2-0.8,0.2-1.6-0.2-2.3c-0.3-0.8-1.1-1.4-2.2-2c-1.2-0.6-2.7-0.9-4.3-0.9c-2.4,0-4.5,0.7-6.2,2c-1.7,1.3-3.2,3-4.4,5l-0.7-2.7
		c-0.2-0.9-0.6-1.6-1.3-2.1c-0.7-0.5-1.4-0.8-2.1-0.8h-5.7c-0.8,0-1.4,0.3-2,0.9c-0.6,0.6-0.8,1.3-0.8,2.1v46.6
		c0,0.8,0.3,1.5,0.8,2.1c0.6,0.6,1.2,0.9,2,0.9h7.9c0.8,0,1.4-0.3,2-0.9c0.6-0.6,0.8-1.3,0.8-2.1V52.6c0-5.7,0.5-9.7,1.5-12
		c1-2.4,2.5-3.5,4.5-3.5c1.1,0,2,0.3,2.8,0.9c0.8,0.6,1.5,1,2.3,1.2c1.6,0.4,2.6-0.2,3.1-1.9L204.6,29.4z M139.5,47.1
		c0.1-1.6,0.2-3.1,0.5-4.5c0.2-1.4,0.6-2.7,1.1-3.8c0.5-1.1,1.1-1.9,1.9-2.6c0.8-0.6,1.8-0.9,3.1-0.9c1.2,0,2.3,0.3,3.1,1
		c0.8,0.7,1.4,1.5,1.9,2.6c0.4,1.1,0.8,2.3,1,3.8c0.2,1.4,0.3,2.9,0.3,4.4H139.5z M160.9,31.4c-3.2-4.8-8.3-7.2-15.2-7.2
		c-3.2,0-6,0.7-8.6,2c-2.5,1.3-4.7,3.2-6.4,5.6c-1.7,2.4-3.1,5.3-4,8.6c-0.9,3.3-1.4,7-1.4,10.9c0,9.3,2,16.2,5.9,20.7
		c3.9,4.5,9.3,6.8,16,6.8c3.4,0,6.3-0.2,8.7-0.7c2.4-0.5,4.8-1.3,7.1-2.3c0.6-0.3,1.1-0.7,1.5-1.3c0.4-0.5,0.4-1.2,0.2-2l-2.1-6.3
		c-0.2-0.7-0.5-1.3-0.9-1.7c-0.4-0.4-1.1-0.4-2-0.1c-1.4,0.6-2.9,1.1-4.4,1.5c-1.6,0.4-3.3,0.6-5.3,0.6c-2.1,0-3.9-0.3-5.1-0.8
		c-1.3-0.5-2.3-1.3-3-2.2c-0.7-0.9-1.2-2-1.6-3.3c-0.3-1.3-0.5-2.6-0.7-4.1h23.3c0.8,0,1.4-0.3,2-0.9c0.6-0.6,0.8-1.3,0.8-2.1
		C165.7,43.5,164.1,36.3,160.9,31.4 M115.9,37.8c0-4.1-1.1-7.4-3.4-9.9c-2.3-2.5-5.4-3.7-9.3-3.7c-2.7,0-5.2,0.6-7.4,1.7
		c-2.2,1.2-4.3,2.9-6.3,5.1l-0.6-2.9c-0.1-0.8-0.5-1.4-0.9-1.9c-0.5-0.5-1.1-0.7-2-0.7h-6.1c-0.8,0-1.4,0.3-2,0.9
		c-0.6,0.6-0.8,1.3-0.8,2.1v46.6c0,0.8,0.3,1.5,0.8,2.1c0.6,0.6,1.2,0.9,2,0.9h7.9c0.8,0,1.4-0.3,2-0.9c0.6-0.6,0.8-1.3,0.8-2.1
		V46.8c0-3.2,0.7-5.8,2.2-7.8c1.5-2,3.3-3,5.5-3c1.6,0,2.7,0.4,3.3,1.3c0.6,0.9,0.9,2,0.9,3.3v34.4c0,0.8,0.3,1.5,0.8,2.1
		c0.6,0.6,1.2,0.9,2,0.9h7.9c0.8,0,1.4-0.3,2-0.9c0.6-0.6,0.8-1.3,0.8-2.1V37.8z M64.3,2.8c-1.5-1.7-3.3-2.5-5.5-2.5
		c-2.2,0-4,0.8-5.5,2.5c-1.5,1.7-2.2,3.7-2.2,6c0,2.3,0.7,4.3,2.2,6c1.5,1.7,3.3,2.5,5.5,2.5c2.2,0,4-0.8,5.5-2.5
		c1.5-1.7,2.2-3.7,2.2-6C66.4,6.5,65.7,4.5,64.3,2.8 M65.5,28.4c0-0.8-0.3-1.5-0.8-2.1c-0.6-0.6-1.2-0.9-2-0.9h-7.9
		c-0.8,0-1.4,0.3-2,0.9c-0.6,0.6-0.8,1.3-0.8,2.1v46.6c0,0.8,0.3,1.5,0.8,2.1c0.6,0.6,1.2,0.9,2,0.9h7.9c0.8,0,1.4-0.3,2-0.9
		c0.6-0.6,0.8-1.3,0.8-2.1V28.4z M41.3,47.5c-1-2.5-2.3-4.6-3.8-6.4c-1.6-1.8-3.3-3.3-5.2-4.5c-1.9-1.2-3.8-2.4-5.7-3.4
		c-1.4-0.7-2.7-1.4-4-2.1c-1.3-0.7-2.4-1.4-3.4-2.2s-1.7-1.6-2.3-2.5c-0.6-0.9-0.9-1.9-0.9-2.9c0-5.1,2.5-7.6,7.4-7.6
		c2.6,0,4.6,0.3,6.1,0.8c1.5,0.5,3.1,1.1,4.7,1.7c1,0.4,1.7,0.4,2.3,0.1c0.6-0.3,0.9-0.9,1-1.7l1.5-6.4c0.1-0.8,0.1-1.5-0.1-2.1
		c-0.2-0.6-0.6-1.1-1.4-1.5c-2-0.8-4.2-1.5-6.6-2c-2.4-0.5-5-0.8-7.9-0.8c-3.3,0-6.2,0.5-8.8,1.5c-2.6,1-4.9,2.4-6.7,4.2
		c-1.9,1.8-3.3,3.9-4.3,6.4c-1,2.5-1.5,5.2-1.5,8.2c0,3.6,0.5,6.7,1.6,9.1c1,2.4,2.4,4.5,3.9,6.2c1.6,1.7,3.4,3.1,5.4,4.2
		c2,1.1,3.9,2.2,5.8,3.1c1.3,0.7,2.6,1.3,3.8,2c1.2,0.7,2.3,1.5,3.2,2.3c0.9,0.8,1.6,1.8,2.2,2.9c0.6,1.1,0.8,2.3,0.8,3.7
		c0,3.1-0.7,5.2-2.2,6.4c-1.5,1.2-3.5,1.9-6.2,1.9c-2.6,0-5.1-0.3-7.3-1c-2.2-0.7-4.4-1.4-6.5-2.2c-0.8-0.3-1.5-0.3-2.3,0.1
		c-0.8,0.4-1.2,0.9-1.3,1.7l-1.5,6.9c-0.1,0.8-0.1,1.5,0.2,2.2c0.3,0.7,0.8,1.2,1.5,1.5c2.4,1,5.2,1.8,8.3,2.5
		c3.1,0.6,6.3,0.9,9.4,0.9c3.3,0,6.4-0.5,9.1-1.4c2.8-0.9,5.1-2.4,7.1-4.2c1.9-1.9,3.4-4.2,4.5-7c1.1-2.8,1.6-6,1.6-9.7
		C42.8,52.9,42.3,50,41.3,47.5"/>
	<path class="st0" d="M249.2,106.3c-0.3-0.7-0.8-1.2-1.3-1.7c-0.5-0.5-1.1-0.9-1.8-1.2c-0.7-0.3-1.4-0.7-2.1-1
		c-0.6-0.2-1.1-0.4-1.5-0.6c-0.5-0.2-0.9-0.4-1.3-0.6c-0.4-0.2-0.7-0.4-0.9-0.7c-0.2-0.3-0.3-0.6-0.3-0.9c0-0.6,0.2-1,0.7-1.4
		c0.5-0.4,1.2-0.5,2.1-0.5c0.9,0,1.8,0.1,2.4,0.4c0.7,0.2,1.2,0.4,1.5,0.6c0.3,0.1,0.6,0.1,0.8,0c0.2-0.1,0.4-0.3,0.6-0.6l0.6-1.4
		c0.1-0.3,0.1-0.5,0-0.7s-0.4-0.4-0.7-0.5c-0.3-0.1-0.9-0.3-1.8-0.6c-0.9-0.2-2.1-0.4-3.6-0.4c-2.4,0-4.3,0.5-5.6,1.5
		c-1.3,1-2,2.4-2,4.2c0,0.9,0.2,1.6,0.5,2.3c0.4,0.6,0.8,1.2,1.4,1.6c0.6,0.5,1.2,0.8,1.8,1.2c0.7,0.3,1.4,0.6,2,0.9
		c0.6,0.2,1.1,0.5,1.5,0.7c0.5,0.2,0.9,0.4,1.2,0.6c0.4,0.2,0.6,0.5,0.8,0.8c0.2,0.3,0.3,0.6,0.3,1.1c0,0.7-0.2,1.2-0.7,1.6
		c-0.5,0.3-1.2,0.5-2.2,0.5c-1.1,0-2.2-0.1-3.1-0.4c-0.9-0.3-1.7-0.5-2.3-0.8c-0.3-0.1-0.6-0.1-0.8,0c-0.2,0.1-0.4,0.4-0.5,0.7
		l-0.7,1.7c-0.2,0.6,0,1,0.7,1.2c0.5,0.2,1.2,0.4,2.4,0.8c1.1,0.3,2.6,0.5,4.5,0.5c1.3,0,2.5-0.2,3.5-0.5c1-0.3,1.8-0.7,2.5-1.3
		c0.6-0.5,1.1-1.2,1.5-1.9c0.3-0.7,0.5-1.5,0.5-2.4C249.7,107.8,249.5,107,249.2,106.3 M222.2,107.8c0,0.4-0.1,0.8-0.3,1.2
		c-0.2,0.4-0.5,0.8-0.9,1.1c-0.4,0.3-0.9,0.6-1.5,0.8c-0.6,0.2-1.2,0.3-1.9,0.3c-0.8,0-1.5-0.2-2-0.7s-0.7-1.2-0.7-2.2
		c0-1.3,0.4-2.2,1.3-2.6c0.9-0.5,2-0.8,3.4-0.8l2.7-0.1V107.8z M227.4,112.2c-0.2-0.6-0.2-1.2-0.2-1.7v-8.9c0-2.6-0.7-4.5-2.1-5.7
		s-3.6-1.7-6.5-1.7c-1.5,0-2.7,0.1-3.9,0.4c-1.1,0.2-1.9,0.4-2.2,0.5c-0.7,0.2-0.9,0.5-0.8,1.1l0.5,1.8c0.2,0.6,0.6,0.8,1.4,0.6
		c0.4-0.1,1-0.3,1.8-0.4c0.8-0.2,1.8-0.3,2.9-0.3c1.5,0,2.6,0.3,3.1,0.8c0.5,0.5,0.8,1.3,0.8,2.4v1l-4.5,0.2
		c-1.1,0.1-2.2,0.2-3.2,0.5c-1,0.3-1.8,0.7-2.5,1.2c-0.7,0.5-1.3,1.2-1.7,2s-0.6,1.7-0.6,2.7c0,1.9,0.6,3.4,1.7,4.5
		c1.2,1.1,2.7,1.6,4.8,1.6c1.4,0,2.6-0.2,3.7-0.7c1.1-0.4,2-1.1,2.7-2.1l0.3,1.5c0.1,0.6,0.5,0.9,1.2,0.9h2.6c0.4,0,0.6-0.1,0.8-0.2
		c0.2-0.2,0.2-0.4,0.1-0.7L227.4,112.2z M202.7,99.4c0-0.3-0.1-0.5-0.3-0.7c-0.2-0.2-0.5-0.3-0.8-0.3h-8.2c-0.3,0-0.6,0.1-0.8,0.3
		c-0.2,0.2-0.3,0.4-0.3,0.7v1.9c0,0.3,0.1,0.5,0.3,0.7c0.2,0.2,0.5,0.3,0.8,0.3h4.3v8.1c-0.3,0.1-0.7,0.2-1.3,0.2
		c-0.6,0.1-1.2,0.1-1.8,0.1c-1.3,0-2.5-0.2-3.5-0.5c-1-0.3-1.9-0.9-2.6-1.7c-0.7-0.8-1.2-1.8-1.6-3.1s-0.6-2.8-0.6-4.7
		c0-3.6,0.7-6.3,2-7.9c1.4-1.7,3.3-2.5,5.8-2.5c1.5,0,2.7,0.2,3.7,0.5c1,0.3,1.8,0.6,2.2,0.8c0.6,0.3,1.1,0.1,1.4-0.5l1-1.8
		c0.3-0.5,0.1-1-0.5-1.3c-0.2-0.1-0.5-0.3-0.9-0.4c-0.4-0.2-1-0.4-1.6-0.5c-0.7-0.2-1.4-0.3-2.3-0.4c-0.9-0.1-1.8-0.2-2.9-0.2
		c-2.1,0-4,0.3-5.6,1c-1.7,0.6-3,1.6-4.2,2.8c-1.1,1.2-2,2.7-2.6,4.4c-0.6,1.7-0.9,3.7-0.9,5.8c0,2.2,0.3,4.2,0.8,6
		c0.5,1.8,1.3,3.3,2.4,4.5c1.1,1.2,2.4,2.1,4.1,2.8c1.7,0.6,3.7,1,6,1c1.3,0,2.6-0.1,3.9-0.3c1.3-0.2,2.4-0.4,3.3-0.7
		c0.6-0.2,1-0.4,1.2-0.7c0.2-0.2,0.3-0.6,0.3-1.1V99.4z M155.5,102.7c0.2-1.9,0.7-3.2,1.4-3.9c0.7-0.8,1.6-1.1,2.6-1.1
		c0.7,0,1.3,0.1,1.8,0.4c0.5,0.3,0.9,0.7,1.2,1.1c0.3,0.5,0.5,1,0.7,1.6c0.1,0.6,0.2,1.2,0.2,1.9H155.5z M167.7,99.9
		c-0.4-1.3-1-2.4-1.8-3.3s-1.7-1.5-2.8-1.9c-1.1-0.4-2.3-0.6-3.7-0.6c-1.4,0-2.7,0.2-3.8,0.7c-1.1,0.5-2.1,1.2-2.9,2.1
		c-0.8,0.9-1.4,2-1.8,3.2c-0.4,1.3-0.6,2.6-0.6,4.2c0,3.4,0.9,6,2.7,7.8c1.8,1.7,4.3,2.6,7.6,2.6c1.8,0,3.3-0.2,4.4-0.5
		c1.1-0.3,1.8-0.5,2.1-0.7c0.6-0.3,0.9-0.7,0.7-1.2l-0.7-1.7c-0.1-0.2-0.3-0.4-0.5-0.6c-0.2-0.2-0.5-0.2-0.9-0.1
		c-0.4,0.1-0.9,0.3-1.7,0.5c-0.8,0.2-1.8,0.4-2.9,0.4c-1,0-1.9-0.1-2.6-0.4c-0.7-0.2-1.3-0.6-1.7-1.1c-0.4-0.5-0.7-1-0.9-1.7
		c-0.2-0.6-0.3-1.4-0.4-2.2h11.7c0.3,0,0.6-0.1,0.8-0.3c0.2-0.2,0.3-0.4,0.3-0.7C168.3,102.8,168.1,101.2,167.7,99.9 M124.8,102.7
		c0.2-1.9,0.7-3.2,1.4-3.9c0.7-0.8,1.6-1.1,2.6-1.1c0.7,0,1.3,0.1,1.8,0.4c0.5,0.3,0.9,0.7,1.2,1.1c0.3,0.5,0.5,1,0.7,1.6
		c0.1,0.6,0.2,1.2,0.2,1.9H124.8z M137,99.9c-0.4-1.3-1-2.4-1.8-3.3c-0.8-0.9-1.7-1.5-2.8-1.9c-1.1-0.4-2.3-0.6-3.7-0.6
		c-1.4,0-2.7,0.2-3.8,0.7c-1.1,0.5-2.1,1.2-2.9,2.1c-0.8,0.9-1.4,2-1.8,3.2c-0.4,1.3-0.6,2.6-0.6,4.2c0,3.4,0.9,6,2.7,7.8
		c1.8,1.7,4.3,2.6,7.6,2.6c1.8,0,3.3-0.2,4.4-0.5c1.1-0.3,1.8-0.5,2.1-0.7c0.6-0.3,0.9-0.7,0.7-1.2l-0.7-1.7
		c-0.1-0.2-0.3-0.4-0.5-0.6c-0.2-0.2-0.5-0.2-0.9-0.1c-0.4,0.1-0.9,0.3-1.7,0.5s-1.8,0.4-2.9,0.4c-1,0-1.9-0.1-2.6-0.4
		c-0.7-0.2-1.3-0.6-1.7-1.1c-0.4-0.5-0.7-1-0.9-1.7c-0.2-0.6-0.3-1.4-0.4-2.2h11.7c0.3,0,0.6-0.1,0.8-0.3c0.2-0.2,0.3-0.4,0.3-0.7
		C137.7,102.8,137.5,101.2,137,99.9 M114,111c-0.1-0.2-0.2-0.4-0.4-0.6c-0.2-0.2-0.5-0.2-0.9-0.1c-0.3,0.1-0.7,0.2-1.4,0.3
		c-0.6,0.1-1.3,0.2-2.1,0.2c-1.7,0-3-0.5-3.8-1.6c-0.8-1.1-1.3-2.7-1.3-5c0-2.1,0.4-3.6,1.3-4.7c0.9-1.1,2.1-1.6,3.5-1.6
		c0.7,0,1.4,0.1,1.8,0.2c0.5,0.1,0.9,0.2,1.1,0.3c0.4,0.1,0.7,0.1,1,0c0.2-0.2,0.4-0.3,0.4-0.6l0.6-1.7c0.2-0.5-0.1-0.9-0.8-1.2
		c-0.3-0.1-0.9-0.3-1.6-0.5c-0.7-0.2-1.6-0.2-2.6-0.2c-1.6,0-3,0.3-4.2,0.8c-1.2,0.5-2.3,1.2-3.2,2.1c-0.9,0.9-1.5,2-2,3.2
		c-0.5,1.2-0.7,2.6-0.7,4c0,3.5,0.9,6.1,2.7,7.9c1.8,1.7,4.2,2.6,7.2,2.6c1.1,0,2.1-0.1,2.9-0.2c0.9-0.2,1.5-0.3,1.8-0.4
		c0.6-0.2,0.9-0.6,0.8-1.2L114,111z M91.5,95.5c0-0.3-0.1-0.5-0.3-0.7c-0.2-0.2-0.5-0.3-0.8-0.3h-2.7c-0.3,0-0.6,0.1-0.8,0.3
		c-0.2,0.2-0.3,0.4-0.3,0.7v10.3c0,1.7-0.5,3.1-1.4,4c-0.9,0.9-2.1,1.4-3.6,1.4c-1.8,0-2.6-0.8-2.6-2.4V95.5c0-0.3-0.1-0.5-0.3-0.7
		c-0.2-0.2-0.5-0.3-0.8-0.3h-2.7c-0.3,0-0.6,0.1-0.8,0.3c-0.2,0.2-0.3,0.4-0.3,0.7v14c0,1.7,0.5,2.9,1.6,3.8
		c1.1,0.9,2.5,1.4,4.4,1.4c1.7,0,3.1-0.3,4.2-0.9c1.1-0.6,2-1.2,2.7-1.9l0.5,1.7c0.2,0.6,0.6,0.8,1.2,0.8h1.9c0.3,0,0.6-0.1,0.8-0.3
		c0.2-0.2,0.3-0.4,0.3-0.7V95.5z M67.5,111.5c0-0.2-0.1-0.5-0.3-0.7c-0.2-0.2-0.5-0.3-0.8-0.3h-9.1V87.7c0-0.3-0.1-0.5-0.4-0.7
		c-0.2-0.2-0.5-0.3-0.9-0.3h-2.8c-0.3,0-0.6,0.1-0.8,0.3c-0.2,0.2-0.3,0.4-0.3,0.7v25.7c0,0.3,0.1,0.5,0.3,0.7
		c0.2,0.2,0.5,0.3,0.8,0.3h13.1c0.3,0,0.6-0.1,0.8-0.3c0.2-0.2,0.3-0.4,0.3-0.7V111.5z"/>
</g>
<g>
</g>
<g>
</g>
<g>
</g>
<g>
</g>
<g>
</g>
<g>
</g>
<g>
</g>
<g>
</g>
<g>
</g>
<g>
</g>
<g>
</g>
<g>
</g>
<g>
</g>
<g>
</g>
<g>
</g>
</svg>
