<svg xmlns="http://www.w3.org/2000/svg" width="160" height="50" viewBox="0 0 160 50">
    <g fill="none" fill-rule="evenodd">
        <g fill-rule="nonzero">
            <g>
                <g>
                    <g>
                        <g>
                            <path fill="#90D400" d="M23.084 27.146v13.147h.085c.77-4.098 4.703-12.293 24.538-13.061v-.086H23.084zM29.154 24.67C25.478 23.903 16.415 20.147 15.39.257h-.085v24.5h13.85v-.085zM12.91 19.122h-.086c-.427 3.415-2.479 12.207-12.739 13.83v.255H12.91V19.122zM6.84 35.683C10.516 36.195 19.15 38.5 20.52 49h.085V35.512H6.84v.17z" transform="translate(-32 -102) translate(0 78) translate(32 24)"/>
                            <path fill="#2B3E6A" d="M56 8.707l.171-.597h-4.702c-1.796 0-3.335.597-4.617 1.878-1.283 1.28-1.967 2.732-1.967 4.61v2.987c0 1.195-.427 2.22-1.282 3.074-.855.853-1.88 1.28-3.078 1.28h-.77c-.854 0-1.624.341-2.222.939-.428.427-.684.854-.77 1.28l-.17.598h4.787c1.796 0 3.335-.597 4.617-1.878 1.282-1.28 1.966-2.732 1.966-4.61V15.28c0-1.195.428-2.219 1.283-3.073.855-.853 1.88-1.28 2.992-1.28h.77c.94 0 1.624-.256 2.308-.94.257-.34.599-.767.684-1.28M62.754 8.195c-2.308 0-4.19.768-5.899 2.39-1.624 1.622-2.48 3.5-2.48 5.805 0 2.305.77 4.183 2.48 5.805 1.624 1.622 3.59 2.39 5.9 2.39 2.308 0 4.189-.768 5.898-2.39 1.625-1.622 2.48-3.5 2.48-5.805 0-2.305-.77-4.183-2.48-5.805-1.71-1.536-3.59-2.39-5.899-2.39m3.933 12.207c-1.026 1.11-2.394 1.622-3.933 1.622-1.539 0-2.821-.512-3.933-1.622-1.026-1.11-1.539-2.39-1.539-3.926 0-1.537.513-2.817 1.54-3.927 1.11-1.11 2.393-1.708 3.932-1.708 1.54 0 2.822.598 3.933 1.708 1.111 1.11 1.624 2.39 1.624 3.927-.085 1.536-.598 2.817-1.624 3.926M85.582 8.707l.17-.597H80.88c-2.308 0-4.274.768-5.984 2.39s-2.48 3.585-2.48 5.89v8.451l.599-.17c.513-.171 1.026-.427 1.453-.854.684-.683 1.026-1.451 1.026-2.39V16.39c0-1.536.513-2.817 1.54-3.841 1.025-1.025 2.307-1.622 3.846-1.622h1.625c.855 0 1.624-.342 2.223-.94.427-.34.77-.767.855-1.28M127.39 8.11c-2.31 0-4.275.768-5.985 2.475-1.625 1.622-2.48 3.586-2.48 5.89v8.366l.599-.17c.513-.171 1.026-.427 1.453-.854.684-.683.94-1.451.94-2.39v-4.951c0-1.452.514-2.817 1.54-3.842 1.025-1.11 2.308-1.622 3.847-1.622 1.453 0 2.736.512 3.762 1.622 1.026 1.11 1.539 2.39 1.539 3.842v4.95c0 .94.342 1.708 1.026 2.391.427.427.94.768 1.453.854l.598.17v-8.365c0-2.305-.855-4.269-2.479-5.89-1.539-1.708-3.42-2.476-5.814-2.476M138.504 8.195l-.599-.17v13.402c0 .939.342 1.707 1.026 2.39.428.427.94.768 1.454.854l.598.17V11.44c0-.939-.342-1.707-1.026-2.39-.342-.427-.855-.683-1.453-.854M92.507 8.11c-2.309 0-4.275.768-5.985 2.475-1.71 1.622-2.48 3.586-2.48 5.89 0 2.305.856 4.269 2.48 5.89 1.71 1.623 3.591 2.391 5.985 2.391h1.71c.855 0 1.539-.256 2.137-.939.428-.427.684-.854.77-1.366l.17-.597h-4.873c-1.539 0-2.821-.513-3.847-1.622-1.026-1.11-1.539-2.39-1.539-3.842 0-1.451.513-2.817 1.539-3.841 1.026-1.11 2.308-1.622 3.847-1.622 1.454 0 2.822.512 3.848 1.622 1.026 1.11 1.539 2.39 1.539 3.841l.085 8.964c0 1.45-.513 2.817-1.624 3.841-1.026 1.025-2.309 1.622-3.848 1.622h-1.624c-.855 0-1.624.342-2.223.94-.342.426-.598.853-.77 1.28l-.17.597h4.873c2.394 0 4.36-.768 5.985-2.39 1.71-1.622 2.479-3.585 2.479-5.89v-8.878c0-2.305-.855-4.269-2.48-5.89-1.624-1.708-3.59-2.476-5.984-2.476M157.227 10.585c-1.71-1.622-3.676-2.475-5.984-2.475-2.309 0-4.275.768-5.985 2.475-1.71 1.622-2.48 3.586-2.48 5.89 0 2.305.856 4.269 2.48 5.89 1.71 1.623 3.676 2.391 5.985 2.391h.598c.855 0 1.54-.256 2.138-.939.427-.427.684-.854.77-1.366l.17-.597h-3.762c-1.453 0-2.821-.513-3.847-1.622-1.026-1.11-1.539-2.39-1.539-3.842 0-1.451.513-2.817 1.539-3.841 1.026-1.11 2.308-1.622 3.847-1.622 1.54 0 2.822.512 3.848 1.622 1.026 1.11 1.539 2.39 1.539 3.841v5.037c0 .939.341 1.707 1.025 2.39.428.427.94.768 1.54.854l.598.17v-8.536c0-2.134-.855-4.098-2.48-5.72" transform="translate(-32 -102) translate(0 78) translate(32 24)"/>
                            <path fill="#90D400" d="M116.018 21.939h-4.787H110.889c-1.454 0-2.822-.512-3.848-1.622-1.026-1.024-1.539-2.39-1.539-3.841 0-1.452.513-2.732 1.54-3.842 1.025-1.11 2.308-1.622 3.847-1.622h5.215c.427 0 .77-.17 1.026-.427.256-.256.427-.597.427-1.024 0-.427-.17-.768-.427-1.024-.257-.257-.599-.427-1.026-.427h-5.13c-2.308 0-4.275.768-5.985 2.475-1.71 1.622-2.48 3.586-2.48 5.89 0 2.305.77 4.269 2.48 5.89 1.625 1.623 3.591 2.391 5.985 2.391h5.13c.427 0 .77-.17 1.026-.427.256-.256.427-.597.427-1.024 0-.427-.17-.768-.427-1.025-.342-.256-.684-.341-1.112-.341" transform="translate(-32 -102) translate(0 78) translate(32 24)"/>
                            <path fill="#90D400" d="M108.238 16.39c0 .769.599 1.451 1.454 1.451h4.103c.94 0 1.71-.341 2.309-.939.427-.426.77-.853.855-1.365l.17-.598h-7.523c-.684 0-1.368.683-1.368 1.451" transform="translate(-32 -102) translate(0 78) translate(32 24)"/>
                            <path fill="#2B3E6A" d="M56.256 43.11L54.632 39.866 55.573 39.866 56.684 42.256 57.795 39.866 58.65 39.866 57.026 43.11 57.026 45.329 56.256 45.329zM61.386 42.598c0-.683 0-1.11.086-1.28 0-.257.085-.428.17-.513.172-.256.343-.512.6-.683.256-.17.598-.342 1.025-.342.428 0 .77.086 1.026.342.257.17.513.427.599.683.085.17.17.341.17.512 0 .256.086.683.086 1.28 0 .598 0 1.025-.085 1.281 0 .256-.086.427-.171.512-.086.256-.342.512-.599.683-.256.17-.598.342-1.026.342-.427 0-.77-.086-1.026-.342-.342-.17-.513-.427-.598-.683 0-.085-.086-.17-.086-.256 0-.085 0-.17-.085-.256-.086-.256-.086-.683-.086-1.28m.855 0c0 .512 0 .939.086 1.11 0 .17.085.34.17.426.086.086.172.17.343.256.17.086.256.086.513.086.17 0 .342 0 .513-.086.17-.085.256-.17.342-.256.085-.085.17-.256.256-.427 0-.17.086-.512.086-1.11 0-.512 0-.938-.086-1.11-.085-.17-.085-.34-.256-.426-.086-.085-.171-.256-.342-.256-.171-.085-.342-.085-.513-.085-.171 0-.342 0-.513.085-.171.085-.257.17-.342.256-.086.085-.171.256-.171.427-.086.17-.086.597-.086 1.11M68.824 39.866h.855v3.585c0 .342.086.683.342.854.171.256.428.341.77.341s.598-.085.77-.341c.17-.17.341-.512.341-.854v-3.585h.77v3.67c0 .598-.171 1.025-.513 1.366-.342.342-.855.513-1.368.513-.513 0-1.026-.171-1.368-.513-.342-.341-.513-.768-.513-1.365v-3.671h-.086zM76.348 39.866h2.137c.428 0 .77.085 1.112.341.342.256.513.683.513 1.195 0 .769-.342 1.28-1.026 1.537l1.197 2.476h-.94l-1.112-2.39h-1.026v2.39h-.855v-5.55zm.77 2.39h1.197c.341 0 .512-.085.683-.256.171-.17.257-.341.257-.598 0-.256-.086-.512-.257-.597-.17-.085-.342-.17-.598-.17h-1.282v1.621zM88.061 39.866L88.745 39.866 91.224 43.793 91.224 43.793 91.224 39.866 92.079 39.866 92.079 45.329 91.31 45.329 88.831 41.402 88.831 41.402 88.831 45.329 88.061 45.329zM95.927 39.866L99.347 39.866 99.347 40.634 96.696 40.634 96.696 42.171 98.919 42.171 98.919 42.939 96.696 42.939 96.696 44.561 99.347 44.561 99.347 45.329 95.927 45.329zM104.22 43.28L103.023 45.329 102.082 45.329 103.792 42.512 102.253 39.866 103.108 39.866 104.22 41.744 105.246 39.866 106.186 39.866 104.647 42.512 106.272 45.329 105.417 45.329zM110.376 40.549L108.922 40.549 108.922 39.866 112.684 39.866 112.684 40.549 111.231 40.549 111.231 45.329 110.376 45.329zM120.293 39.866L123.713 39.866 123.713 40.634 121.148 40.634 121.148 42.171 123.371 42.171 123.371 42.939 121.148 42.939 121.148 44.561 123.713 44.561 123.713 45.329 120.293 45.329zM127.218 39.866L127.988 39.866 130.382 43.793 130.382 43.793 130.382 39.866 131.237 39.866 131.237 45.329 130.467 45.329 128.073 41.402 127.988 41.402 127.988 45.329 127.218 45.329zM135.084 39.866L138.504 39.866 138.504 40.634 135.853 40.634 135.853 42.171 138.076 42.171 138.076 42.939 135.853 42.939 135.853 44.561 138.504 44.561 138.504 45.329 135.084 45.329zM141.924 39.866h2.052c.427 0 .855.085 1.111.341.342.256.513.683.513 1.195 0 .769-.342 1.28-1.026 1.537l1.282 2.476h-.94l-1.111-2.39h-1.026v2.39h-.855v-5.55zm.855 2.39h1.282c.342 0 .513-.085.684-.256.171-.17.257-.341.257-.598 0-.256-.086-.512-.257-.597-.171-.085-.342-.17-.598-.17h-1.368v1.621zM150.986 42.341h1.881v1.11c0 .512-.17 1.025-.598 1.366-.342.342-.855.598-1.368.598-.428 0-.77-.086-1.026-.342-.342-.17-.513-.427-.599-.683-.085-.085-.085-.17-.085-.256 0-.085 0-.17-.086-.256 0-.256-.085-.683-.085-1.28 0-.683 0-1.11.085-1.28 0-.257.086-.428.171-.513.086-.256.342-.512.599-.683.256-.17.598-.342 1.026-.342.513 0 .94.171 1.282.427.342.342.513.683.599 1.195h-.855c-.086-.256-.171-.426-.342-.597-.171-.17-.428-.256-.684-.256-.171 0-.342 0-.513.085-.171.086-.257.17-.342.256-.086.086-.171.256-.171.427 0 .17-.086.598-.086 1.11 0 .512 0 .939.086 1.11 0 .17.085.341.17.426.086.086.172.171.343.257.17.085.342.085.513.085.342 0 .598-.085.77-.342.17-.256.341-.512.341-.853v-.256h-1.111v-.513h.085zM157.484 43.11L155.86 39.866 156.715 39.866 157.826 42.256 158.937 39.866 159.792 39.866 158.168 43.11 158.168 45.329 157.484 45.329z" transform="translate(-32 -102) translate(0 78) translate(32 24)"/>
                        </g>
                    </g>
                </g>
            </g>
        </g>
    </g>
</svg>
