<svg id="Livello_1" data-name="Livello 1" xmlns="http://www.w3.org/2000/svg" xmlns:xlink="http://www.w3.org/1999/xlink" viewBox="0 0 226.77 99.21"><defs><style>.cls-1{fill:#0e166d;}.cls-2{fill:url(#Sfumatura_senza_nome_8);}.cls-3{fill:url(#Sfumatura_senza_nome_7);}.cls-4{fill:#f93a04;}.cls-5{fill:url(#Sfumatura_senza_nome_4);}.cls-6{fill:url(#Sfumatura_senza_nome_3);}.cls-7{fill:url(#Sfumatura_senza_nome_2);}.cls-8{fill:url(#Nuovo_campione_sfumatura_2);}.cls-9{fill:#2e3349;}</style><linearGradient id="Sfumatura_senza_nome_8" x1="5.69" y1="25.76" x2="27.37" y2="79.37" gradientUnits="userSpaceOnUse"><stop offset="0" stop-color="#fa7f84"/><stop offset="1" stop-color="#fbbc11"/></linearGradient><linearGradient id="Sfumatura_senza_nome_7" x1="55.12" y1="25.85" x2="34.34" y2="82.32" gradientUnits="userSpaceOnUse"><stop offset="0" stop-color="#f30b53"/><stop offset="0.01" stop-color="#f30c52"/><stop offset="0.23" stop-color="#f53738"/><stop offset="0.45" stop-color="#f75924"/><stop offset="0.65" stop-color="#f87116"/><stop offset="0.84" stop-color="#f9800d"/><stop offset="1" stop-color="#f9850a"/></linearGradient><linearGradient id="Sfumatura_senza_nome_4" x1="58.24" y1="19.21" x2="69.4" y2="-11.29" gradientUnits="userSpaceOnUse"><stop offset="0" stop-color="#f30b53"/><stop offset="0.1" stop-color="#f31450"/><stop offset="0.26" stop-color="#f42d49"/><stop offset="0.46" stop-color="#f6563d"/><stop offset="0.7" stop-color="#f88e2c"/><stop offset="0.97" stop-color="#fbd518"/><stop offset="1" stop-color="#fbde15"/></linearGradient><linearGradient id="Sfumatura_senza_nome_3" x1="98.75" y1="25.85" x2="77.97" y2="82.32" gradientUnits="userSpaceOnUse"><stop offset="0" stop-color="#680278"/><stop offset="0.15" stop-color="#640b7d"/><stop offset="0.41" stop-color="#5a248a"/><stop offset="0.73" stop-color="#494c9e"/><stop offset="1" stop-color="#3974b3"/></linearGradient><linearGradient id="Sfumatura_senza_nome_2" x1="101.87" y1="19.21" x2="113.03" y2="-11.29" gradientUnits="userSpaceOnUse"><stop offset="0" stop-color="#680278"/><stop offset="0.21" stop-color="#63067a"/><stop offset="0.47" stop-color="#541380"/><stop offset="0.74" stop-color="#3c288a"/><stop offset="1" stop-color="#1f4197"/></linearGradient><linearGradient id="Nuovo_campione_sfumatura_2" x1="57.4" y1="45.24" x2="71.15" y2="78.44" gradientUnits="userSpaceOnUse"><stop offset="0" stop-color="#6cbf6c"/><stop offset="0.25" stop-color="#63b279"/><stop offset="0.7" stop-color="#4b8f9a"/><stop offset="1" stop-color="#3975b4"/></linearGradient></defs><path class="cls-1" d="M80.44,87,74.19,69.27l-6,16.62a6,6,0,0,0-.38,3A3,3,0,0,0,68.06,90s1.63,4.18,5.91,4.18l1,0A6.06,6.06,0,0,0,80,90.4S80.92,88.15,80.44,87Z"/><path class="cls-2" d="M24.71,86.1l5.85-16.83L17.09,30.43a8.43,8.43,0,0,0-7.83-5.31H8.45A8.45,8.45,0,0,0,.61,36.71L24.43,89.58A6,6,0,0,1,24.71,86.1Z"/><path class="cls-3" d="M52.67,25.17h-.81A8.44,8.44,0,0,0,44,30.48l-.26.75-13.2,38L36.39,86.1a5.83,5.83,0,0,1,.28,3.48L52.27,55,60.5,36.76A8.45,8.45,0,0,0,52.67,25.17Z"/><path class="cls-4" d="M36.39,86.1,30.56,69.27,24.71,86.1a6,6,0,0,0-.28,3.48l.42.92a5.9,5.9,0,0,0,5,3.7h1.45a5.92,5.92,0,0,0,5-3.7l.41-.92A5.83,5.83,0,0,0,36.39,86.1Z"/><ellipse class="cls-5" cx="61.7" cy="9.77" rx="9.75" ry="9.77"/><path class="cls-6" d="M96.3,25.17h-.81a8.44,8.44,0,0,0-7.84,5.31l-.26.75-13.2,38L80,86.1a5.83,5.83,0,0,1,.28,3.48L95.9,55l8.23-18.23A8.45,8.45,0,0,0,96.3,25.17Z"/><ellipse class="cls-7" cx="105.33" cy="9.77" rx="9.75" ry="9.77"/><path class="cls-8" d="M68.22,86.1l6-16.83c-5.07-14.59-12-33.93-13.43-38a8.42,8.42,0,0,1-.26,5.54L52.27,55,68.06,90A5.89,5.89,0,0,1,68.22,86.1Z"/><path class="cls-9" d="M125.11,82.16a5.56,5.56,0,0,1,2,2.22,7,7,0,0,1,.73,3.23.81.81,0,0,1-.23.6.87.87,0,0,1-.6.22h-9.38a4.57,4.57,0,0,0,4.74,4.27,5,5,0,0,0,1.68-.29,4,4,0,0,0,1.36-.73,1,1,0,0,1,.62-.23.83.83,0,0,1,.51.19.82.82,0,0,1,.3.62.72.72,0,0,1-.25.54,6.44,6.44,0,0,1-2,1.08,6.69,6.69,0,0,1-5.59-.4,5.82,5.82,0,0,1-2.29-2.3,6.68,6.68,0,0,1-.82-3.33,7.06,7.06,0,0,1,.78-3.36,5.69,5.69,0,0,1,2.15-2.3,6,6,0,0,1,3.15-.83A5.8,5.8,0,0,1,125.11,82.16Zm-6,1.9a4.72,4.72,0,0,0-1.42,2.88h8.49a4.55,4.55,0,0,0-1.3-2.88A3.88,3.88,0,0,0,122.07,83,4.07,4.07,0,0,0,119.15,84.06Z"/><path class="cls-9" d="M141,82a5,5,0,0,1,2.05,2,6.55,6.55,0,0,1,.74,3.2v6a.85.85,0,0,1-.88.88.88.88,0,0,1-.65-.25.85.85,0,0,1-.25-.63v-6a4.14,4.14,0,0,0-1.15-3.15,4.22,4.22,0,0,0-3-1.08,4.57,4.57,0,0,0-2,.44,3.55,3.55,0,0,0-1.45,1.22,3,3,0,0,0-.53,1.73v6.88a.88.88,0,0,1-.25.64.86.86,0,0,1-.64.24.92.92,0,0,1-.65-.24.84.84,0,0,1-.25-.64V82.39a.91.91,0,0,1,.25-.66.88.88,0,0,1,.65-.25.83.83,0,0,1,.64.25,1,1,0,0,1,.25.66v.79a5.21,5.21,0,0,1,1.85-1.35,5.68,5.68,0,0,1,2.37-.49A6.16,6.16,0,0,1,141,82Z"/><path class="cls-9" d="M157.38,82.16a5.49,5.49,0,0,1,2.05,2.22,7,7,0,0,1,.74,3.23.78.78,0,0,1-.24.6.85.85,0,0,1-.6.22H150a4.55,4.55,0,0,0,4.73,4.27,5,5,0,0,0,1.68-.29,3.88,3.88,0,0,0,1.36-.73,1,1,0,0,1,.63-.23.83.83,0,0,1,.51.19.82.82,0,0,1,.3.62.73.73,0,0,1-.26.54A6.44,6.44,0,0,1,157,93.88a6.54,6.54,0,0,1-2.27.43,6.65,6.65,0,0,1-3.32-.83,5.86,5.86,0,0,1-2.28-2.3,6.69,6.69,0,0,1-.83-3.33,7.06,7.06,0,0,1,.78-3.36,5.71,5.71,0,0,1,2.16-2.3,6,6,0,0,1,3.14-.83A5.77,5.77,0,0,1,157.38,82.16Zm-6,1.9A4.72,4.72,0,0,0,150,86.94h8.49a4.54,4.54,0,0,0-1.29-2.88A3.92,3.92,0,0,0,154.34,83,4.08,4.08,0,0,0,151.42,84.06Z"/><path class="cls-9" d="M171.62,81.59a.82.82,0,0,1,.56.73.53.53,0,0,1,0,.2.73.73,0,0,1-.29.45,1.15,1.15,0,0,1-.54.11c-.14,0-.38,0-.72,0a3.88,3.88,0,0,0-.56,0,4.24,4.24,0,0,0-2.84.93,3,3,0,0,0-1.1,2.42v7a.87.87,0,0,1-.24.65.89.89,0,0,1-.65.23.92.92,0,0,1-.65-.23.9.9,0,0,1-.23-.65v-11a.9.9,0,0,1,.23-.65.92.92,0,0,1,.65-.23.89.89,0,0,1,.65.23.87.87,0,0,1,.24.65v1a4.6,4.6,0,0,1,1.71-1.51,5,5,0,0,1,2.25-.53A3.89,3.89,0,0,1,171.62,81.59Z"/><path class="cls-9" d="M184,82.19a5.89,5.89,0,0,1,2.29,2.3,6.65,6.65,0,0,1,.84,3.36v4.74a7,7,0,0,1-.82,3.37A6.09,6.09,0,0,1,184,98.34a6.29,6.29,0,0,1-3.29.87,7.18,7.18,0,0,1-3.18-.67,6.73,6.73,0,0,1-2.35-1.88.79.79,0,0,1-.2-.54.73.73,0,0,1,.32-.6.85.85,0,0,1,.51-.17.94.94,0,0,1,.42.11.78.78,0,0,1,.32.27,4.83,4.83,0,0,0,1.77,1.37,5.79,5.79,0,0,0,2.41.49,4.43,4.43,0,0,0,4-2.43,5.53,5.53,0,0,0,.61-2.64v-1a5.15,5.15,0,0,1-2,2.08,5.51,5.51,0,0,1-2.9.76,6.34,6.34,0,0,1-3.23-.83,5.74,5.74,0,0,1-2.23-2.3,6.89,6.89,0,0,1-.8-3.33,6.75,6.75,0,0,1,.83-3.36,5.94,5.94,0,0,1,2.31-2.3,7,7,0,0,1,6.63,0Zm-.91,9.88a4.45,4.45,0,0,0,1.67-1.72,5.43,5.43,0,0,0,0-5,4.41,4.41,0,0,0-1.67-1.73A4.63,4.63,0,0,0,180.7,83a4.72,4.72,0,0,0-2.44.63,4.48,4.48,0,0,0-1.67,1.73,5.51,5.51,0,0,0,0,5,4.52,4.52,0,0,0,1.67,1.72,4.8,4.8,0,0,0,2.44.61A4.72,4.72,0,0,0,183.11,92.07Z"/><path class="cls-9" d="M192.15,78.69a1.26,1.26,0,0,1-.36-.91,1.16,1.16,0,0,1,.37-.9,1.25,1.25,0,0,1,.91-.35,1.21,1.21,0,0,1,.88.35,1.2,1.2,0,0,1,.37.9,1.27,1.27,0,0,1-.37.91,1.23,1.23,0,0,1-.91.37A1.19,1.19,0,0,1,192.15,78.69Zm.27,15.25a.89.89,0,0,1-.26-.65V82.39a.91.91,0,0,1,.26-.66.87.87,0,0,1,.65-.25.82.82,0,0,1,.63.25.91.91,0,0,1,.25.66v10.9a.88.88,0,0,1-.25.65.82.82,0,0,1-.63.25A.87.87,0,0,1,192.42,93.94Z"/><path class="cls-9" d="M208.71,82.21A6.23,6.23,0,0,1,211,84.55a6.58,6.58,0,0,1,.84,3.3v5.46a.85.85,0,0,1-.25.63.88.88,0,0,1-.65.25.9.9,0,0,1-.65-.24.85.85,0,0,1-.26-.64v-1.4A5.75,5.75,0,0,1,208,93.67a6,6,0,0,1-2.76.64,6.12,6.12,0,0,1-5.44-3.17,6.64,6.64,0,0,1-.83-3.29,6.49,6.49,0,0,1,.85-3.3,6.2,6.2,0,0,1,2.32-2.34,6.75,6.75,0,0,1,6.56,0Zm-.89,9.84a4.44,4.44,0,0,0,1.68-1.73,5.25,5.25,0,0,0,0-4.95,4.68,4.68,0,0,0-1.68-1.74,4.53,4.53,0,0,0-2.39-.64,4.61,4.61,0,0,0-4.09,2.38,5.25,5.25,0,0,0,0,4.95A4.39,4.39,0,0,0,203,92.05a4.68,4.68,0,0,0,2.4.63A4.61,4.61,0,0,0,207.82,92.05Z"/><path class="cls-9" d="M125.28,66.59a2.13,2.13,0,0,1-1.92-1.21l-8.57-17.62a2.14,2.14,0,1,1,3.85-1.88l6.64,13.66,6.64-13.66a2.15,2.15,0,0,1,3.86,1.88l-8.57,17.62A2.15,2.15,0,0,1,125.28,66.59Z"/><path class="cls-9" d="M158,66.59a2.12,2.12,0,0,1-1.92-1.21l-8.57-17.62a2.14,2.14,0,1,1,3.85-1.88L158,59.54l6.64-13.66a2.14,2.14,0,1,1,3.85,1.88L160,65.38A2.15,2.15,0,0,1,158,66.59Z"/><path class="cls-9" d="M141.65,67.05a2.14,2.14,0,0,1-2.14-2.15V46.82a2.14,2.14,0,1,1,4.28,0V64.9A2.14,2.14,0,0,1,141.65,67.05Z"/><path class="cls-9" d="M174.45,67.05a2.14,2.14,0,0,1-2.14-2.15V46.82a2.14,2.14,0,1,1,4.28,0V64.9A2.14,2.14,0,0,1,174.45,67.05Z"/></svg>